%TF.GenerationSoftware,KiCad,Pcbnew,(5.1.8)-1*%
%TF.CreationDate,2020-12-03T12:02:38+01:00*%
%TF.ProjectId,repartiteur,72657061-7274-4697-9465-75722e6b6963,rev?*%
%TF.SameCoordinates,Original*%
%TF.FileFunction,Copper,L2,Bot*%
%TF.FilePolarity,Positive*%
%FSLAX46Y46*%
G04 Gerber Fmt 4.6, Leading zero omitted, Abs format (unit mm)*
G04 Created by KiCad (PCBNEW (5.1.8)-1) date 2020-12-03 12:02:38*
%MOMM*%
%LPD*%
G01*
G04 APERTURE LIST*
%TA.AperFunction,NonConductor*%
%ADD10C,0.300000*%
%TD*%
%TA.AperFunction,ComponentPad*%
%ADD11O,1.600000X1.600000*%
%TD*%
%TA.AperFunction,ComponentPad*%
%ADD12C,1.600000*%
%TD*%
%TA.AperFunction,ComponentPad*%
%ADD13O,1.200000X1.200000*%
%TD*%
%TA.AperFunction,ComponentPad*%
%ADD14O,1.600000X1.200000*%
%TD*%
%TA.AperFunction,ComponentPad*%
%ADD15R,1.800000X1.600000*%
%TD*%
%TA.AperFunction,ComponentPad*%
%ADD16R,1.600000X1.600000*%
%TD*%
%TA.AperFunction,ComponentPad*%
%ADD17O,2.200000X2.200000*%
%TD*%
%TA.AperFunction,ComponentPad*%
%ADD18R,2.200000X2.200000*%
%TD*%
%TA.AperFunction,ComponentPad*%
%ADD19O,2.000000X2.000000*%
%TD*%
%TA.AperFunction,ComponentPad*%
%ADD20R,2.000000X2.000000*%
%TD*%
%TA.AperFunction,ComponentPad*%
%ADD21C,3.000000*%
%TD*%
%TA.AperFunction,ComponentPad*%
%ADD22R,3.000000X3.000000*%
%TD*%
%TA.AperFunction,ComponentPad*%
%ADD23O,1.700000X1.700000*%
%TD*%
%TA.AperFunction,ComponentPad*%
%ADD24R,1.700000X1.700000*%
%TD*%
%TA.AperFunction,ComponentPad*%
%ADD25C,1.440000*%
%TD*%
%TA.AperFunction,ComponentPad*%
%ADD26O,1.600000X2.400000*%
%TD*%
%TA.AperFunction,ComponentPad*%
%ADD27R,1.600000X2.400000*%
%TD*%
%TA.AperFunction,ComponentPad*%
%ADD28C,2.000000*%
%TD*%
%TA.AperFunction,ComponentPad*%
%ADD29C,1.800000*%
%TD*%
%TA.AperFunction,ComponentPad*%
%ADD30R,1.800000X1.800000*%
%TD*%
%TA.AperFunction,ViaPad*%
%ADD31C,0.800000*%
%TD*%
%TA.AperFunction,Conductor*%
%ADD32C,0.500000*%
%TD*%
%TA.AperFunction,Conductor*%
%ADD33C,1.000000*%
%TD*%
G04 APERTURE END LIST*
D10*
X173700000Y-66575714D02*
X173771428Y-66647142D01*
X173985714Y-66718571D01*
X174128571Y-66718571D01*
X174342857Y-66647142D01*
X174485714Y-66504285D01*
X174557142Y-66361428D01*
X174628571Y-66075714D01*
X174628571Y-65861428D01*
X174557142Y-65575714D01*
X174485714Y-65432857D01*
X174342857Y-65290000D01*
X174128571Y-65218571D01*
X173985714Y-65218571D01*
X173771428Y-65290000D01*
X173700000Y-65361428D01*
X172414285Y-65718571D02*
X172414285Y-66718571D01*
X173057142Y-65718571D02*
X173057142Y-66504285D01*
X172985714Y-66647142D01*
X172842857Y-66718571D01*
X172628571Y-66718571D01*
X172485714Y-66647142D01*
X172414285Y-66575714D01*
X171700000Y-66718571D02*
X171700000Y-65718571D01*
X171700000Y-65218571D02*
X171771428Y-65290000D01*
X171700000Y-65361428D01*
X171628571Y-65290000D01*
X171700000Y-65218571D01*
X171700000Y-65361428D01*
X171128571Y-65718571D02*
X170771428Y-66718571D01*
X170414285Y-65718571D01*
X169842857Y-66718571D02*
X169842857Y-65718571D01*
X169842857Y-66004285D02*
X169771428Y-65861428D01*
X169700000Y-65790000D01*
X169557142Y-65718571D01*
X169414285Y-65718571D01*
X168342857Y-66647142D02*
X168485714Y-66718571D01*
X168771428Y-66718571D01*
X168914285Y-66647142D01*
X168985714Y-66504285D01*
X168985714Y-65932857D01*
X168914285Y-65790000D01*
X168771428Y-65718571D01*
X168485714Y-65718571D01*
X168342857Y-65790000D01*
X168271428Y-65932857D01*
X168271428Y-66075714D01*
X168985714Y-66218571D01*
D11*
%TO.P,R17,2*%
%TO.N,GNDA*%
X171450000Y-99822000D03*
D12*
%TO.P,R17,1*%
%TO.N,Net-(C7-Pad1)*%
X179070000Y-99822000D03*
%TD*%
D13*
%TO.P,Q1,3*%
%TO.N,Net-(J2-Pad13)*%
X119634000Y-72898000D03*
%TO.P,Q1,2*%
%TO.N,/3\u002C3V*%
X120904000Y-71628000D03*
D14*
%TO.P,Q1,1*%
%TO.N,Net-(Q1-Pad1)*%
X122174000Y-72898000D03*
%TD*%
D13*
%TO.P,Q3,3*%
%TO.N,Net-(J2-Pad37)*%
X180594000Y-72898000D03*
%TO.P,Q3,2*%
%TO.N,/3\u002C3V*%
X181864000Y-71628000D03*
D14*
%TO.P,Q3,1*%
%TO.N,Net-(D2-Pad2)*%
X183134000Y-72898000D03*
%TD*%
D13*
%TO.P,Q4,3*%
%TO.N,Net-(J2-Pad22)*%
X160274000Y-72898000D03*
%TO.P,Q4,2*%
%TO.N,/3\u002C3V*%
X161544000Y-71628000D03*
D14*
%TO.P,Q4,1*%
%TO.N,Net-(D5-Pad2)*%
X162814000Y-72898000D03*
%TD*%
D13*
%TO.P,Q6,3*%
%TO.N,Net-(J2-Pad18)*%
X139954000Y-72898000D03*
%TO.P,Q6,2*%
%TO.N,/3\u002C3V*%
X141224000Y-71628000D03*
D14*
%TO.P,Q6,1*%
%TO.N,Net-(Q6-Pad1)*%
X142494000Y-72898000D03*
%TD*%
D11*
%TO.P,R3,2*%
%TO.N,Net-(C4-Pad1)*%
X132080000Y-84836000D03*
D12*
%TO.P,R3,1*%
%TO.N,Net-(Q1-Pad1)*%
X132080000Y-92456000D03*
%TD*%
%TO.P,K2,12*%
%TO.N,Net-(D2-Pad2)*%
X200660000Y-92202000D03*
%TO.P,K2,14*%
%TO.N,Net-(K2-Pad14)*%
X205740000Y-92202000D03*
%TO.P,K2,11*%
%TO.N,Net-(K2-Pad11)*%
X195580000Y-92202000D03*
%TO.P,K2,A2*%
%TO.N,/VDD2_AF*%
X187960000Y-84582000D03*
D15*
%TO.P,K2,A1*%
%TO.N,Net-(D5-Pad2)*%
X187960000Y-92202000D03*
D12*
%TO.P,K2,24*%
%TO.N,Net-(D4-Pad2)*%
X205740000Y-84582000D03*
%TO.P,K2,22*%
%TO.N,Net-(K2-Pad22)*%
X200660000Y-84582000D03*
%TO.P,K2,21*%
%TO.N,/VDD2_AF*%
X195580000Y-84582000D03*
%TD*%
D11*
%TO.P,R11,2*%
%TO.N,/3\u002C3V*%
X146050000Y-72390000D03*
D12*
%TO.P,R11,1*%
%TO.N,Net-(J2-Pad22)*%
X153670000Y-72390000D03*
%TD*%
D11*
%TO.P,R8,2*%
%TO.N,Net-(D2-Pad2)*%
X173990000Y-75946000D03*
D12*
%TO.P,R8,1*%
%TO.N,/VDD_OUT*%
X166370000Y-75946000D03*
%TD*%
D11*
%TO.P,R9,2*%
%TO.N,/3\u002C3V*%
X166370000Y-72390000D03*
D12*
%TO.P,R9,1*%
%TO.N,Net-(J2-Pad37)*%
X173990000Y-72390000D03*
%TD*%
%TO.P,C1,2*%
%TO.N,GNDA*%
X106934000Y-90852000D03*
%TO.P,C1,1*%
%TO.N,/Vref1*%
X106934000Y-85852000D03*
%TD*%
%TO.P,C3,2*%
%TO.N,GNDA*%
X127000000Y-115980000D03*
%TO.P,C3,1*%
%TO.N,/VDD1_AF*%
X127000000Y-110980000D03*
%TD*%
%TO.P,C4,2*%
%TO.N,/Vref1*%
X115824000Y-90344000D03*
%TO.P,C4,1*%
%TO.N,Net-(C4-Pad1)*%
X115824000Y-85344000D03*
%TD*%
%TO.P,C7,2*%
%TO.N,/Vref2*%
X167386000Y-90344000D03*
%TO.P,C7,1*%
%TO.N,Net-(C7-Pad1)*%
X167386000Y-85344000D03*
%TD*%
%TO.P,C9,2*%
%TO.N,GNDA*%
X196850000Y-115998000D03*
%TO.P,C9,1*%
%TO.N,/VDD2_AF*%
X196850000Y-110998000D03*
%TD*%
%TO.P,C10,2*%
%TO.N,GNDA*%
X158242000Y-91360000D03*
%TO.P,C10,1*%
%TO.N,/Vref2*%
X158242000Y-86360000D03*
%TD*%
%TO.P,C11,2*%
%TO.N,GNDA*%
X109046000Y-80518000D03*
%TO.P,C11,1*%
%TO.N,/VDD1_AF*%
X114046000Y-80518000D03*
%TD*%
%TO.P,C12,2*%
%TO.N,GNDA*%
X159084000Y-80518000D03*
%TO.P,C12,1*%
%TO.N,/VDD2_AF*%
X164084000Y-80518000D03*
%TD*%
D11*
%TO.P,D1,2*%
%TO.N,GNDA*%
X111506000Y-93726000D03*
D16*
%TO.P,D1,1*%
%TO.N,/Vref1*%
X111506000Y-83566000D03*
%TD*%
D17*
%TO.P,D2,2*%
%TO.N,Net-(D2-Pad2)*%
X150368000Y-80772000D03*
D18*
%TO.P,D2,1*%
%TO.N,/VDD1_AF*%
X140208000Y-80772000D03*
%TD*%
D17*
%TO.P,D3,2*%
%TO.N,Net-(D3-Pad2)*%
X141478000Y-105410000D03*
D18*
%TO.P,D3,1*%
%TO.N,/VDD_OUT*%
X151638000Y-105410000D03*
%TD*%
D17*
%TO.P,D4,2*%
%TO.N,Net-(D4-Pad2)*%
X166878000Y-105410000D03*
D18*
%TO.P,D4,1*%
%TO.N,/VDD_OUT*%
X156718000Y-105410000D03*
%TD*%
D17*
%TO.P,D5,2*%
%TO.N,Net-(D5-Pad2)*%
X201168000Y-80772000D03*
D18*
%TO.P,D5,1*%
%TO.N,/VDD2_AF*%
X191008000Y-80772000D03*
%TD*%
D11*
%TO.P,D6,2*%
%TO.N,GNDA*%
X162814000Y-93726000D03*
D16*
%TO.P,D6,1*%
%TO.N,/Vref2*%
X162814000Y-83566000D03*
%TD*%
D19*
%TO.P,D7,2*%
%TO.N,GNDA*%
X117540000Y-105230000D03*
D20*
%TO.P,D7,1*%
%TO.N,/VDD1_AF*%
X122620000Y-105230000D03*
%TD*%
D19*
%TO.P,D8,2*%
%TO.N,GNDA*%
X178562000Y-105156000D03*
D20*
%TO.P,D8,1*%
%TO.N,/VDD2_AF*%
X183642000Y-105156000D03*
%TD*%
D12*
%TO.P,F1,2*%
%TO.N,/VDD1*%
X122870000Y-115980000D03*
%TO.P,F1,1*%
%TO.N,/VDD1_AF*%
X122870000Y-110980000D03*
%TD*%
%TO.P,F2,2*%
%TO.N,/VDD2*%
X192786000Y-115998000D03*
%TO.P,F2,1*%
%TO.N,/VDD2_AF*%
X192786000Y-110998000D03*
%TD*%
D21*
%TO.P,J1,2*%
%TO.N,GNDA*%
X117602000Y-113792000D03*
D22*
%TO.P,J1,1*%
%TO.N,/VDD1*%
X112522000Y-113792000D03*
%TD*%
D23*
%TO.P,J2,40*%
%TO.N,Net-(J2-Pad40)*%
X159512000Y-64516000D03*
%TO.P,J2,39*%
%TO.N,Net-(J2-Pad39)*%
X159512000Y-67056000D03*
%TO.P,J2,38*%
%TO.N,Net-(J2-Pad38)*%
X156972000Y-64516000D03*
%TO.P,J2,37*%
%TO.N,Net-(J2-Pad37)*%
X156972000Y-67056000D03*
%TO.P,J2,36*%
%TO.N,Net-(J2-Pad36)*%
X154432000Y-64516000D03*
%TO.P,J2,35*%
%TO.N,Net-(J2-Pad35)*%
X154432000Y-67056000D03*
%TO.P,J2,34*%
%TO.N,Net-(J2-Pad34)*%
X151892000Y-64516000D03*
%TO.P,J2,33*%
%TO.N,Net-(J2-Pad33)*%
X151892000Y-67056000D03*
%TO.P,J2,32*%
%TO.N,Net-(J2-Pad32)*%
X149352000Y-64516000D03*
%TO.P,J2,31*%
%TO.N,Net-(J2-Pad31)*%
X149352000Y-67056000D03*
%TO.P,J2,30*%
%TO.N,Net-(J2-Pad30)*%
X146812000Y-64516000D03*
%TO.P,J2,29*%
%TO.N,Net-(J2-Pad29)*%
X146812000Y-67056000D03*
%TO.P,J2,28*%
%TO.N,Net-(J2-Pad28)*%
X144272000Y-64516000D03*
%TO.P,J2,27*%
%TO.N,Net-(J2-Pad27)*%
X144272000Y-67056000D03*
%TO.P,J2,26*%
%TO.N,Net-(J2-Pad26)*%
X141732000Y-64516000D03*
%TO.P,J2,25*%
%TO.N,Net-(J2-Pad25)*%
X141732000Y-67056000D03*
%TO.P,J2,24*%
%TO.N,Net-(J2-Pad24)*%
X139192000Y-64516000D03*
%TO.P,J2,23*%
%TO.N,Net-(J2-Pad23)*%
X139192000Y-67056000D03*
%TO.P,J2,22*%
%TO.N,Net-(J2-Pad22)*%
X136652000Y-64516000D03*
%TO.P,J2,21*%
%TO.N,Net-(J2-Pad21)*%
X136652000Y-67056000D03*
%TO.P,J2,20*%
%TO.N,Net-(J2-Pad20)*%
X134112000Y-64516000D03*
%TO.P,J2,19*%
%TO.N,Net-(J2-Pad19)*%
X134112000Y-67056000D03*
%TO.P,J2,18*%
%TO.N,Net-(J2-Pad18)*%
X131572000Y-64516000D03*
%TO.P,J2,17*%
%TO.N,Net-(J2-Pad17)*%
X131572000Y-67056000D03*
%TO.P,J2,16*%
%TO.N,Net-(J2-Pad16)*%
X129032000Y-64516000D03*
%TO.P,J2,15*%
%TO.N,Net-(J2-Pad15)*%
X129032000Y-67056000D03*
%TO.P,J2,14*%
%TO.N,Net-(J2-Pad14)*%
X126492000Y-64516000D03*
%TO.P,J2,13*%
%TO.N,Net-(J2-Pad13)*%
X126492000Y-67056000D03*
%TO.P,J2,12*%
%TO.N,Net-(J2-Pad12)*%
X123952000Y-64516000D03*
%TO.P,J2,11*%
%TO.N,Net-(J2-Pad11)*%
X123952000Y-67056000D03*
%TO.P,J2,10*%
%TO.N,Net-(J2-Pad10)*%
X121412000Y-64516000D03*
%TO.P,J2,9*%
%TO.N,Net-(J2-Pad9)*%
X121412000Y-67056000D03*
%TO.P,J2,8*%
%TO.N,Net-(J2-Pad8)*%
X118872000Y-64516000D03*
%TO.P,J2,7*%
%TO.N,Net-(J2-Pad7)*%
X118872000Y-67056000D03*
%TO.P,J2,6*%
%TO.N,GNDA*%
X116332000Y-64516000D03*
%TO.P,J2,5*%
%TO.N,Net-(J2-Pad5)*%
X116332000Y-67056000D03*
%TO.P,J2,4*%
%TO.N,Net-(J2-Pad4)*%
X113792000Y-64516000D03*
%TO.P,J2,3*%
%TO.N,Net-(J2-Pad3)*%
X113792000Y-67056000D03*
%TO.P,J2,2*%
%TO.N,Net-(J2-Pad2)*%
X111252000Y-64516000D03*
D24*
%TO.P,J2,1*%
%TO.N,/3\u002C3V*%
X111252000Y-67056000D03*
%TD*%
D21*
%TO.P,J3,2*%
%TO.N,GNDA*%
X175768000Y-113538000D03*
D22*
%TO.P,J3,1*%
%TO.N,/VDD_OUT*%
X170688000Y-113538000D03*
%TD*%
D21*
%TO.P,J4,2*%
%TO.N,GNDA*%
X187452000Y-113538000D03*
D22*
%TO.P,J4,1*%
%TO.N,/VDD2*%
X182372000Y-113538000D03*
%TD*%
D12*
%TO.P,K1,12*%
%TO.N,Net-(D5-Pad2)*%
X148844000Y-92202000D03*
%TO.P,K1,14*%
%TO.N,Net-(K1-Pad14)*%
X153924000Y-92202000D03*
%TO.P,K1,11*%
%TO.N,Net-(K1-Pad11)*%
X143764000Y-92202000D03*
%TO.P,K1,A2*%
%TO.N,/VDD1_AF*%
X136144000Y-84582000D03*
D15*
%TO.P,K1,A1*%
%TO.N,Net-(D2-Pad2)*%
X136144000Y-92202000D03*
D12*
%TO.P,K1,24*%
%TO.N,Net-(D3-Pad2)*%
X153924000Y-84582000D03*
%TO.P,K1,22*%
%TO.N,Net-(K1-Pad22)*%
X148844000Y-84582000D03*
%TO.P,K1,21*%
%TO.N,/VDD1_AF*%
X143764000Y-84582000D03*
%TD*%
D13*
%TO.P,Q2,3*%
%TO.N,GNDA*%
X197612000Y-100076000D03*
%TO.P,Q2,2*%
%TO.N,Net-(Q2-Pad2)*%
X196342000Y-101346000D03*
D14*
%TO.P,Q2,1*%
%TO.N,Net-(K2-Pad11)*%
X195072000Y-100076000D03*
%TD*%
D13*
%TO.P,Q5,3*%
%TO.N,GNDA*%
X152400000Y-100076000D03*
%TO.P,Q5,2*%
%TO.N,Net-(Q5-Pad2)*%
X151130000Y-101346000D03*
D14*
%TO.P,Q5,1*%
%TO.N,Net-(K1-Pad11)*%
X149860000Y-100076000D03*
%TD*%
D11*
%TO.P,R1,2*%
%TO.N,/Vref1*%
X106172000Y-98806000D03*
D12*
%TO.P,R1,1*%
%TO.N,/VDD1_AF*%
X106172000Y-106426000D03*
%TD*%
D11*
%TO.P,R2,2*%
%TO.N,GNDA*%
X109474000Y-99568000D03*
D12*
%TO.P,R2,1*%
%TO.N,Net-(C4-Pad1)*%
X117094000Y-99568000D03*
%TD*%
D11*
%TO.P,R4,2*%
%TO.N,Net-(Q1-Pad1)*%
X124968000Y-80518000D03*
D12*
%TO.P,R4,1*%
%TO.N,/VDD1_AF*%
X117348000Y-80518000D03*
%TD*%
D11*
%TO.P,R5,2*%
%TO.N,Net-(Q1-Pad1)*%
X113030000Y-75946000D03*
D12*
%TO.P,R5,1*%
%TO.N,/VDD_OUT*%
X105410000Y-75946000D03*
%TD*%
D11*
%TO.P,R6,2*%
%TO.N,Net-(Q1-Pad1)*%
X138430000Y-101854000D03*
D12*
%TO.P,R6,1*%
%TO.N,Net-(Q2-Pad2)*%
X146050000Y-101854000D03*
%TD*%
D11*
%TO.P,R7,2*%
%TO.N,/3\u002C3V*%
X105410000Y-72390000D03*
D12*
%TO.P,R7,1*%
%TO.N,Net-(J2-Pad13)*%
X113030000Y-72390000D03*
%TD*%
D11*
%TO.P,R10,2*%
%TO.N,Net-(D5-Pad2)*%
X153670000Y-75946000D03*
D12*
%TO.P,R10,1*%
%TO.N,/VDD_OUT*%
X146050000Y-75946000D03*
%TD*%
D11*
%TO.P,R12,2*%
%TO.N,Net-(Q6-Pad1)*%
X163322000Y-101600000D03*
D12*
%TO.P,R12,1*%
%TO.N,Net-(Q5-Pad2)*%
X155702000Y-101600000D03*
%TD*%
D11*
%TO.P,R13,2*%
%TO.N,Net-(Q6-Pad1)*%
X180086000Y-80772000D03*
D12*
%TO.P,R13,1*%
%TO.N,/VDD2_AF*%
X172466000Y-80772000D03*
%TD*%
D11*
%TO.P,R14,2*%
%TO.N,Net-(Q6-Pad1)*%
X133350000Y-75946000D03*
D12*
%TO.P,R14,1*%
%TO.N,/VDD_OUT*%
X125730000Y-75946000D03*
%TD*%
D11*
%TO.P,R15,2*%
%TO.N,Net-(C7-Pad1)*%
X183642000Y-84836000D03*
D12*
%TO.P,R15,1*%
%TO.N,Net-(Q6-Pad1)*%
X183642000Y-92456000D03*
%TD*%
D11*
%TO.P,R16,2*%
%TO.N,/3\u002C3V*%
X125730000Y-72390000D03*
D12*
%TO.P,R16,1*%
%TO.N,Net-(J2-Pad18)*%
X133350000Y-72390000D03*
%TD*%
D11*
%TO.P,R18,2*%
%TO.N,/Vref2*%
X166624000Y-93218000D03*
D12*
%TO.P,R18,1*%
%TO.N,/VDD2_AF*%
X166624000Y-100838000D03*
%TD*%
D11*
%TO.P,R19,2*%
%TO.N,Net-(R19-Pad2)*%
X130556000Y-98552000D03*
D12*
%TO.P,R19,1*%
%TO.N,/VDD1_AF*%
X138176000Y-98552000D03*
%TD*%
D11*
%TO.P,R20,2*%
%TO.N,Net-(R20-Pad2)*%
X188214000Y-105156000D03*
D12*
%TO.P,R20,1*%
%TO.N,/VDD2_AF*%
X195834000Y-105156000D03*
%TD*%
D25*
%TO.P,RV1,3*%
%TO.N,Net-(C4-Pad1)*%
X121412000Y-99568000D03*
%TO.P,RV1,2*%
%TO.N,Net-(R19-Pad2)*%
X123952000Y-99568000D03*
%TO.P,RV1,1*%
X126492000Y-99568000D03*
%TD*%
%TO.P,RV2,3*%
%TO.N,Net-(C7-Pad1)*%
X183388000Y-99568000D03*
%TO.P,RV2,2*%
%TO.N,Net-(R20-Pad2)*%
X185928000Y-99568000D03*
%TO.P,RV2,1*%
X188468000Y-99568000D03*
%TD*%
D26*
%TO.P,U1,8*%
%TO.N,/VDD1_AF*%
X120396000Y-84328000D03*
%TO.P,U1,4*%
%TO.N,GNDA*%
X128016000Y-91948000D03*
%TO.P,U1,7*%
%TO.N,Net-(Q1-Pad1)*%
X122936000Y-84328000D03*
%TO.P,U1,3*%
%TO.N,/Vref1*%
X125476000Y-91948000D03*
%TO.P,U1,6*%
%TO.N,Net-(U1-Pad5)*%
X125476000Y-84328000D03*
%TO.P,U1,2*%
%TO.N,Net-(C4-Pad1)*%
X122936000Y-91948000D03*
%TO.P,U1,5*%
%TO.N,Net-(U1-Pad5)*%
X128016000Y-84328000D03*
D27*
%TO.P,U1,1*%
%TO.N,GNDA*%
X120396000Y-91948000D03*
%TD*%
D26*
%TO.P,U2,8*%
%TO.N,/VDD2_AF*%
X171958000Y-84328000D03*
%TO.P,U2,4*%
%TO.N,GNDA*%
X179578000Y-91948000D03*
%TO.P,U2,7*%
%TO.N,Net-(Q6-Pad1)*%
X174498000Y-84328000D03*
%TO.P,U2,3*%
%TO.N,/Vref2*%
X177038000Y-91948000D03*
%TO.P,U2,6*%
%TO.N,Net-(U2-Pad5)*%
X177038000Y-84328000D03*
%TO.P,U2,2*%
%TO.N,Net-(C7-Pad1)*%
X174498000Y-91948000D03*
%TO.P,U2,5*%
%TO.N,Net-(U2-Pad5)*%
X179578000Y-84328000D03*
D27*
%TO.P,U2,1*%
%TO.N,GNDA*%
X171958000Y-91948000D03*
%TD*%
D12*
%TO.P,C5,2*%
%TO.N,GNDA*%
X146050000Y-115998000D03*
%TO.P,C5,1*%
%TO.N,/VDD_OUT*%
X146050000Y-110998000D03*
%TD*%
D28*
%TO.P,C2,2*%
%TO.N,GNDA*%
X134370000Y-114980000D03*
D20*
%TO.P,C2,1*%
%TO.N,/VDD1_AF*%
X134370000Y-109980000D03*
%TD*%
D28*
%TO.P,C6,2*%
%TO.N,GNDA*%
X153870000Y-114980000D03*
D20*
%TO.P,C6,1*%
%TO.N,/VDD_OUT*%
X153870000Y-109980000D03*
%TD*%
D28*
%TO.P,C8,2*%
%TO.N,GNDA*%
X204370000Y-114980000D03*
D20*
%TO.P,C8,1*%
%TO.N,/VDD2_AF*%
X204370000Y-109980000D03*
%TD*%
D29*
%TO.P,D9,2*%
%TO.N,Net-(D9-Pad2)*%
X193294000Y-71120000D03*
D30*
%TO.P,D9,1*%
%TO.N,GNDA*%
X193294000Y-73660000D03*
%TD*%
D29*
%TO.P,D10,2*%
%TO.N,Net-(D10-Pad2)*%
X201168000Y-71120000D03*
D30*
%TO.P,D10,1*%
%TO.N,GNDA*%
X201168000Y-73660000D03*
%TD*%
D11*
%TO.P,R21,2*%
%TO.N,Net-(D3-Pad2)*%
X187706000Y-74676000D03*
D12*
%TO.P,R21,1*%
%TO.N,Net-(D9-Pad2)*%
X187706000Y-67056000D03*
%TD*%
D11*
%TO.P,R22,2*%
%TO.N,Net-(D4-Pad2)*%
X206756000Y-74676000D03*
D12*
%TO.P,R22,1*%
%TO.N,Net-(D10-Pad2)*%
X206756000Y-67056000D03*
%TD*%
D31*
%TO.N,Net-(D5-Pad2)*%
X170180000Y-75946000D03*
%TD*%
D32*
%TO.N,/Vref1*%
X115824000Y-90344000D02*
X117268000Y-88900000D01*
X117268000Y-88900000D02*
X124460000Y-88900000D01*
X125476000Y-89916000D02*
X125476000Y-91948000D01*
X124460000Y-88900000D02*
X125476000Y-89916000D01*
X109220000Y-85852000D02*
X111506000Y-83566000D01*
X106934000Y-85852000D02*
X109220000Y-85852000D01*
X111506000Y-86026000D02*
X115824000Y-90344000D01*
X111506000Y-83566000D02*
X111506000Y-86026000D01*
%TO.N,GNDA*%
X201168000Y-73660000D02*
X193294000Y-73660000D01*
D33*
X194390000Y-113538000D02*
X196850000Y-115998000D01*
X187452000Y-113538000D02*
X194390000Y-113538000D01*
X185201999Y-111287999D02*
X187452000Y-113538000D01*
X175768000Y-113538000D02*
X178018001Y-111287999D01*
X124812000Y-113792000D02*
X127000000Y-115980000D01*
X117602000Y-113792000D02*
X124812000Y-113792000D01*
X147068000Y-114980000D02*
X146050000Y-115998000D01*
X153870000Y-114980000D02*
X147068000Y-114980000D01*
X135388000Y-115998000D02*
X134370000Y-114980000D01*
X146050000Y-115998000D02*
X135388000Y-115998000D01*
X128000000Y-114980000D02*
X127000000Y-115980000D01*
X134370000Y-114980000D02*
X128000000Y-114980000D01*
D32*
X115136000Y-105230000D02*
X109474000Y-99568000D01*
X117540000Y-105230000D02*
X115136000Y-105230000D01*
D33*
X203708000Y-115998000D02*
X204470000Y-115236000D01*
X204470000Y-115236000D02*
X207090000Y-115236000D01*
X207090000Y-115236000D02*
X208534000Y-113792000D01*
X208280000Y-95250000D02*
X208534000Y-95504000D01*
X140462000Y-102870000D02*
X140462000Y-95250000D01*
X134370000Y-114980000D02*
X139174001Y-110175999D01*
X140462000Y-95250000D02*
X148082000Y-95250000D01*
X195275200Y-95199200D02*
X195326000Y-95250000D01*
D32*
X114981999Y-63165999D02*
X116332000Y-64516000D01*
X103395010Y-64498990D02*
X104728001Y-63165999D01*
X103395010Y-77978000D02*
X103395010Y-64498990D01*
X104728001Y-63165999D02*
X114981999Y-63165999D01*
X109046000Y-80518000D02*
X103632000Y-80518000D01*
X103632000Y-80518000D02*
X103395010Y-80281010D01*
X103395010Y-80281010D02*
X103395010Y-77978000D01*
X103395010Y-77978000D02*
X103395010Y-77724000D01*
D33*
X120396000Y-91948000D02*
X120396000Y-94996000D01*
X120396000Y-94996000D02*
X120142000Y-95250000D01*
X120142000Y-95250000D02*
X140462000Y-95250000D01*
X110998000Y-95250000D02*
X120142000Y-95250000D01*
D32*
X109808000Y-93726000D02*
X106934000Y-90852000D01*
X111506000Y-93726000D02*
X109808000Y-93726000D01*
D33*
X111506000Y-94742000D02*
X110998000Y-95250000D01*
X111506000Y-93726000D02*
X111506000Y-94742000D01*
X110998000Y-95250000D02*
X109474000Y-95250000D01*
X109474000Y-99568000D02*
X109474000Y-95250000D01*
X148132800Y-95199200D02*
X148082000Y-95250000D01*
X162814000Y-95148400D02*
X162763200Y-95199200D01*
X162814000Y-93726000D02*
X162814000Y-95148400D01*
D32*
X158242000Y-91360000D02*
X158242000Y-95504000D01*
D33*
X178018001Y-111287999D02*
X185201999Y-111287999D01*
X171754800Y-95199200D02*
X162763200Y-95199200D01*
X152400000Y-95758000D02*
X152958800Y-95199200D01*
X152400000Y-100076000D02*
X152400000Y-95758000D01*
X152958800Y-95199200D02*
X148132800Y-95199200D01*
X162763200Y-95199200D02*
X152958800Y-95199200D01*
X197866000Y-95250000D02*
X208280000Y-95250000D01*
X195326000Y-95250000D02*
X197866000Y-95250000D01*
X178018001Y-105699999D02*
X178562000Y-105156000D01*
X178018001Y-111287999D02*
X178018001Y-105699999D01*
X203352000Y-115998000D02*
X204370000Y-114980000D01*
X196850000Y-115998000D02*
X203352000Y-115998000D01*
X208534000Y-113792000D02*
X208534000Y-95504000D01*
X208534000Y-95504000D02*
X208534000Y-72390000D01*
X203200000Y-73660000D02*
X204470000Y-72390000D01*
X201168000Y-73660000D02*
X203200000Y-73660000D01*
X208534000Y-72390000D02*
X204470000Y-72390000D01*
X197612000Y-95504000D02*
X197866000Y-95250000D01*
X197612000Y-100076000D02*
X197612000Y-95504000D01*
X171450000Y-95504000D02*
X171754800Y-95199200D01*
X171450000Y-99822000D02*
X171450000Y-95504000D01*
X171754800Y-92151200D02*
X171958000Y-91948000D01*
X171754800Y-95199200D02*
X171754800Y-92151200D01*
X172212000Y-96266000D02*
X171450000Y-95504000D01*
X188214000Y-96266000D02*
X172212000Y-96266000D01*
X189230000Y-95250000D02*
X188214000Y-96266000D01*
X195326000Y-95250000D02*
X189230000Y-95250000D01*
X139174001Y-104122001D02*
X139209999Y-104122001D01*
X139174001Y-110175999D02*
X139174001Y-104122001D01*
X139209999Y-104122001D02*
X140462000Y-102870000D01*
%TO.N,/VDD1_AF*%
X134370000Y-109980000D02*
X134364000Y-109980000D01*
X134364000Y-109980000D02*
X132842000Y-108458000D01*
X105918000Y-106680000D02*
X106172000Y-106426000D01*
X105918000Y-108458000D02*
X105918000Y-106680000D01*
D32*
X114046000Y-80518000D02*
X117348000Y-80518000D01*
X120396000Y-83566000D02*
X120396000Y-84328000D01*
X117348000Y-80518000D02*
X120396000Y-83566000D01*
D33*
X127000000Y-110980000D02*
X127000000Y-108458000D01*
X132842000Y-108458000D02*
X127000000Y-108458000D01*
X122870000Y-108524000D02*
X122936000Y-108458000D01*
X122870000Y-110980000D02*
X122870000Y-108524000D01*
X122936000Y-108458000D02*
X105918000Y-108458000D01*
X127000000Y-108458000D02*
X122936000Y-108458000D01*
D32*
X140208000Y-81026000D02*
X143764000Y-84582000D01*
X140208000Y-80772000D02*
X140208000Y-81026000D01*
D33*
X143764000Y-84582000D02*
X136144000Y-84582000D01*
X122620000Y-103440000D02*
X123698000Y-102362000D01*
X122620000Y-105230000D02*
X122620000Y-103440000D01*
X134366000Y-102362000D02*
X138176000Y-98552000D01*
X123698000Y-102362000D02*
X134366000Y-102362000D01*
X122936000Y-105546000D02*
X122620000Y-105230000D01*
X122936000Y-108458000D02*
X122936000Y-105546000D01*
D32*
X120396000Y-85696020D02*
X120396000Y-84328000D01*
X120396000Y-86360000D02*
X120396000Y-84328000D01*
X120650000Y-86614000D02*
X120396000Y-86360000D01*
X129794000Y-86614000D02*
X127762000Y-86614000D01*
X130302000Y-86106000D02*
X129794000Y-86614000D01*
X130302000Y-83566000D02*
X130302000Y-86106000D01*
X130810000Y-83058000D02*
X130302000Y-83566000D01*
X134620000Y-83058000D02*
X130810000Y-83058000D01*
X136144000Y-84582000D02*
X134620000Y-83058000D01*
X127762000Y-86614000D02*
X120650000Y-86614000D01*
X128270000Y-86614000D02*
X127762000Y-86614000D01*
%TO.N,Net-(C4-Pad1)*%
X121412000Y-99568000D02*
X117094000Y-99568000D01*
X115824000Y-85344000D02*
X115824000Y-86614000D01*
X115824000Y-86614000D02*
X116840000Y-87630000D01*
X116840000Y-87630000D02*
X131318000Y-87630000D01*
X132080000Y-86868000D02*
X132080000Y-84836000D01*
X131318000Y-87630000D02*
X132080000Y-86868000D01*
X132080000Y-88646000D02*
X132080000Y-84836000D01*
X130048000Y-90678000D02*
X132080000Y-88646000D01*
X130048000Y-93218000D02*
X130048000Y-90678000D01*
X129286000Y-93980000D02*
X130048000Y-93218000D01*
X123698000Y-93980000D02*
X129286000Y-93980000D01*
X122936000Y-93218000D02*
X123698000Y-93980000D01*
X122936000Y-91948000D02*
X122936000Y-93218000D01*
D33*
%TO.N,/VDD_OUT*%
X170434000Y-113538000D02*
X162306000Y-105410000D01*
X170688000Y-113538000D02*
X170434000Y-113538000D01*
X162306000Y-105410000D02*
X156718000Y-105410000D01*
X156718000Y-105410000D02*
X151638000Y-105410000D01*
X151638000Y-107748000D02*
X153870000Y-109980000D01*
X151638000Y-105410000D02*
X151638000Y-107748000D01*
X152852000Y-110998000D02*
X153870000Y-109980000D01*
X146050000Y-110998000D02*
X152852000Y-110998000D01*
D32*
X126746000Y-77978000D02*
X144018000Y-77978000D01*
X125730000Y-76962000D02*
X126746000Y-77978000D01*
X144018000Y-77978000D02*
X146050000Y-75946000D01*
X147320000Y-77724000D02*
X146050000Y-76454000D01*
X146050000Y-76454000D02*
X146050000Y-75946000D01*
X164592000Y-77724000D02*
X147320000Y-77724000D01*
X166370000Y-75946000D02*
X164592000Y-77724000D01*
X125730000Y-76962000D02*
X125730000Y-75946000D01*
%TO.N,Net-(C7-Pad1)*%
X182880000Y-88138000D02*
X183642000Y-87376000D01*
X170180000Y-88138000D02*
X182880000Y-88138000D01*
X183642000Y-87376000D02*
X183642000Y-90122491D01*
X183642000Y-84836000D02*
X183642000Y-87376000D01*
X167386000Y-85344000D02*
X170180000Y-88138000D01*
X183134000Y-99822000D02*
X183388000Y-99568000D01*
X179070000Y-99822000D02*
X183134000Y-99822000D01*
X174498000Y-91948000D02*
X174498000Y-92710000D01*
X174498000Y-91948000D02*
X174498000Y-93726000D01*
X174498000Y-93726000D02*
X175006000Y-94234000D01*
X175006000Y-94234000D02*
X180594000Y-94234000D01*
X181586246Y-93241754D02*
X181586246Y-92178246D01*
X180594000Y-94234000D02*
X181586246Y-93241754D01*
X183642000Y-90122491D02*
X181586246Y-92178246D01*
%TO.N,/Vref2*%
X162814000Y-85772000D02*
X167386000Y-90344000D01*
X162814000Y-83566000D02*
X162814000Y-85772000D01*
X174634001Y-89544001D02*
X177038000Y-91948000D01*
X168185999Y-89544001D02*
X174634001Y-89544001D01*
X167386000Y-90344000D02*
X168185999Y-89544001D01*
X158242000Y-86360000D02*
X160528000Y-86360000D01*
X162814000Y-84074000D02*
X162814000Y-83566000D01*
X160528000Y-86360000D02*
X162814000Y-84074000D01*
X166624000Y-91106000D02*
X167386000Y-90344000D01*
X166624000Y-93218000D02*
X166624000Y-91106000D01*
%TO.N,/VDD2_AF*%
X191770000Y-80772000D02*
X191008000Y-80772000D01*
X195580000Y-84582000D02*
X191770000Y-80772000D01*
X172212000Y-80518000D02*
X172466000Y-80772000D01*
X164084000Y-80518000D02*
X172212000Y-80518000D01*
D33*
X196850000Y-110998000D02*
X192786000Y-110998000D01*
X189484000Y-110998000D02*
X183642000Y-105156000D01*
X192786000Y-110998000D02*
X189484000Y-110998000D01*
X196850000Y-106172000D02*
X195834000Y-105156000D01*
X196850000Y-110998000D02*
X196850000Y-106172000D01*
D32*
X171958000Y-81280000D02*
X172466000Y-80772000D01*
X171958000Y-84328000D02*
X171958000Y-81280000D01*
X185450001Y-82072001D02*
X187960000Y-84582000D01*
X172466000Y-80772000D02*
X173766001Y-82072001D01*
D33*
X203352000Y-110998000D02*
X204370000Y-109980000D01*
X196850000Y-110998000D02*
X203352000Y-110998000D01*
D32*
X173766001Y-82072001D02*
X185450001Y-82072001D01*
%TO.N,Net-(D2-Pad2)*%
X184150000Y-75946000D02*
X173990000Y-75946000D01*
X146050000Y-82296000D02*
X147574000Y-80772000D01*
X146050000Y-85344000D02*
X146050000Y-82296000D01*
X144780000Y-86614000D02*
X146050000Y-85344000D01*
X138684000Y-86614000D02*
X144780000Y-86614000D01*
X147574000Y-80772000D02*
X150368000Y-80772000D01*
X136144000Y-89154000D02*
X138684000Y-86614000D01*
X136144000Y-92202000D02*
X136144000Y-89154000D01*
X171196000Y-78740000D02*
X173990000Y-75946000D01*
X152400000Y-78740000D02*
X171196000Y-78740000D01*
X183134000Y-72898000D02*
X184150000Y-72898000D01*
X201930000Y-92202000D02*
X200660000Y-92202000D01*
X202946000Y-77470000D02*
X203454000Y-77978000D01*
X191262000Y-77470000D02*
X202946000Y-77470000D01*
X203454000Y-77978000D02*
X203454000Y-90678000D01*
X190246000Y-76454000D02*
X191262000Y-77470000D01*
X190246000Y-74422000D02*
X190246000Y-76454000D01*
X203454000Y-90678000D02*
X201930000Y-92202000D01*
X188722000Y-72898000D02*
X190246000Y-74422000D01*
X185674000Y-74422000D02*
X185674000Y-72898000D01*
X184150000Y-75946000D02*
X185674000Y-74422000D01*
X185674000Y-72898000D02*
X188722000Y-72898000D01*
X183134000Y-72898000D02*
X185674000Y-72898000D01*
X152400000Y-78740000D02*
X150368000Y-80772000D01*
%TO.N,Net-(D3-Pad2)*%
X156240001Y-82265999D02*
X153924000Y-84582000D01*
X167657508Y-82265999D02*
X156240001Y-82265999D01*
X169441754Y-84050246D02*
X167657508Y-82265999D01*
X169441754Y-85621754D02*
X169441754Y-84050246D01*
X170434000Y-86614000D02*
X169441754Y-85621754D01*
X187706000Y-81534000D02*
X189738000Y-83566000D01*
X189738000Y-83566000D02*
X189738000Y-86614000D01*
X180594000Y-86614000D02*
X170434000Y-86614000D01*
X188722000Y-87630000D02*
X187198000Y-87630000D01*
X187198000Y-87630000D02*
X186108999Y-86540999D01*
X186108999Y-86540999D02*
X186108999Y-84655001D01*
X181332246Y-84812246D02*
X181332246Y-85875754D01*
X187706000Y-74676000D02*
X187706000Y-81534000D01*
X186108999Y-84655001D02*
X184843517Y-83389519D01*
X182754972Y-83389519D02*
X181332246Y-84812246D01*
X184843517Y-83389519D02*
X182754972Y-83389519D01*
X189738000Y-86614000D02*
X188722000Y-87630000D01*
X181332246Y-85875754D02*
X180594000Y-86614000D01*
%TO.N,Net-(D5-Pad2)*%
X191008000Y-89154000D02*
X187960000Y-92202000D01*
X195834000Y-89154000D02*
X191008000Y-89154000D01*
X197612000Y-87376000D02*
X195834000Y-89154000D01*
X197612000Y-84328000D02*
X197612000Y-87376000D01*
X201168000Y-80772000D02*
X197612000Y-84328000D01*
X168402000Y-74168000D02*
X170180000Y-75946000D01*
D33*
%TO.N,/VDD1*%
X122070001Y-116779999D02*
X122870000Y-115980000D01*
X115509999Y-116779999D02*
X122070001Y-116779999D01*
X112522000Y-113792000D02*
X115509999Y-116779999D01*
%TO.N,/VDD2*%
X184832000Y-115998000D02*
X192786000Y-115998000D01*
X182372000Y-113538000D02*
X184832000Y-115998000D01*
%TO.N,/3\u002C3V*%
X111252000Y-67056000D02*
X111252000Y-67564000D01*
X111252000Y-67056000D02*
X111252000Y-68834000D01*
X111252000Y-68834000D02*
X112268000Y-69850000D01*
D32*
X121412000Y-70104000D02*
X121666000Y-69850000D01*
X120904000Y-71992998D02*
X121248999Y-71647999D01*
X111252000Y-67056000D02*
X105918000Y-72390000D01*
X121412000Y-70104000D02*
X121158000Y-69850000D01*
X120904000Y-71628000D02*
X120904000Y-70104000D01*
D33*
X121158000Y-69850000D02*
X121666000Y-69850000D01*
X112268000Y-69850000D02*
X121158000Y-69850000D01*
D32*
%TO.N,Net-(D5-Pad2)*%
X164338000Y-72898000D02*
X165608000Y-74168000D01*
X162814000Y-72898000D02*
X164338000Y-72898000D01*
X165608000Y-74168000D02*
X168402000Y-74168000D01*
X163830000Y-75946000D02*
X165608000Y-74168000D01*
X153670000Y-75946000D02*
X163830000Y-75946000D01*
%TO.N,/3\u002C3V*%
X140970000Y-71992998D02*
X141314999Y-71647999D01*
X140970000Y-70104000D02*
X140970000Y-71992998D01*
X140716000Y-69850000D02*
X140970000Y-70104000D01*
X161544000Y-71628000D02*
X161544000Y-70104000D01*
X161544000Y-70104000D02*
X161290000Y-69850000D01*
D33*
X146050000Y-69850000D02*
X161290000Y-69850000D01*
D32*
X166370000Y-70358000D02*
X165862000Y-69850000D01*
X166370000Y-72390000D02*
X166370000Y-70358000D01*
D33*
X165862000Y-69850000D02*
X181102000Y-69850000D01*
X161290000Y-69850000D02*
X165862000Y-69850000D01*
D32*
X181864000Y-70612000D02*
X181102000Y-69850000D01*
X181864000Y-71628000D02*
X181864000Y-70612000D01*
X146050000Y-72390000D02*
X146050000Y-69850000D01*
D33*
X125730000Y-69850000D02*
X146050000Y-69850000D01*
D32*
X125730000Y-72390000D02*
X125730000Y-69850000D01*
D33*
X121666000Y-69850000D02*
X125730000Y-69850000D01*
D32*
%TO.N,Net-(Q1-Pad1)*%
X123698000Y-75946000D02*
X113030000Y-75946000D01*
X122174000Y-72898000D02*
X123190000Y-72898000D01*
X123698000Y-79248000D02*
X124968000Y-80518000D01*
X123190000Y-72898000D02*
X123698000Y-73406000D01*
X123698000Y-75946000D02*
X123698000Y-79248000D01*
X123698000Y-73406000D02*
X123698000Y-75946000D01*
X122936000Y-82550000D02*
X124968000Y-80518000D01*
X122936000Y-84328000D02*
X122936000Y-82550000D01*
%TO.N,Net-(Q2-Pad2)*%
X194787999Y-102900001D02*
X196342000Y-101346000D01*
X164398002Y-103378000D02*
X164876001Y-102900001D01*
X154178000Y-103378000D02*
X164398002Y-103378000D01*
X153700001Y-102900001D02*
X154178000Y-103378000D01*
X147096001Y-102900001D02*
X153700001Y-102900001D01*
X164876001Y-102900001D02*
X194787999Y-102900001D01*
X146050000Y-101854000D02*
X147096001Y-102900001D01*
%TO.N,Net-(Q5-Pad2)*%
X151384000Y-101600000D02*
X151130000Y-101346000D01*
X155702000Y-101600000D02*
X151384000Y-101600000D01*
%TO.N,Net-(Q6-Pad1)*%
X133350000Y-75946000D02*
X143002000Y-75946000D01*
X144018000Y-74930000D02*
X144018000Y-73406000D01*
X143002000Y-75946000D02*
X144018000Y-74930000D01*
X142494000Y-72898000D02*
X143510000Y-72898000D01*
X143510000Y-72898000D02*
X144018000Y-73406000D01*
%TO.N,Net-(R19-Pad2)*%
X123952000Y-99568000D02*
X126492000Y-99568000D01*
X129540000Y-99568000D02*
X130556000Y-98552000D01*
X126492000Y-99568000D02*
X129540000Y-99568000D01*
%TO.N,Net-(R20-Pad2)*%
X188468000Y-99568000D02*
X185928000Y-99568000D01*
%TO.N,Net-(U1-Pad5)*%
X128016000Y-84328000D02*
X125476000Y-84328000D01*
%TO.N,Net-(U2-Pad5)*%
X179578000Y-84328000D02*
X177038000Y-84328000D01*
%TO.N,Net-(D9-Pad2)*%
X189230000Y-67056000D02*
X193294000Y-71120000D01*
X187706000Y-67056000D02*
X189230000Y-67056000D01*
%TO.N,Net-(D10-Pad2)*%
X202692000Y-71120000D02*
X206756000Y-67056000D01*
X201168000Y-71120000D02*
X202692000Y-71120000D01*
%TD*%
M02*
