%TF.GenerationSoftware,KiCad,Pcbnew,(5.1.8)-1*%
%TF.CreationDate,2020-12-03T12:02:38+01:00*%
%TF.ProjectId,repartiteur,72657061-7274-4697-9465-75722e6b6963,rev?*%
%TF.SameCoordinates,Original*%
%TF.FileFunction,Copper,L1,Top*%
%TF.FilePolarity,Positive*%
%FSLAX46Y46*%
G04 Gerber Fmt 4.6, Leading zero omitted, Abs format (unit mm)*
G04 Created by KiCad (PCBNEW (5.1.8)-1) date 2020-12-03 12:02:38*
%MOMM*%
%LPD*%
G01*
G04 APERTURE LIST*
%TA.AperFunction,NonConductor*%
%ADD10C,0.300000*%
%TD*%
%TA.AperFunction,ComponentPad*%
%ADD11O,1.600000X1.600000*%
%TD*%
%TA.AperFunction,ComponentPad*%
%ADD12C,1.600000*%
%TD*%
%TA.AperFunction,ComponentPad*%
%ADD13O,1.200000X1.200000*%
%TD*%
%TA.AperFunction,ComponentPad*%
%ADD14O,1.600000X1.200000*%
%TD*%
%TA.AperFunction,ComponentPad*%
%ADD15R,1.800000X1.600000*%
%TD*%
%TA.AperFunction,SMDPad,CuDef*%
%ADD16R,2.000000X2.000000*%
%TD*%
%TA.AperFunction,ComponentPad*%
%ADD17R,1.600000X1.600000*%
%TD*%
%TA.AperFunction,ComponentPad*%
%ADD18O,2.200000X2.200000*%
%TD*%
%TA.AperFunction,ComponentPad*%
%ADD19R,2.200000X2.200000*%
%TD*%
%TA.AperFunction,ComponentPad*%
%ADD20O,2.000000X2.000000*%
%TD*%
%TA.AperFunction,ComponentPad*%
%ADD21R,2.000000X2.000000*%
%TD*%
%TA.AperFunction,ComponentPad*%
%ADD22C,3.000000*%
%TD*%
%TA.AperFunction,ComponentPad*%
%ADD23R,3.000000X3.000000*%
%TD*%
%TA.AperFunction,ComponentPad*%
%ADD24O,1.700000X1.700000*%
%TD*%
%TA.AperFunction,ComponentPad*%
%ADD25R,1.700000X1.700000*%
%TD*%
%TA.AperFunction,ComponentPad*%
%ADD26C,1.440000*%
%TD*%
%TA.AperFunction,ComponentPad*%
%ADD27O,1.600000X2.400000*%
%TD*%
%TA.AperFunction,ComponentPad*%
%ADD28R,1.600000X2.400000*%
%TD*%
%TA.AperFunction,ComponentPad*%
%ADD29C,2.000000*%
%TD*%
%TA.AperFunction,ComponentPad*%
%ADD30C,1.800000*%
%TD*%
%TA.AperFunction,ComponentPad*%
%ADD31R,1.800000X1.800000*%
%TD*%
%TA.AperFunction,ViaPad*%
%ADD32C,0.800000*%
%TD*%
%TA.AperFunction,Conductor*%
%ADD33C,1.000000*%
%TD*%
%TA.AperFunction,Conductor*%
%ADD34C,0.500000*%
%TD*%
G04 APERTURE END LIST*
D10*
X104314571Y-95928571D02*
X103457428Y-95928571D01*
X103886000Y-95928571D02*
X103886000Y-94428571D01*
X103743142Y-94642857D01*
X103600285Y-94785714D01*
X103457428Y-94857142D01*
X127333428Y-104223428D02*
X127404857Y-104152000D01*
X127547714Y-104080571D01*
X127904857Y-104080571D01*
X128047714Y-104152000D01*
X128119142Y-104223428D01*
X128190571Y-104366285D01*
X128190571Y-104509142D01*
X128119142Y-104723428D01*
X127262000Y-105580571D01*
X128190571Y-105580571D01*
X155924285Y-97960571D02*
X155067142Y-97960571D01*
X155495714Y-97960571D02*
X155495714Y-96460571D01*
X155352857Y-96674857D01*
X155210000Y-96817714D01*
X155067142Y-96889142D01*
X156852857Y-96460571D02*
X156995714Y-96460571D01*
X157138571Y-96532000D01*
X157210000Y-96603428D01*
X157281428Y-96746285D01*
X157352857Y-97032000D01*
X157352857Y-97389142D01*
X157281428Y-97674857D01*
X157210000Y-97817714D01*
X157138571Y-97889142D01*
X156995714Y-97960571D01*
X156852857Y-97960571D01*
X156710000Y-97889142D01*
X156638571Y-97817714D01*
X156567142Y-97674857D01*
X156495714Y-97389142D01*
X156495714Y-97032000D01*
X156567142Y-96746285D01*
X156638571Y-96603428D01*
X156710000Y-96532000D01*
X156852857Y-96460571D01*
X205771714Y-77156571D02*
X205486000Y-77156571D01*
X205343142Y-77228000D01*
X205271714Y-77299428D01*
X205128857Y-77513714D01*
X205057428Y-77799428D01*
X205057428Y-78370857D01*
X205128857Y-78513714D01*
X205200285Y-78585142D01*
X205343142Y-78656571D01*
X205628857Y-78656571D01*
X205771714Y-78585142D01*
X205843142Y-78513714D01*
X205914571Y-78370857D01*
X205914571Y-78013714D01*
X205843142Y-77870857D01*
X205771714Y-77799428D01*
X205628857Y-77728000D01*
X205343142Y-77728000D01*
X205200285Y-77799428D01*
X205128857Y-77870857D01*
X205057428Y-78013714D01*
X176887142Y-68520571D02*
X176172857Y-68520571D01*
X176101428Y-69234857D01*
X176172857Y-69163428D01*
X176315714Y-69092000D01*
X176672857Y-69092000D01*
X176815714Y-69163428D01*
X176887142Y-69234857D01*
X176958571Y-69377714D01*
X176958571Y-69734857D01*
X176887142Y-69877714D01*
X176815714Y-69949142D01*
X176672857Y-70020571D01*
X176315714Y-70020571D01*
X176172857Y-69949142D01*
X176101428Y-69877714D01*
X154694000Y-69028571D02*
X155694000Y-69028571D01*
X155051142Y-70528571D01*
X135969428Y-74759428D02*
X136040857Y-74688000D01*
X136183714Y-74616571D01*
X136540857Y-74616571D01*
X136683714Y-74688000D01*
X136755142Y-74759428D01*
X136826571Y-74902285D01*
X136826571Y-75045142D01*
X136755142Y-75259428D01*
X135898000Y-76116571D01*
X136826571Y-76116571D01*
X116506571Y-70528571D02*
X115649428Y-70528571D01*
X116078000Y-70528571D02*
X116078000Y-69028571D01*
X115935142Y-69242857D01*
X115792285Y-69385714D01*
X115649428Y-69457142D01*
X180977142Y-105908571D02*
X180977142Y-104408571D01*
X181834285Y-105908571D02*
X181191428Y-105051428D01*
X181834285Y-104408571D02*
X180977142Y-105265714D01*
X124727142Y-106158571D02*
X124727142Y-104658571D01*
X125584285Y-106158571D02*
X124941428Y-105301428D01*
X125584285Y-104658571D02*
X124727142Y-105515714D01*
X111227142Y-87158571D02*
X111227142Y-85658571D01*
X112084285Y-87158571D02*
X111441428Y-86301428D01*
X112084285Y-85658571D02*
X111227142Y-86515714D01*
X143227142Y-81658571D02*
X143227142Y-80158571D01*
X144084285Y-81658571D02*
X143441428Y-80801428D01*
X144084285Y-80158571D02*
X143227142Y-81015714D01*
X154477142Y-99337142D02*
X154334285Y-99408571D01*
X154048571Y-99408571D01*
X153905714Y-99337142D01*
X153834285Y-99265714D01*
X153762857Y-99122857D01*
X153762857Y-98694285D01*
X153834285Y-98551428D01*
X153905714Y-98480000D01*
X154048571Y-98408571D01*
X154334285Y-98408571D01*
X154477142Y-98480000D01*
X199477142Y-99587142D02*
X199334285Y-99658571D01*
X199048571Y-99658571D01*
X198905714Y-99587142D01*
X198834285Y-99515714D01*
X198762857Y-99372857D01*
X198762857Y-98944285D01*
X198834285Y-98801428D01*
X198905714Y-98730000D01*
X199048571Y-98658571D01*
X199334285Y-98658571D01*
X199477142Y-98730000D01*
X193727142Y-81408571D02*
X193727142Y-79908571D01*
X194584285Y-81408571D02*
X193941428Y-80551428D01*
X194584285Y-79908571D02*
X193727142Y-80765714D01*
X159727142Y-106158571D02*
X159727142Y-104658571D01*
X160584285Y-106158571D02*
X159941428Y-105301428D01*
X160584285Y-104658571D02*
X159727142Y-105515714D01*
X162477142Y-86658571D02*
X162477142Y-85158571D01*
X163334285Y-86658571D02*
X162691428Y-85801428D01*
X163334285Y-85158571D02*
X162477142Y-86015714D01*
X148227142Y-106158571D02*
X148227142Y-104658571D01*
X149084285Y-106158571D02*
X148441428Y-105301428D01*
X149084285Y-104658571D02*
X148227142Y-105515714D01*
X170298571Y-94158571D02*
X169441428Y-94158571D01*
X169870000Y-94158571D02*
X169870000Y-92658571D01*
X169727142Y-92872857D01*
X169584285Y-93015714D01*
X169441428Y-93087142D01*
X118298571Y-93658571D02*
X117441428Y-93658571D01*
X117870000Y-93658571D02*
X117870000Y-92158571D01*
X117727142Y-92372857D01*
X117584285Y-92515714D01*
X117441428Y-92587142D01*
X200850571Y-109073142D02*
X201993428Y-109073142D01*
X201422000Y-109644571D02*
X201422000Y-108501714D01*
X153352571Y-107295142D02*
X154495428Y-107295142D01*
X153924000Y-107866571D02*
X153924000Y-106723714D01*
X133794571Y-107295142D02*
X134937428Y-107295142D01*
X134366000Y-107866571D02*
X134366000Y-106723714D01*
X177154000Y-64686571D02*
X177154000Y-63186571D01*
X177511142Y-63186571D01*
X177725428Y-63258000D01*
X177868285Y-63400857D01*
X177939714Y-63543714D01*
X178011142Y-63829428D01*
X178011142Y-64043714D01*
X177939714Y-64329428D01*
X177868285Y-64472285D01*
X177725428Y-64615142D01*
X177511142Y-64686571D01*
X177154000Y-64686571D01*
X178725428Y-63186571D02*
X178582571Y-63472285D01*
X179796857Y-63186571D02*
X179796857Y-64258000D01*
X179725428Y-64472285D01*
X179582571Y-64615142D01*
X179368285Y-64686571D01*
X179225428Y-64686571D01*
X180511142Y-63900857D02*
X181011142Y-63900857D01*
X181225428Y-64686571D02*
X180511142Y-64686571D01*
X180511142Y-63186571D01*
X181225428Y-63186571D01*
X181654000Y-63186571D02*
X182511142Y-63186571D01*
X182082571Y-64686571D02*
X182082571Y-63186571D01*
X185011142Y-64543714D02*
X184939714Y-64615142D01*
X184725428Y-64686571D01*
X184582571Y-64686571D01*
X184368285Y-64615142D01*
X184225428Y-64472285D01*
X184154000Y-64329428D01*
X184082571Y-64043714D01*
X184082571Y-63829428D01*
X184154000Y-63543714D01*
X184225428Y-63400857D01*
X184368285Y-63258000D01*
X184582571Y-63186571D01*
X184725428Y-63186571D01*
X184939714Y-63258000D01*
X185011142Y-63329428D01*
X185868285Y-64686571D02*
X185725428Y-64615142D01*
X185654000Y-64543714D01*
X185582571Y-64400857D01*
X185582571Y-63972285D01*
X185654000Y-63829428D01*
X185725428Y-63758000D01*
X185868285Y-63686571D01*
X186082571Y-63686571D01*
X186225428Y-63758000D01*
X186296857Y-63829428D01*
X186368285Y-63972285D01*
X186368285Y-64400857D01*
X186296857Y-64543714D01*
X186225428Y-64615142D01*
X186082571Y-64686571D01*
X185868285Y-64686571D01*
X187011142Y-63686571D02*
X187011142Y-64686571D01*
X187011142Y-63829428D02*
X187082571Y-63758000D01*
X187225428Y-63686571D01*
X187439714Y-63686571D01*
X187582571Y-63758000D01*
X187654000Y-63900857D01*
X187654000Y-64686571D01*
X188296857Y-64615142D02*
X188439714Y-64686571D01*
X188725428Y-64686571D01*
X188868285Y-64615142D01*
X188939714Y-64472285D01*
X188939714Y-64400857D01*
X188868285Y-64258000D01*
X188725428Y-64186571D01*
X188511142Y-64186571D01*
X188368285Y-64115142D01*
X188296857Y-63972285D01*
X188296857Y-63900857D01*
X188368285Y-63758000D01*
X188511142Y-63686571D01*
X188725428Y-63686571D01*
X188868285Y-63758000D01*
X190154000Y-64615142D02*
X190011142Y-64686571D01*
X189725428Y-64686571D01*
X189582571Y-64615142D01*
X189511142Y-64472285D01*
X189511142Y-63900857D01*
X189582571Y-63758000D01*
X189725428Y-63686571D01*
X190011142Y-63686571D01*
X190154000Y-63758000D01*
X190225428Y-63900857D01*
X190225428Y-64043714D01*
X189511142Y-64186571D01*
X190868285Y-64686571D02*
X190868285Y-63686571D01*
X190868285Y-63186571D02*
X190796857Y-63258000D01*
X190868285Y-63329428D01*
X190939714Y-63258000D01*
X190868285Y-63186571D01*
X190868285Y-63329428D01*
X191796857Y-64686571D02*
X191654000Y-64615142D01*
X191582571Y-64472285D01*
X191582571Y-63186571D01*
X169557142Y-66575714D02*
X169485714Y-66647142D01*
X169271428Y-66718571D01*
X169128571Y-66718571D01*
X168914285Y-66647142D01*
X168771428Y-66504285D01*
X168700000Y-66361428D01*
X168628571Y-66075714D01*
X168628571Y-65861428D01*
X168700000Y-65575714D01*
X168771428Y-65432857D01*
X168914285Y-65290000D01*
X169128571Y-65218571D01*
X169271428Y-65218571D01*
X169485714Y-65290000D01*
X169557142Y-65361428D01*
X170414285Y-66718571D02*
X170271428Y-66647142D01*
X170200000Y-66575714D01*
X170128571Y-66432857D01*
X170128571Y-66004285D01*
X170200000Y-65861428D01*
X170271428Y-65790000D01*
X170414285Y-65718571D01*
X170628571Y-65718571D01*
X170771428Y-65790000D01*
X170842857Y-65861428D01*
X170914285Y-66004285D01*
X170914285Y-66432857D01*
X170842857Y-66575714D01*
X170771428Y-66647142D01*
X170628571Y-66718571D01*
X170414285Y-66718571D01*
X171557142Y-66718571D02*
X171557142Y-65718571D01*
X171557142Y-65861428D02*
X171628571Y-65790000D01*
X171771428Y-65718571D01*
X171985714Y-65718571D01*
X172128571Y-65790000D01*
X172200000Y-65932857D01*
X172200000Y-66718571D01*
X172200000Y-65932857D02*
X172271428Y-65790000D01*
X172414285Y-65718571D01*
X172628571Y-65718571D01*
X172771428Y-65790000D01*
X172842857Y-65932857D01*
X172842857Y-66718571D01*
X173557142Y-65718571D02*
X173557142Y-67218571D01*
X173557142Y-65790000D02*
X173700000Y-65718571D01*
X173985714Y-65718571D01*
X174128571Y-65790000D01*
X174200000Y-65861428D01*
X174271428Y-66004285D01*
X174271428Y-66432857D01*
X174200000Y-66575714D01*
X174128571Y-66647142D01*
X173985714Y-66718571D01*
X173700000Y-66718571D01*
X173557142Y-66647142D01*
D11*
%TO.P,R17,2*%
%TO.N,GNDA*%
X171450000Y-99822000D03*
D12*
%TO.P,R17,1*%
%TO.N,Net-(C7-Pad1)*%
X179070000Y-99822000D03*
%TD*%
D13*
%TO.P,Q1,3*%
%TO.N,Net-(J2-Pad13)*%
X119634000Y-72898000D03*
%TO.P,Q1,2*%
%TO.N,/3\u002C3V*%
X120904000Y-71628000D03*
D14*
%TO.P,Q1,1*%
%TO.N,Net-(Q1-Pad1)*%
X122174000Y-72898000D03*
%TD*%
D13*
%TO.P,Q3,3*%
%TO.N,Net-(J2-Pad37)*%
X180594000Y-72898000D03*
%TO.P,Q3,2*%
%TO.N,/3\u002C3V*%
X181864000Y-71628000D03*
D14*
%TO.P,Q3,1*%
%TO.N,Net-(D2-Pad2)*%
X183134000Y-72898000D03*
%TD*%
D13*
%TO.P,Q4,3*%
%TO.N,Net-(J2-Pad22)*%
X160274000Y-72898000D03*
%TO.P,Q4,2*%
%TO.N,/3\u002C3V*%
X161544000Y-71628000D03*
D14*
%TO.P,Q4,1*%
%TO.N,Net-(D5-Pad2)*%
X162814000Y-72898000D03*
%TD*%
D13*
%TO.P,Q6,3*%
%TO.N,Net-(J2-Pad18)*%
X139954000Y-72898000D03*
%TO.P,Q6,2*%
%TO.N,/3\u002C3V*%
X141224000Y-71628000D03*
D14*
%TO.P,Q6,1*%
%TO.N,Net-(Q6-Pad1)*%
X142494000Y-72898000D03*
%TD*%
D11*
%TO.P,R3,2*%
%TO.N,Net-(C4-Pad1)*%
X132080000Y-84836000D03*
D12*
%TO.P,R3,1*%
%TO.N,Net-(Q1-Pad1)*%
X132080000Y-92456000D03*
%TD*%
%TO.P,K2,12*%
%TO.N,Net-(D2-Pad2)*%
X200660000Y-92202000D03*
%TO.P,K2,14*%
%TO.N,Net-(K2-Pad14)*%
X205740000Y-92202000D03*
%TO.P,K2,11*%
%TO.N,Net-(K2-Pad11)*%
X195580000Y-92202000D03*
%TO.P,K2,A2*%
%TO.N,/VDD2_AF*%
X187960000Y-84582000D03*
D15*
%TO.P,K2,A1*%
%TO.N,Net-(D5-Pad2)*%
X187960000Y-92202000D03*
D12*
%TO.P,K2,24*%
%TO.N,Net-(D4-Pad2)*%
X205740000Y-84582000D03*
%TO.P,K2,22*%
%TO.N,Net-(K2-Pad22)*%
X200660000Y-84582000D03*
%TO.P,K2,21*%
%TO.N,/VDD2_AF*%
X195580000Y-84582000D03*
%TD*%
D16*
%TO.P,TP1,1*%
%TO.N,/Vref1*%
X106426000Y-95504000D03*
%TD*%
%TO.P,TP8,1*%
%TO.N,Net-(Q6-Pad1)*%
X183642000Y-81026000D03*
%TD*%
D11*
%TO.P,R11,2*%
%TO.N,/3\u002C3V*%
X146050000Y-72390000D03*
D12*
%TO.P,R11,1*%
%TO.N,Net-(J2-Pad22)*%
X153670000Y-72390000D03*
%TD*%
D11*
%TO.P,R8,2*%
%TO.N,Net-(D2-Pad2)*%
X173990000Y-75946000D03*
D12*
%TO.P,R8,1*%
%TO.N,/VDD_OUT*%
X166370000Y-75946000D03*
%TD*%
D11*
%TO.P,R9,2*%
%TO.N,/3\u002C3V*%
X166370000Y-72390000D03*
D12*
%TO.P,R9,1*%
%TO.N,Net-(J2-Pad37)*%
X173990000Y-72390000D03*
%TD*%
D16*
%TO.P,TP3,1*%
%TO.N,Net-(J2-Pad13)*%
X116078000Y-72390000D03*
%TD*%
D12*
%TO.P,C1,2*%
%TO.N,GNDA*%
X106934000Y-90852000D03*
%TO.P,C1,1*%
%TO.N,/Vref1*%
X106934000Y-85852000D03*
%TD*%
%TO.P,C3,2*%
%TO.N,GNDA*%
X127000000Y-115980000D03*
%TO.P,C3,1*%
%TO.N,/VDD1_AF*%
X127000000Y-110980000D03*
%TD*%
%TO.P,C4,2*%
%TO.N,/Vref1*%
X115824000Y-90344000D03*
%TO.P,C4,1*%
%TO.N,Net-(C4-Pad1)*%
X115824000Y-85344000D03*
%TD*%
%TO.P,C7,2*%
%TO.N,/Vref2*%
X167386000Y-90344000D03*
%TO.P,C7,1*%
%TO.N,Net-(C7-Pad1)*%
X167386000Y-85344000D03*
%TD*%
%TO.P,C9,2*%
%TO.N,GNDA*%
X196850000Y-115998000D03*
%TO.P,C9,1*%
%TO.N,/VDD2_AF*%
X196850000Y-110998000D03*
%TD*%
%TO.P,C10,2*%
%TO.N,GNDA*%
X158242000Y-91360000D03*
%TO.P,C10,1*%
%TO.N,/Vref2*%
X158242000Y-86360000D03*
%TD*%
%TO.P,C11,2*%
%TO.N,GNDA*%
X109046000Y-80518000D03*
%TO.P,C11,1*%
%TO.N,/VDD1_AF*%
X114046000Y-80518000D03*
%TD*%
%TO.P,C12,2*%
%TO.N,GNDA*%
X159084000Y-80518000D03*
%TO.P,C12,1*%
%TO.N,/VDD2_AF*%
X164084000Y-80518000D03*
%TD*%
D11*
%TO.P,D1,2*%
%TO.N,GNDA*%
X111506000Y-93726000D03*
D17*
%TO.P,D1,1*%
%TO.N,/Vref1*%
X111506000Y-83566000D03*
%TD*%
D18*
%TO.P,D2,2*%
%TO.N,Net-(D2-Pad2)*%
X150368000Y-80772000D03*
D19*
%TO.P,D2,1*%
%TO.N,/VDD1_AF*%
X140208000Y-80772000D03*
%TD*%
D18*
%TO.P,D3,2*%
%TO.N,Net-(D3-Pad2)*%
X141478000Y-105410000D03*
D19*
%TO.P,D3,1*%
%TO.N,/VDD_OUT*%
X151638000Y-105410000D03*
%TD*%
D18*
%TO.P,D4,2*%
%TO.N,Net-(D4-Pad2)*%
X166878000Y-105410000D03*
D19*
%TO.P,D4,1*%
%TO.N,/VDD_OUT*%
X156718000Y-105410000D03*
%TD*%
D18*
%TO.P,D5,2*%
%TO.N,Net-(D5-Pad2)*%
X201168000Y-80772000D03*
D19*
%TO.P,D5,1*%
%TO.N,/VDD2_AF*%
X191008000Y-80772000D03*
%TD*%
D11*
%TO.P,D6,2*%
%TO.N,GNDA*%
X162814000Y-93726000D03*
D17*
%TO.P,D6,1*%
%TO.N,/Vref2*%
X162814000Y-83566000D03*
%TD*%
D20*
%TO.P,D7,2*%
%TO.N,GNDA*%
X117540000Y-105230000D03*
D21*
%TO.P,D7,1*%
%TO.N,/VDD1_AF*%
X122620000Y-105230000D03*
%TD*%
D20*
%TO.P,D8,2*%
%TO.N,GNDA*%
X178562000Y-105156000D03*
D21*
%TO.P,D8,1*%
%TO.N,/VDD2_AF*%
X183642000Y-105156000D03*
%TD*%
D12*
%TO.P,F1,2*%
%TO.N,/VDD1*%
X122870000Y-115980000D03*
%TO.P,F1,1*%
%TO.N,/VDD1_AF*%
X122870000Y-110980000D03*
%TD*%
%TO.P,F2,2*%
%TO.N,/VDD2*%
X192786000Y-115998000D03*
%TO.P,F2,1*%
%TO.N,/VDD2_AF*%
X192786000Y-110998000D03*
%TD*%
D22*
%TO.P,J1,2*%
%TO.N,GNDA*%
X117602000Y-113792000D03*
D23*
%TO.P,J1,1*%
%TO.N,/VDD1*%
X112522000Y-113792000D03*
%TD*%
D24*
%TO.P,J2,40*%
%TO.N,Net-(J2-Pad40)*%
X159512000Y-64516000D03*
%TO.P,J2,39*%
%TO.N,Net-(J2-Pad39)*%
X159512000Y-67056000D03*
%TO.P,J2,38*%
%TO.N,Net-(J2-Pad38)*%
X156972000Y-64516000D03*
%TO.P,J2,37*%
%TO.N,Net-(J2-Pad37)*%
X156972000Y-67056000D03*
%TO.P,J2,36*%
%TO.N,Net-(J2-Pad36)*%
X154432000Y-64516000D03*
%TO.P,J2,35*%
%TO.N,Net-(J2-Pad35)*%
X154432000Y-67056000D03*
%TO.P,J2,34*%
%TO.N,Net-(J2-Pad34)*%
X151892000Y-64516000D03*
%TO.P,J2,33*%
%TO.N,Net-(J2-Pad33)*%
X151892000Y-67056000D03*
%TO.P,J2,32*%
%TO.N,Net-(J2-Pad32)*%
X149352000Y-64516000D03*
%TO.P,J2,31*%
%TO.N,Net-(J2-Pad31)*%
X149352000Y-67056000D03*
%TO.P,J2,30*%
%TO.N,Net-(J2-Pad30)*%
X146812000Y-64516000D03*
%TO.P,J2,29*%
%TO.N,Net-(J2-Pad29)*%
X146812000Y-67056000D03*
%TO.P,J2,28*%
%TO.N,Net-(J2-Pad28)*%
X144272000Y-64516000D03*
%TO.P,J2,27*%
%TO.N,Net-(J2-Pad27)*%
X144272000Y-67056000D03*
%TO.P,J2,26*%
%TO.N,Net-(J2-Pad26)*%
X141732000Y-64516000D03*
%TO.P,J2,25*%
%TO.N,Net-(J2-Pad25)*%
X141732000Y-67056000D03*
%TO.P,J2,24*%
%TO.N,Net-(J2-Pad24)*%
X139192000Y-64516000D03*
%TO.P,J2,23*%
%TO.N,Net-(J2-Pad23)*%
X139192000Y-67056000D03*
%TO.P,J2,22*%
%TO.N,Net-(J2-Pad22)*%
X136652000Y-64516000D03*
%TO.P,J2,21*%
%TO.N,Net-(J2-Pad21)*%
X136652000Y-67056000D03*
%TO.P,J2,20*%
%TO.N,Net-(J2-Pad20)*%
X134112000Y-64516000D03*
%TO.P,J2,19*%
%TO.N,Net-(J2-Pad19)*%
X134112000Y-67056000D03*
%TO.P,J2,18*%
%TO.N,Net-(J2-Pad18)*%
X131572000Y-64516000D03*
%TO.P,J2,17*%
%TO.N,Net-(J2-Pad17)*%
X131572000Y-67056000D03*
%TO.P,J2,16*%
%TO.N,Net-(J2-Pad16)*%
X129032000Y-64516000D03*
%TO.P,J2,15*%
%TO.N,Net-(J2-Pad15)*%
X129032000Y-67056000D03*
%TO.P,J2,14*%
%TO.N,Net-(J2-Pad14)*%
X126492000Y-64516000D03*
%TO.P,J2,13*%
%TO.N,Net-(J2-Pad13)*%
X126492000Y-67056000D03*
%TO.P,J2,12*%
%TO.N,Net-(J2-Pad12)*%
X123952000Y-64516000D03*
%TO.P,J2,11*%
%TO.N,Net-(J2-Pad11)*%
X123952000Y-67056000D03*
%TO.P,J2,10*%
%TO.N,Net-(J2-Pad10)*%
X121412000Y-64516000D03*
%TO.P,J2,9*%
%TO.N,Net-(J2-Pad9)*%
X121412000Y-67056000D03*
%TO.P,J2,8*%
%TO.N,Net-(J2-Pad8)*%
X118872000Y-64516000D03*
%TO.P,J2,7*%
%TO.N,Net-(J2-Pad7)*%
X118872000Y-67056000D03*
%TO.P,J2,6*%
%TO.N,GNDA*%
X116332000Y-64516000D03*
%TO.P,J2,5*%
%TO.N,Net-(J2-Pad5)*%
X116332000Y-67056000D03*
%TO.P,J2,4*%
%TO.N,Net-(J2-Pad4)*%
X113792000Y-64516000D03*
%TO.P,J2,3*%
%TO.N,Net-(J2-Pad3)*%
X113792000Y-67056000D03*
%TO.P,J2,2*%
%TO.N,Net-(J2-Pad2)*%
X111252000Y-64516000D03*
D25*
%TO.P,J2,1*%
%TO.N,/3\u002C3V*%
X111252000Y-67056000D03*
%TD*%
D22*
%TO.P,J3,2*%
%TO.N,GNDA*%
X175768000Y-113538000D03*
D23*
%TO.P,J3,1*%
%TO.N,/VDD_OUT*%
X170688000Y-113538000D03*
%TD*%
D22*
%TO.P,J4,2*%
%TO.N,GNDA*%
X187452000Y-113538000D03*
D23*
%TO.P,J4,1*%
%TO.N,/VDD2*%
X182372000Y-113538000D03*
%TD*%
D12*
%TO.P,K1,12*%
%TO.N,Net-(D5-Pad2)*%
X148844000Y-92202000D03*
%TO.P,K1,14*%
%TO.N,Net-(K1-Pad14)*%
X153924000Y-92202000D03*
%TO.P,K1,11*%
%TO.N,Net-(K1-Pad11)*%
X143764000Y-92202000D03*
%TO.P,K1,A2*%
%TO.N,/VDD1_AF*%
X136144000Y-84582000D03*
D15*
%TO.P,K1,A1*%
%TO.N,Net-(D2-Pad2)*%
X136144000Y-92202000D03*
D12*
%TO.P,K1,24*%
%TO.N,Net-(D3-Pad2)*%
X153924000Y-84582000D03*
%TO.P,K1,22*%
%TO.N,Net-(K1-Pad22)*%
X148844000Y-84582000D03*
%TO.P,K1,21*%
%TO.N,/VDD1_AF*%
X143764000Y-84582000D03*
%TD*%
D13*
%TO.P,Q2,3*%
%TO.N,GNDA*%
X197612000Y-100076000D03*
%TO.P,Q2,2*%
%TO.N,Net-(Q2-Pad2)*%
X196342000Y-101346000D03*
D14*
%TO.P,Q2,1*%
%TO.N,Net-(K2-Pad11)*%
X195072000Y-100076000D03*
%TD*%
D13*
%TO.P,Q5,3*%
%TO.N,GNDA*%
X152400000Y-100076000D03*
%TO.P,Q5,2*%
%TO.N,Net-(Q5-Pad2)*%
X151130000Y-101346000D03*
D14*
%TO.P,Q5,1*%
%TO.N,Net-(K1-Pad11)*%
X149860000Y-100076000D03*
%TD*%
D11*
%TO.P,R1,2*%
%TO.N,/Vref1*%
X106172000Y-98806000D03*
D12*
%TO.P,R1,1*%
%TO.N,/VDD1_AF*%
X106172000Y-106426000D03*
%TD*%
D11*
%TO.P,R2,2*%
%TO.N,GNDA*%
X109474000Y-99568000D03*
D12*
%TO.P,R2,1*%
%TO.N,Net-(C4-Pad1)*%
X117094000Y-99568000D03*
%TD*%
D11*
%TO.P,R4,2*%
%TO.N,Net-(Q1-Pad1)*%
X124968000Y-80518000D03*
D12*
%TO.P,R4,1*%
%TO.N,/VDD1_AF*%
X117348000Y-80518000D03*
%TD*%
D11*
%TO.P,R5,2*%
%TO.N,Net-(Q1-Pad1)*%
X113030000Y-75946000D03*
D12*
%TO.P,R5,1*%
%TO.N,/VDD_OUT*%
X105410000Y-75946000D03*
%TD*%
D11*
%TO.P,R6,2*%
%TO.N,Net-(Q1-Pad1)*%
X138430000Y-101854000D03*
D12*
%TO.P,R6,1*%
%TO.N,Net-(Q2-Pad2)*%
X146050000Y-101854000D03*
%TD*%
D11*
%TO.P,R7,2*%
%TO.N,/3\u002C3V*%
X105410000Y-72390000D03*
D12*
%TO.P,R7,1*%
%TO.N,Net-(J2-Pad13)*%
X113030000Y-72390000D03*
%TD*%
D11*
%TO.P,R10,2*%
%TO.N,Net-(D5-Pad2)*%
X153670000Y-75946000D03*
D12*
%TO.P,R10,1*%
%TO.N,/VDD_OUT*%
X146050000Y-75946000D03*
%TD*%
D11*
%TO.P,R12,2*%
%TO.N,Net-(Q6-Pad1)*%
X163322000Y-101600000D03*
D12*
%TO.P,R12,1*%
%TO.N,Net-(Q5-Pad2)*%
X155702000Y-101600000D03*
%TD*%
D11*
%TO.P,R13,2*%
%TO.N,Net-(Q6-Pad1)*%
X180086000Y-80772000D03*
D12*
%TO.P,R13,1*%
%TO.N,/VDD2_AF*%
X172466000Y-80772000D03*
%TD*%
D11*
%TO.P,R14,2*%
%TO.N,Net-(Q6-Pad1)*%
X133350000Y-75946000D03*
D12*
%TO.P,R14,1*%
%TO.N,/VDD_OUT*%
X125730000Y-75946000D03*
%TD*%
D11*
%TO.P,R15,2*%
%TO.N,Net-(C7-Pad1)*%
X183642000Y-84836000D03*
D12*
%TO.P,R15,1*%
%TO.N,Net-(Q6-Pad1)*%
X183642000Y-92456000D03*
%TD*%
D11*
%TO.P,R16,2*%
%TO.N,/3\u002C3V*%
X125730000Y-72390000D03*
D12*
%TO.P,R16,1*%
%TO.N,Net-(J2-Pad18)*%
X133350000Y-72390000D03*
%TD*%
D11*
%TO.P,R18,2*%
%TO.N,/Vref2*%
X166624000Y-93218000D03*
D12*
%TO.P,R18,1*%
%TO.N,/VDD2_AF*%
X166624000Y-100838000D03*
%TD*%
D11*
%TO.P,R19,2*%
%TO.N,Net-(R19-Pad2)*%
X130556000Y-98552000D03*
D12*
%TO.P,R19,1*%
%TO.N,/VDD1_AF*%
X138176000Y-98552000D03*
%TD*%
D11*
%TO.P,R20,2*%
%TO.N,Net-(R20-Pad2)*%
X188214000Y-105156000D03*
D12*
%TO.P,R20,1*%
%TO.N,/VDD2_AF*%
X195834000Y-105156000D03*
%TD*%
D26*
%TO.P,RV1,3*%
%TO.N,Net-(C4-Pad1)*%
X121412000Y-99568000D03*
%TO.P,RV1,2*%
%TO.N,Net-(R19-Pad2)*%
X123952000Y-99568000D03*
%TO.P,RV1,1*%
X126492000Y-99568000D03*
%TD*%
%TO.P,RV2,3*%
%TO.N,Net-(C7-Pad1)*%
X183388000Y-99568000D03*
%TO.P,RV2,2*%
%TO.N,Net-(R20-Pad2)*%
X185928000Y-99568000D03*
%TO.P,RV2,1*%
X188468000Y-99568000D03*
%TD*%
D16*
%TO.P,TP2,1*%
%TO.N,Net-(Q1-Pad1)*%
X129794000Y-104902000D03*
%TD*%
%TO.P,TP4,1*%
%TO.N,Net-(D2-Pad2)*%
X154432000Y-80772000D03*
%TD*%
%TO.P,TP5,1*%
%TO.N,Net-(J2-Pad37)*%
X177038000Y-72390000D03*
%TD*%
%TO.P,TP6,1*%
%TO.N,Net-(D5-Pad2)*%
X205232000Y-80772000D03*
%TD*%
%TO.P,TP7,1*%
%TO.N,Net-(J2-Pad22)*%
X156718000Y-72390000D03*
%TD*%
%TO.P,TP9,1*%
%TO.N,Net-(J2-Pad18)*%
X136398000Y-72390000D03*
%TD*%
%TO.P,TP10,1*%
%TO.N,/Vref2*%
X160782000Y-97536000D03*
%TD*%
D27*
%TO.P,U1,8*%
%TO.N,/VDD1_AF*%
X120396000Y-84328000D03*
%TO.P,U1,4*%
%TO.N,GNDA*%
X128016000Y-91948000D03*
%TO.P,U1,7*%
%TO.N,Net-(Q1-Pad1)*%
X122936000Y-84328000D03*
%TO.P,U1,3*%
%TO.N,/Vref1*%
X125476000Y-91948000D03*
%TO.P,U1,6*%
%TO.N,Net-(U1-Pad5)*%
X125476000Y-84328000D03*
%TO.P,U1,2*%
%TO.N,Net-(C4-Pad1)*%
X122936000Y-91948000D03*
%TO.P,U1,5*%
%TO.N,Net-(U1-Pad5)*%
X128016000Y-84328000D03*
D28*
%TO.P,U1,1*%
%TO.N,GNDA*%
X120396000Y-91948000D03*
%TD*%
D27*
%TO.P,U2,8*%
%TO.N,/VDD2_AF*%
X171958000Y-84328000D03*
%TO.P,U2,4*%
%TO.N,GNDA*%
X179578000Y-91948000D03*
%TO.P,U2,7*%
%TO.N,Net-(Q6-Pad1)*%
X174498000Y-84328000D03*
%TO.P,U2,3*%
%TO.N,/Vref2*%
X177038000Y-91948000D03*
%TO.P,U2,6*%
%TO.N,Net-(U2-Pad5)*%
X177038000Y-84328000D03*
%TO.P,U2,2*%
%TO.N,Net-(C7-Pad1)*%
X174498000Y-91948000D03*
%TO.P,U2,5*%
%TO.N,Net-(U2-Pad5)*%
X179578000Y-84328000D03*
D28*
%TO.P,U2,1*%
%TO.N,GNDA*%
X171958000Y-91948000D03*
%TD*%
D12*
%TO.P,C5,2*%
%TO.N,GNDA*%
X146050000Y-115998000D03*
%TO.P,C5,1*%
%TO.N,/VDD_OUT*%
X146050000Y-110998000D03*
%TD*%
D29*
%TO.P,C2,2*%
%TO.N,GNDA*%
X134370000Y-114980000D03*
D21*
%TO.P,C2,1*%
%TO.N,/VDD1_AF*%
X134370000Y-109980000D03*
%TD*%
D29*
%TO.P,C6,2*%
%TO.N,GNDA*%
X153870000Y-114980000D03*
D21*
%TO.P,C6,1*%
%TO.N,/VDD_OUT*%
X153870000Y-109980000D03*
%TD*%
D29*
%TO.P,C8,2*%
%TO.N,GNDA*%
X204370000Y-114980000D03*
D21*
%TO.P,C8,1*%
%TO.N,/VDD2_AF*%
X204370000Y-109980000D03*
%TD*%
D30*
%TO.P,D9,2*%
%TO.N,Net-(D9-Pad2)*%
X193294000Y-71120000D03*
D31*
%TO.P,D9,1*%
%TO.N,GNDA*%
X193294000Y-73660000D03*
%TD*%
D30*
%TO.P,D10,2*%
%TO.N,Net-(D10-Pad2)*%
X201168000Y-71120000D03*
D31*
%TO.P,D10,1*%
%TO.N,GNDA*%
X201168000Y-73660000D03*
%TD*%
D11*
%TO.P,R21,2*%
%TO.N,Net-(D3-Pad2)*%
X187706000Y-74676000D03*
D12*
%TO.P,R21,1*%
%TO.N,Net-(D9-Pad2)*%
X187706000Y-67056000D03*
%TD*%
D11*
%TO.P,R22,2*%
%TO.N,Net-(D4-Pad2)*%
X206756000Y-74676000D03*
D12*
%TO.P,R22,1*%
%TO.N,Net-(D10-Pad2)*%
X206756000Y-67056000D03*
%TD*%
D32*
%TO.N,Net-(D5-Pad2)*%
X170180000Y-75946000D03*
%TD*%
D33*
%TO.N,/Vref1*%
X106172000Y-98806000D02*
X106172000Y-95758000D01*
D34*
X106680000Y-95250000D02*
X106426000Y-95504000D01*
X106934000Y-85852000D02*
X104394000Y-88392000D01*
X104394000Y-93472000D02*
X106426000Y-95504000D01*
X104394000Y-88392000D02*
X104394000Y-93472000D01*
%TO.N,GNDA*%
X106934000Y-90852000D02*
X108632000Y-89154000D01*
X108632000Y-80932000D02*
X109046000Y-80518000D01*
X108632000Y-89154000D02*
X108632000Y-80932000D01*
X159084000Y-80518000D02*
X160274000Y-81708000D01*
X160274000Y-89328000D02*
X158242000Y-91360000D01*
X160274000Y-81708000D02*
X160274000Y-89328000D01*
X120396000Y-89408000D02*
X120396000Y-91948000D01*
X120650000Y-89154000D02*
X120396000Y-89408000D01*
X125222000Y-89154000D02*
X120650000Y-89154000D01*
X128016000Y-91948000D02*
X125222000Y-89154000D01*
X171958000Y-91948000D02*
X171958000Y-90678000D01*
X171958000Y-90678000D02*
X173482000Y-89154000D01*
X173482000Y-89154000D02*
X179070000Y-89154000D01*
X179578000Y-89662000D02*
X179578000Y-91948000D01*
X179070000Y-89154000D02*
X179578000Y-89662000D01*
D33*
%TO.N,/VDD1_AF*%
X138176000Y-98552000D02*
X138176000Y-86614000D01*
X138176000Y-86614000D02*
X136144000Y-84582000D01*
X122870000Y-105480000D02*
X122620000Y-105230000D01*
X122870000Y-110980000D02*
X122870000Y-105480000D01*
D34*
%TO.N,Net-(C4-Pad1)*%
X122936000Y-98044000D02*
X122936000Y-91948000D01*
X121412000Y-99568000D02*
X122936000Y-98044000D01*
%TO.N,/VDD_OUT*%
X126746000Y-78486000D02*
X125730000Y-77470000D01*
X133350000Y-78486000D02*
X126746000Y-78486000D01*
X137922000Y-106426000D02*
X137922000Y-105410000D01*
X139877999Y-85013999D02*
X133350000Y-78486000D01*
X139877999Y-103454001D02*
X139877999Y-85013999D01*
X142494000Y-110998000D02*
X137922000Y-106426000D01*
X137922000Y-105410000D02*
X139877999Y-103454001D01*
X146050000Y-110998000D02*
X142494000Y-110998000D01*
X125730000Y-77470000D02*
X125730000Y-75946000D01*
X107696000Y-77724000D02*
X123952000Y-77724000D01*
X105918000Y-75946000D02*
X107696000Y-77724000D01*
X123952000Y-77724000D02*
X125730000Y-75946000D01*
X105410000Y-75946000D02*
X105918000Y-75946000D01*
%TO.N,Net-(C7-Pad1)*%
X174498000Y-95250000D02*
X179070000Y-99822000D01*
X174498000Y-91948000D02*
X174498000Y-95250000D01*
%TO.N,/Vref2*%
X162306000Y-97536000D02*
X166624000Y-93218000D01*
X160782000Y-97536000D02*
X162306000Y-97536000D01*
%TO.N,/VDD2_AF*%
X180123999Y-101637999D02*
X183642000Y-105156000D01*
X167423999Y-101637999D02*
X180123999Y-101637999D01*
X166624000Y-100838000D02*
X167423999Y-101637999D01*
X171958000Y-88560000D02*
X171958000Y-84328000D01*
X166624000Y-100838000D02*
X167924001Y-99537999D01*
D33*
X187960000Y-84582000D02*
X191262000Y-87884000D01*
X191262000Y-100584000D02*
X195834000Y-105156000D01*
X191262000Y-87884000D02*
X191262000Y-100584000D01*
X187960000Y-84582000D02*
X195580000Y-84582000D01*
D34*
X167924001Y-99537999D02*
X168178001Y-99537999D01*
X168359000Y-99357000D02*
X168359000Y-92159000D01*
X168178001Y-99537999D02*
X168359000Y-99357000D01*
X168359000Y-92159000D02*
X171958000Y-88560000D01*
%TO.N,Net-(D2-Pad2)*%
X150368000Y-80772000D02*
X154432000Y-80772000D01*
D33*
%TO.N,Net-(D3-Pad2)*%
X153924000Y-84582000D02*
X151892000Y-84582000D01*
X151892000Y-84582000D02*
X147828000Y-88646000D01*
X147828000Y-88646000D02*
X143002000Y-88646000D01*
X141478000Y-90170000D02*
X141478000Y-105410000D01*
X143002000Y-88646000D02*
X141478000Y-90170000D01*
D34*
%TO.N,Net-(D4-Pad2)*%
X205740000Y-84582000D02*
X207518000Y-82804000D01*
X207518000Y-75438000D02*
X206756000Y-74676000D01*
X207518000Y-82804000D02*
X207518000Y-75438000D01*
D33*
X169276581Y-107808581D02*
X166878000Y-105410000D01*
X205740000Y-84582000D02*
X208534000Y-87376000D01*
X208534000Y-103886000D02*
X205486000Y-106934000D01*
X208534000Y-87376000D02*
X208534000Y-103886000D01*
X205486000Y-106934000D02*
X200406000Y-106934000D01*
X200406000Y-106934000D02*
X199531419Y-107808581D01*
X199531419Y-107808581D02*
X169276581Y-107808581D01*
D34*
%TO.N,Net-(D5-Pad2)*%
X201168000Y-80772000D02*
X205232000Y-80772000D01*
X187960000Y-92202000D02*
X187960000Y-90678000D01*
X187960000Y-90678000D02*
X186309000Y-89027000D01*
X186309000Y-89027000D02*
X186309000Y-80137000D01*
X184150000Y-77978000D02*
X186309000Y-80137000D01*
X170180000Y-75946000D02*
X172212000Y-77978000D01*
X156972000Y-84074000D02*
X148844000Y-92202000D01*
X156972000Y-84074000D02*
X156972000Y-76708000D01*
X184150000Y-77978000D02*
X172212000Y-77978000D01*
X156972000Y-76708000D02*
X156210000Y-75946000D01*
X156210000Y-75946000D02*
X153670000Y-75946000D01*
%TO.N,Net-(J2-Pad13)*%
X113030000Y-72390000D02*
X116078000Y-72390000D01*
X116586000Y-72898000D02*
X116078000Y-72390000D01*
X119634000Y-72898000D02*
X116586000Y-72898000D01*
X119634000Y-70358000D02*
X119634000Y-72898000D01*
X120142000Y-69850000D02*
X119634000Y-70358000D01*
X125730000Y-69850000D02*
X120142000Y-69850000D01*
X126492000Y-69088000D02*
X125730000Y-69850000D01*
X126492000Y-67056000D02*
X126492000Y-69088000D01*
%TO.N,Net-(J2-Pad18)*%
X136906000Y-72898000D02*
X136398000Y-72390000D01*
X139700000Y-72898000D02*
X136906000Y-72898000D01*
X123932001Y-74148001D02*
X123971999Y-74148001D01*
X108003999Y-72844001D02*
X107969999Y-72878001D01*
X131572000Y-64516000D02*
X130221999Y-63165999D01*
X109239999Y-74148001D02*
X117836001Y-74148001D01*
X109901999Y-63867999D02*
X109901999Y-66481999D01*
X109901999Y-66481999D02*
X108003999Y-68379999D01*
X110603999Y-63165999D02*
X109901999Y-63867999D01*
X108003999Y-68379999D02*
X108003999Y-72844001D01*
X122682000Y-75398002D02*
X123932001Y-74148001D01*
X107969999Y-72878001D02*
X109239999Y-74148001D01*
X117836001Y-74148001D02*
X119126000Y-75438000D01*
X119126000Y-75438000D02*
X122682000Y-75438000D01*
X130221999Y-63165999D02*
X110603999Y-63165999D01*
X122682000Y-75438000D02*
X122682000Y-75398002D01*
X135890000Y-71882000D02*
X136398000Y-72390000D01*
X133350000Y-71882000D02*
X135890000Y-71882000D01*
X124206000Y-73914000D02*
X131826000Y-73914000D01*
X123971999Y-74148001D02*
X124206000Y-73914000D01*
X131826000Y-73914000D02*
X133350000Y-72390000D01*
%TO.N,Net-(J2-Pad22)*%
X158242000Y-72898000D02*
X157734000Y-72390000D01*
X157734000Y-72390000D02*
X153670000Y-72390000D01*
X158242000Y-72898000D02*
X160274000Y-72898000D01*
X160782000Y-73406000D02*
X160274000Y-72898000D01*
X160782000Y-74422000D02*
X160782000Y-73406000D01*
X161290000Y-74930000D02*
X160782000Y-74422000D01*
X136652000Y-64516000D02*
X138002001Y-63165999D01*
X138002001Y-63165999D02*
X173562001Y-63165999D01*
X184658000Y-74930000D02*
X176022000Y-74930000D01*
X164338000Y-74930000D02*
X161290000Y-74930000D01*
X173562001Y-63165999D02*
X178388001Y-67991999D01*
X178388001Y-67991999D02*
X183815999Y-67991999D01*
X183815999Y-67991999D02*
X185674000Y-69850000D01*
X185674000Y-69850000D02*
X185674000Y-73914000D01*
X185674000Y-73914000D02*
X184658000Y-74930000D01*
X176022000Y-74930000D02*
X175240001Y-74148001D01*
X175240001Y-74148001D02*
X165080001Y-74148001D01*
X165080001Y-74148001D02*
X165080001Y-74187999D01*
X165080001Y-74187999D02*
X164338000Y-74930000D01*
%TO.N,Net-(J2-Pad37)*%
X177546000Y-72898000D02*
X177038000Y-72390000D01*
X180594000Y-72898000D02*
X177546000Y-72898000D01*
X173990000Y-72390000D02*
X177038000Y-72390000D01*
X156972000Y-69088000D02*
X156972000Y-67056000D01*
X157734000Y-69850000D02*
X156972000Y-69088000D01*
X173228000Y-69850000D02*
X157734000Y-69850000D01*
X173990000Y-70612000D02*
X173228000Y-69850000D01*
X173990000Y-72390000D02*
X173990000Y-70612000D01*
%TO.N,Net-(K1-Pad11)*%
X149860000Y-98298000D02*
X143764000Y-92202000D01*
X149860000Y-100076000D02*
X149860000Y-98298000D01*
%TO.N,Net-(K2-Pad11)*%
X195072000Y-92710000D02*
X195580000Y-92202000D01*
X195072000Y-100076000D02*
X195072000Y-92710000D01*
D33*
%TO.N,Net-(Q1-Pad1)*%
X135382000Y-104902000D02*
X138430000Y-101854000D01*
X129794000Y-104902000D02*
X135382000Y-104902000D01*
D34*
X138430000Y-101854000D02*
X136144000Y-101854000D01*
X132080000Y-97790000D02*
X132080000Y-92456000D01*
X136144000Y-101854000D02*
X132080000Y-97790000D01*
X132080000Y-90170000D02*
X132080000Y-92456000D01*
X131318000Y-89408000D02*
X132080000Y-90170000D01*
X127254000Y-89408000D02*
X131318000Y-89408000D01*
X122936000Y-85090000D02*
X127254000Y-89408000D01*
X122936000Y-84328000D02*
X122936000Y-85090000D01*
%TO.N,Net-(Q6-Pad1)*%
X183388000Y-80772000D02*
X183642000Y-81026000D01*
X180086000Y-80772000D02*
X183388000Y-80772000D01*
X178054000Y-80772000D02*
X180086000Y-80772000D01*
X171450000Y-78994000D02*
X173482000Y-78994000D01*
X171226001Y-79217999D02*
X171450000Y-78994000D01*
X173482000Y-78994000D02*
X174498000Y-80010000D01*
X166593999Y-79217999D02*
X171226001Y-79217999D01*
X166593999Y-82834001D02*
X166593999Y-79217999D01*
X164137999Y-85290001D02*
X166593999Y-82834001D01*
X158496000Y-95504000D02*
X164030001Y-89969999D01*
X158496000Y-99822000D02*
X158496000Y-95504000D01*
X164030001Y-89969999D02*
X164137999Y-89969999D01*
X160274000Y-101600000D02*
X158496000Y-99822000D01*
X164137999Y-89969999D02*
X164137999Y-85290001D01*
X163322000Y-101600000D02*
X160274000Y-101600000D01*
X174752000Y-80772000D02*
X174498000Y-81026000D01*
X180086000Y-80772000D02*
X174752000Y-80772000D01*
X174498000Y-81026000D02*
X174498000Y-84328000D01*
X174498000Y-80010000D02*
X174498000Y-81026000D01*
X183642000Y-81026000D02*
X183642000Y-81534000D01*
X183642000Y-81534000D02*
X181610000Y-83566000D01*
X181610000Y-90424000D02*
X183642000Y-92456000D01*
X181610000Y-83566000D02*
X181610000Y-90424000D01*
X162784629Y-77948629D02*
X165324629Y-77948629D01*
X159481999Y-74645999D02*
X162784629Y-77948629D01*
X165324629Y-77948629D02*
X166593999Y-79217999D01*
X154909999Y-74645999D02*
X159481999Y-74645999D01*
X154178000Y-73914000D02*
X154909999Y-74645999D01*
X145034000Y-73914000D02*
X154178000Y-73914000D01*
X144018000Y-72898000D02*
X145034000Y-73914000D01*
X142494000Y-72898000D02*
X144018000Y-72898000D01*
%TO.N,Net-(R20-Pad2)*%
X188214000Y-99822000D02*
X188468000Y-99568000D01*
X188214000Y-105156000D02*
X188214000Y-99822000D01*
%TD*%
M02*
