%TF.GenerationSoftware,KiCad,Pcbnew,(5.1.8)-1*%
%TF.CreationDate,2020-12-03T12:02:38+01:00*%
%TF.ProjectId,repartiteur,72657061-7274-4697-9465-75722e6b6963,rev?*%
%TF.SameCoordinates,Original*%
%TF.FileFunction,Legend,Top*%
%TF.FilePolarity,Positive*%
%FSLAX46Y46*%
G04 Gerber Fmt 4.6, Leading zero omitted, Abs format (unit mm)*
G04 Created by KiCad (PCBNEW (5.1.8)-1) date 2020-12-03 12:02:38*
%MOMM*%
%LPD*%
G01*
G04 APERTURE LIST*
%ADD10C,0.120000*%
%ADD11C,0.150000*%
G04 APERTURE END LIST*
D10*
%TO.C,R17*%
X178530000Y-100862000D02*
X178530000Y-101192000D01*
X178530000Y-101192000D02*
X171990000Y-101192000D01*
X171990000Y-101192000D02*
X171990000Y-100862000D01*
X178530000Y-98782000D02*
X178530000Y-98452000D01*
X178530000Y-98452000D02*
X171990000Y-98452000D01*
X171990000Y-98452000D02*
X171990000Y-98782000D01*
%TO.C,Q1*%
X123476150Y-74480544D02*
G75*
G03*
X122486331Y-75470281I-2572150J1582544D01*
G01*
X122486331Y-75470281D02*
X123398499Y-76382448D01*
X123398499Y-76382448D02*
X124388448Y-75392499D01*
X124388448Y-75392499D02*
X123476281Y-74480331D01*
%TO.C,Q3*%
X184436150Y-74480544D02*
G75*
G03*
X183446331Y-75470281I-2572150J1582544D01*
G01*
X183446331Y-75470281D02*
X184358499Y-76382448D01*
X184358499Y-76382448D02*
X185348448Y-75392499D01*
X185348448Y-75392499D02*
X184436281Y-74480331D01*
%TO.C,Q4*%
X164116150Y-74480544D02*
G75*
G03*
X163126331Y-75470281I-2572150J1582544D01*
G01*
X163126331Y-75470281D02*
X164038499Y-76382448D01*
X164038499Y-76382448D02*
X165028448Y-75392499D01*
X165028448Y-75392499D02*
X164116281Y-74480331D01*
%TO.C,Q6*%
X143796150Y-74480544D02*
G75*
G03*
X142806331Y-75470281I-2572150J1582544D01*
G01*
X142806331Y-75470281D02*
X143718499Y-76382448D01*
X143718499Y-76382448D02*
X144708448Y-75392499D01*
X144708448Y-75392499D02*
X143796281Y-74480331D01*
%TO.C,R3*%
X131040000Y-91916000D02*
X130710000Y-91916000D01*
X130710000Y-91916000D02*
X130710000Y-85376000D01*
X130710000Y-85376000D02*
X131040000Y-85376000D01*
X133120000Y-91916000D02*
X133450000Y-91916000D01*
X133450000Y-91916000D02*
X133450000Y-85376000D01*
X133450000Y-85376000D02*
X133120000Y-85376000D01*
%TO.C,K2*%
X188060000Y-93802000D02*
X186340000Y-93802000D01*
X186340000Y-93802000D02*
X186340000Y-92302000D01*
X207110000Y-93552000D02*
X186590000Y-93552000D01*
X186590000Y-93552000D02*
X186590000Y-83232000D01*
X186590000Y-83232000D02*
X207110000Y-83232000D01*
X207110000Y-83232000D02*
X207110000Y-93552000D01*
X187960000Y-88802000D02*
X187960000Y-89902000D01*
X187960000Y-88102000D02*
X187960000Y-87002000D01*
X188160000Y-88802000D02*
X187760000Y-88102000D01*
X187360000Y-88802000D02*
X188560000Y-88802000D01*
X188560000Y-88802000D02*
X188560000Y-88102000D01*
X188560000Y-88102000D02*
X187360000Y-88102000D01*
X187360000Y-88102000D02*
X187360000Y-88802000D01*
%TO.C,TP1*%
X105226000Y-94304000D02*
X107626000Y-94304000D01*
X107626000Y-94304000D02*
X107626000Y-96704000D01*
X107626000Y-96704000D02*
X105226000Y-96704000D01*
X105226000Y-96704000D02*
X105226000Y-94304000D01*
%TO.C,TP8*%
X182442000Y-79826000D02*
X184842000Y-79826000D01*
X184842000Y-79826000D02*
X184842000Y-82226000D01*
X184842000Y-82226000D02*
X182442000Y-82226000D01*
X182442000Y-82226000D02*
X182442000Y-79826000D01*
%TO.C,R11*%
X153130000Y-73430000D02*
X153130000Y-73760000D01*
X153130000Y-73760000D02*
X146590000Y-73760000D01*
X146590000Y-73760000D02*
X146590000Y-73430000D01*
X153130000Y-71350000D02*
X153130000Y-71020000D01*
X153130000Y-71020000D02*
X146590000Y-71020000D01*
X146590000Y-71020000D02*
X146590000Y-71350000D01*
%TO.C,R8*%
X166910000Y-74906000D02*
X166910000Y-74576000D01*
X166910000Y-74576000D02*
X173450000Y-74576000D01*
X173450000Y-74576000D02*
X173450000Y-74906000D01*
X166910000Y-76986000D02*
X166910000Y-77316000D01*
X166910000Y-77316000D02*
X173450000Y-77316000D01*
X173450000Y-77316000D02*
X173450000Y-76986000D01*
%TO.C,R9*%
X173450000Y-73430000D02*
X173450000Y-73760000D01*
X173450000Y-73760000D02*
X166910000Y-73760000D01*
X166910000Y-73760000D02*
X166910000Y-73430000D01*
X173450000Y-71350000D02*
X173450000Y-71020000D01*
X173450000Y-71020000D02*
X166910000Y-71020000D01*
X166910000Y-71020000D02*
X166910000Y-71350000D01*
%TO.C,TP3*%
X114878000Y-71190000D02*
X117278000Y-71190000D01*
X117278000Y-71190000D02*
X117278000Y-73590000D01*
X117278000Y-73590000D02*
X114878000Y-73590000D01*
X114878000Y-73590000D02*
X114878000Y-71190000D01*
%TO.C,C1*%
X109304000Y-84632000D02*
X109304000Y-92072000D01*
X104564000Y-84632000D02*
X104564000Y-92072000D01*
X109304000Y-84632000D02*
X104564000Y-84632000D01*
X109304000Y-92072000D02*
X104564000Y-92072000D01*
%TO.C,C3*%
X128370000Y-109760000D02*
X128370000Y-117200000D01*
X125630000Y-109760000D02*
X125630000Y-117200000D01*
X128370000Y-109760000D02*
X125630000Y-109760000D01*
X128370000Y-117200000D02*
X125630000Y-117200000D01*
%TO.C,C4*%
X118194000Y-84124000D02*
X118194000Y-91564000D01*
X113454000Y-84124000D02*
X113454000Y-91564000D01*
X118194000Y-84124000D02*
X113454000Y-84124000D01*
X118194000Y-91564000D02*
X113454000Y-91564000D01*
%TO.C,C7*%
X169756000Y-84124000D02*
X169756000Y-91564000D01*
X165016000Y-84124000D02*
X165016000Y-91564000D01*
X169756000Y-84124000D02*
X165016000Y-84124000D01*
X169756000Y-91564000D02*
X165016000Y-91564000D01*
%TO.C,C9*%
X198220000Y-109778000D02*
X198220000Y-117218000D01*
X195480000Y-109778000D02*
X195480000Y-117218000D01*
X198220000Y-109778000D02*
X195480000Y-109778000D01*
X198220000Y-117218000D02*
X195480000Y-117218000D01*
%TO.C,C10*%
X160612000Y-85140000D02*
X160612000Y-92580000D01*
X155872000Y-85140000D02*
X155872000Y-92580000D01*
X160612000Y-85140000D02*
X155872000Y-85140000D01*
X160612000Y-92580000D02*
X155872000Y-92580000D01*
%TO.C,C11*%
X115266000Y-81888000D02*
X107826000Y-81888000D01*
X115266000Y-79148000D02*
X107826000Y-79148000D01*
X115266000Y-81888000D02*
X115266000Y-79148000D01*
X107826000Y-81888000D02*
X107826000Y-79148000D01*
%TO.C,C12*%
X165304000Y-81888000D02*
X157864000Y-81888000D01*
X165304000Y-79148000D02*
X157864000Y-79148000D01*
X165304000Y-81888000D02*
X165304000Y-79148000D01*
X157864000Y-81888000D02*
X157864000Y-79148000D01*
%TO.C,D1*%
X112626000Y-86526000D02*
X110386000Y-86526000D01*
X110386000Y-86526000D02*
X110386000Y-90766000D01*
X110386000Y-90766000D02*
X112626000Y-90766000D01*
X112626000Y-90766000D02*
X112626000Y-86526000D01*
X111506000Y-84606000D02*
X111506000Y-86526000D01*
X111506000Y-92686000D02*
X111506000Y-90766000D01*
X112626000Y-87246000D02*
X110386000Y-87246000D01*
X112626000Y-87366000D02*
X110386000Y-87366000D01*
X112626000Y-87126000D02*
X110386000Y-87126000D01*
%TO.C,D2*%
X142568000Y-79302000D02*
X142568000Y-82242000D01*
X142568000Y-82242000D02*
X148008000Y-82242000D01*
X148008000Y-82242000D02*
X148008000Y-79302000D01*
X148008000Y-79302000D02*
X142568000Y-79302000D01*
X141548000Y-80772000D02*
X142568000Y-80772000D01*
X149028000Y-80772000D02*
X148008000Y-80772000D01*
X143468000Y-79302000D02*
X143468000Y-82242000D01*
X143588000Y-79302000D02*
X143588000Y-82242000D01*
X143348000Y-79302000D02*
X143348000Y-82242000D01*
%TO.C,D3*%
X149278000Y-106880000D02*
X149278000Y-103940000D01*
X149278000Y-103940000D02*
X143838000Y-103940000D01*
X143838000Y-103940000D02*
X143838000Y-106880000D01*
X143838000Y-106880000D02*
X149278000Y-106880000D01*
X150298000Y-105410000D02*
X149278000Y-105410000D01*
X142818000Y-105410000D02*
X143838000Y-105410000D01*
X148378000Y-106880000D02*
X148378000Y-103940000D01*
X148258000Y-106880000D02*
X148258000Y-103940000D01*
X148498000Y-106880000D02*
X148498000Y-103940000D01*
%TO.C,D4*%
X159078000Y-103940000D02*
X159078000Y-106880000D01*
X159078000Y-106880000D02*
X164518000Y-106880000D01*
X164518000Y-106880000D02*
X164518000Y-103940000D01*
X164518000Y-103940000D02*
X159078000Y-103940000D01*
X158058000Y-105410000D02*
X159078000Y-105410000D01*
X165538000Y-105410000D02*
X164518000Y-105410000D01*
X159978000Y-103940000D02*
X159978000Y-106880000D01*
X160098000Y-103940000D02*
X160098000Y-106880000D01*
X159858000Y-103940000D02*
X159858000Y-106880000D01*
%TO.C,D5*%
X193368000Y-79302000D02*
X193368000Y-82242000D01*
X193368000Y-82242000D02*
X198808000Y-82242000D01*
X198808000Y-82242000D02*
X198808000Y-79302000D01*
X198808000Y-79302000D02*
X193368000Y-79302000D01*
X192348000Y-80772000D02*
X193368000Y-80772000D01*
X199828000Y-80772000D02*
X198808000Y-80772000D01*
X194268000Y-79302000D02*
X194268000Y-82242000D01*
X194388000Y-79302000D02*
X194388000Y-82242000D01*
X194148000Y-79302000D02*
X194148000Y-82242000D01*
%TO.C,D6*%
X163934000Y-86526000D02*
X161694000Y-86526000D01*
X161694000Y-86526000D02*
X161694000Y-90766000D01*
X161694000Y-90766000D02*
X163934000Y-90766000D01*
X163934000Y-90766000D02*
X163934000Y-86526000D01*
X162814000Y-84606000D02*
X162814000Y-86526000D01*
X162814000Y-92686000D02*
X162814000Y-90766000D01*
X163934000Y-87246000D02*
X161694000Y-87246000D01*
X163934000Y-87366000D02*
X161694000Y-87366000D01*
X163934000Y-87126000D02*
X161694000Y-87126000D01*
%TO.C,D7*%
X125200000Y-108500000D02*
X114960000Y-108500000D01*
X125200000Y-103859000D02*
X114960000Y-103859000D01*
X125200000Y-108500000D02*
X125200000Y-103859000D01*
X114960000Y-108500000D02*
X114960000Y-103859000D01*
X125200000Y-106990000D02*
X114960000Y-106990000D01*
X121930000Y-108500000D02*
X121930000Y-106990000D01*
X118229000Y-108500000D02*
X118229000Y-106990000D01*
%TO.C,D8*%
X186222000Y-108426000D02*
X175982000Y-108426000D01*
X186222000Y-103785000D02*
X175982000Y-103785000D01*
X186222000Y-108426000D02*
X186222000Y-103785000D01*
X175982000Y-108426000D02*
X175982000Y-103785000D01*
X186222000Y-106916000D02*
X175982000Y-106916000D01*
X182952000Y-108426000D02*
X182952000Y-106916000D01*
X179251000Y-108426000D02*
X179251000Y-106916000D01*
%TO.C,F1*%
X124740000Y-109860000D02*
X124740000Y-117100000D01*
X121000000Y-109860000D02*
X121000000Y-117100000D01*
X124740000Y-109860000D02*
X121000000Y-109860000D01*
X124740000Y-117100000D02*
X121000000Y-117100000D01*
%TO.C,F2*%
X194656000Y-109878000D02*
X194656000Y-117118000D01*
X190916000Y-109878000D02*
X190916000Y-117118000D01*
X194656000Y-109878000D02*
X190916000Y-109878000D01*
X194656000Y-117118000D02*
X190916000Y-117118000D01*
%TO.C,J1*%
X120142000Y-116332000D02*
X109982000Y-116332000D01*
X120142000Y-117602000D02*
X120142000Y-109982000D01*
X120142000Y-109982000D02*
X109982000Y-109982000D01*
X109982000Y-109982000D02*
X109982000Y-117602000D01*
X109982000Y-117602000D02*
X120142000Y-117602000D01*
%TO.C,J2*%
X160842000Y-68386000D02*
X160842000Y-63186000D01*
X112522000Y-68386000D02*
X160842000Y-68386000D01*
X109922000Y-63186000D02*
X160842000Y-63186000D01*
X112522000Y-68386000D02*
X112522000Y-65786000D01*
X112522000Y-65786000D02*
X109922000Y-65786000D01*
X109922000Y-65786000D02*
X109922000Y-63186000D01*
X111252000Y-68386000D02*
X109922000Y-68386000D01*
X109922000Y-68386000D02*
X109922000Y-67056000D01*
%TO.C,J3*%
X178308000Y-116078000D02*
X168148000Y-116078000D01*
X178308000Y-117348000D02*
X178308000Y-109728000D01*
X178308000Y-109728000D02*
X168148000Y-109728000D01*
X168148000Y-109728000D02*
X168148000Y-117348000D01*
X168148000Y-117348000D02*
X178308000Y-117348000D01*
%TO.C,J4*%
X189992000Y-116078000D02*
X179832000Y-116078000D01*
X189992000Y-117348000D02*
X189992000Y-109728000D01*
X189992000Y-109728000D02*
X179832000Y-109728000D01*
X179832000Y-109728000D02*
X179832000Y-117348000D01*
X179832000Y-117348000D02*
X189992000Y-117348000D01*
%TO.C,K1*%
X136244000Y-93802000D02*
X134524000Y-93802000D01*
X134524000Y-93802000D02*
X134524000Y-92302000D01*
X155294000Y-93552000D02*
X134774000Y-93552000D01*
X134774000Y-93552000D02*
X134774000Y-83232000D01*
X134774000Y-83232000D02*
X155294000Y-83232000D01*
X155294000Y-83232000D02*
X155294000Y-93552000D01*
X136144000Y-88802000D02*
X136144000Y-89902000D01*
X136144000Y-88102000D02*
X136144000Y-87002000D01*
X136344000Y-88802000D02*
X135944000Y-88102000D01*
X135544000Y-88802000D02*
X136744000Y-88802000D01*
X136744000Y-88802000D02*
X136744000Y-88102000D01*
X136744000Y-88102000D02*
X135544000Y-88102000D01*
X135544000Y-88102000D02*
X135544000Y-88802000D01*
%TO.C,Q2*%
X194759669Y-97503719D02*
X193847501Y-96591552D01*
X193847501Y-96591552D02*
X192857552Y-97581501D01*
X192857552Y-97581501D02*
X193769719Y-98493669D01*
X193769850Y-98493456D02*
G75*
G03*
X194759669Y-97503719I2572150J-1582544D01*
G01*
%TO.C,Q5*%
X149547669Y-97503719D02*
X148635501Y-96591552D01*
X148635501Y-96591552D02*
X147645552Y-97581501D01*
X147645552Y-97581501D02*
X148557719Y-98493669D01*
X148557850Y-98493456D02*
G75*
G03*
X149547669Y-97503719I2572150J-1582544D01*
G01*
%TO.C,R1*%
X105132000Y-105886000D02*
X104802000Y-105886000D01*
X104802000Y-105886000D02*
X104802000Y-99346000D01*
X104802000Y-99346000D02*
X105132000Y-99346000D01*
X107212000Y-105886000D02*
X107542000Y-105886000D01*
X107542000Y-105886000D02*
X107542000Y-99346000D01*
X107542000Y-99346000D02*
X107212000Y-99346000D01*
%TO.C,R2*%
X116554000Y-100608000D02*
X116554000Y-100938000D01*
X116554000Y-100938000D02*
X110014000Y-100938000D01*
X110014000Y-100938000D02*
X110014000Y-100608000D01*
X116554000Y-98528000D02*
X116554000Y-98198000D01*
X116554000Y-98198000D02*
X110014000Y-98198000D01*
X110014000Y-98198000D02*
X110014000Y-98528000D01*
%TO.C,R4*%
X117888000Y-79478000D02*
X117888000Y-79148000D01*
X117888000Y-79148000D02*
X124428000Y-79148000D01*
X124428000Y-79148000D02*
X124428000Y-79478000D01*
X117888000Y-81558000D02*
X117888000Y-81888000D01*
X117888000Y-81888000D02*
X124428000Y-81888000D01*
X124428000Y-81888000D02*
X124428000Y-81558000D01*
%TO.C,R5*%
X105950000Y-74906000D02*
X105950000Y-74576000D01*
X105950000Y-74576000D02*
X112490000Y-74576000D01*
X112490000Y-74576000D02*
X112490000Y-74906000D01*
X105950000Y-76986000D02*
X105950000Y-77316000D01*
X105950000Y-77316000D02*
X112490000Y-77316000D01*
X112490000Y-77316000D02*
X112490000Y-76986000D01*
%TO.C,R6*%
X145510000Y-102894000D02*
X145510000Y-103224000D01*
X145510000Y-103224000D02*
X138970000Y-103224000D01*
X138970000Y-103224000D02*
X138970000Y-102894000D01*
X145510000Y-100814000D02*
X145510000Y-100484000D01*
X145510000Y-100484000D02*
X138970000Y-100484000D01*
X138970000Y-100484000D02*
X138970000Y-100814000D01*
%TO.C,R7*%
X112490000Y-73430000D02*
X112490000Y-73760000D01*
X112490000Y-73760000D02*
X105950000Y-73760000D01*
X105950000Y-73760000D02*
X105950000Y-73430000D01*
X112490000Y-71350000D02*
X112490000Y-71020000D01*
X112490000Y-71020000D02*
X105950000Y-71020000D01*
X105950000Y-71020000D02*
X105950000Y-71350000D01*
%TO.C,R10*%
X146590000Y-74906000D02*
X146590000Y-74576000D01*
X146590000Y-74576000D02*
X153130000Y-74576000D01*
X153130000Y-74576000D02*
X153130000Y-74906000D01*
X146590000Y-76986000D02*
X146590000Y-77316000D01*
X146590000Y-77316000D02*
X153130000Y-77316000D01*
X153130000Y-77316000D02*
X153130000Y-76986000D01*
%TO.C,R12*%
X156242000Y-100560000D02*
X156242000Y-100230000D01*
X156242000Y-100230000D02*
X162782000Y-100230000D01*
X162782000Y-100230000D02*
X162782000Y-100560000D01*
X156242000Y-102640000D02*
X156242000Y-102970000D01*
X156242000Y-102970000D02*
X162782000Y-102970000D01*
X162782000Y-102970000D02*
X162782000Y-102640000D01*
%TO.C,R13*%
X173006000Y-79732000D02*
X173006000Y-79402000D01*
X173006000Y-79402000D02*
X179546000Y-79402000D01*
X179546000Y-79402000D02*
X179546000Y-79732000D01*
X173006000Y-81812000D02*
X173006000Y-82142000D01*
X173006000Y-82142000D02*
X179546000Y-82142000D01*
X179546000Y-82142000D02*
X179546000Y-81812000D01*
%TO.C,R14*%
X126270000Y-74906000D02*
X126270000Y-74576000D01*
X126270000Y-74576000D02*
X132810000Y-74576000D01*
X132810000Y-74576000D02*
X132810000Y-74906000D01*
X126270000Y-76986000D02*
X126270000Y-77316000D01*
X126270000Y-77316000D02*
X132810000Y-77316000D01*
X132810000Y-77316000D02*
X132810000Y-76986000D01*
%TO.C,R15*%
X182602000Y-91916000D02*
X182272000Y-91916000D01*
X182272000Y-91916000D02*
X182272000Y-85376000D01*
X182272000Y-85376000D02*
X182602000Y-85376000D01*
X184682000Y-91916000D02*
X185012000Y-91916000D01*
X185012000Y-91916000D02*
X185012000Y-85376000D01*
X185012000Y-85376000D02*
X184682000Y-85376000D01*
%TO.C,R16*%
X132810000Y-73430000D02*
X132810000Y-73760000D01*
X132810000Y-73760000D02*
X126270000Y-73760000D01*
X126270000Y-73760000D02*
X126270000Y-73430000D01*
X132810000Y-71350000D02*
X132810000Y-71020000D01*
X132810000Y-71020000D02*
X126270000Y-71020000D01*
X126270000Y-71020000D02*
X126270000Y-71350000D01*
%TO.C,R18*%
X165584000Y-100298000D02*
X165254000Y-100298000D01*
X165254000Y-100298000D02*
X165254000Y-93758000D01*
X165254000Y-93758000D02*
X165584000Y-93758000D01*
X167664000Y-100298000D02*
X167994000Y-100298000D01*
X167994000Y-100298000D02*
X167994000Y-93758000D01*
X167994000Y-93758000D02*
X167664000Y-93758000D01*
%TO.C,R19*%
X137636000Y-99592000D02*
X137636000Y-99922000D01*
X137636000Y-99922000D02*
X131096000Y-99922000D01*
X131096000Y-99922000D02*
X131096000Y-99592000D01*
X137636000Y-97512000D02*
X137636000Y-97182000D01*
X137636000Y-97182000D02*
X131096000Y-97182000D01*
X131096000Y-97182000D02*
X131096000Y-97512000D01*
%TO.C,R20*%
X195294000Y-106196000D02*
X195294000Y-106526000D01*
X195294000Y-106526000D02*
X188754000Y-106526000D01*
X188754000Y-106526000D02*
X188754000Y-106196000D01*
X195294000Y-104116000D02*
X195294000Y-103786000D01*
X195294000Y-103786000D02*
X188754000Y-103786000D01*
X188754000Y-103786000D02*
X188754000Y-104116000D01*
%TO.C,RV1*%
X119067000Y-97038000D02*
X128837000Y-97038000D01*
X119067000Y-102108000D02*
X128837000Y-102108000D01*
X119067000Y-97038000D02*
X119067000Y-102108000D01*
X128837000Y-97038000D02*
X128837000Y-102108000D01*
%TO.C,RV2*%
X181043000Y-97038000D02*
X190813000Y-97038000D01*
X181043000Y-102108000D02*
X190813000Y-102108000D01*
X181043000Y-97038000D02*
X181043000Y-102108000D01*
X190813000Y-97038000D02*
X190813000Y-102108000D01*
%TO.C,TP2*%
X128594000Y-103702000D02*
X130994000Y-103702000D01*
X130994000Y-103702000D02*
X130994000Y-106102000D01*
X130994000Y-106102000D02*
X128594000Y-106102000D01*
X128594000Y-106102000D02*
X128594000Y-103702000D01*
%TO.C,TP4*%
X153232000Y-79572000D02*
X155632000Y-79572000D01*
X155632000Y-79572000D02*
X155632000Y-81972000D01*
X155632000Y-81972000D02*
X153232000Y-81972000D01*
X153232000Y-81972000D02*
X153232000Y-79572000D01*
%TO.C,TP5*%
X175838000Y-71190000D02*
X178238000Y-71190000D01*
X178238000Y-71190000D02*
X178238000Y-73590000D01*
X178238000Y-73590000D02*
X175838000Y-73590000D01*
X175838000Y-73590000D02*
X175838000Y-71190000D01*
%TO.C,TP6*%
X204032000Y-79572000D02*
X206432000Y-79572000D01*
X206432000Y-79572000D02*
X206432000Y-81972000D01*
X206432000Y-81972000D02*
X204032000Y-81972000D01*
X204032000Y-81972000D02*
X204032000Y-79572000D01*
%TO.C,TP7*%
X155518000Y-71190000D02*
X157918000Y-71190000D01*
X157918000Y-71190000D02*
X157918000Y-73590000D01*
X157918000Y-73590000D02*
X155518000Y-73590000D01*
X155518000Y-73590000D02*
X155518000Y-71190000D01*
%TO.C,TP9*%
X135198000Y-71190000D02*
X137598000Y-71190000D01*
X137598000Y-71190000D02*
X137598000Y-73590000D01*
X137598000Y-73590000D02*
X135198000Y-73590000D01*
X135198000Y-73590000D02*
X135198000Y-71190000D01*
%TO.C,TP10*%
X159582000Y-96336000D02*
X161982000Y-96336000D01*
X161982000Y-96336000D02*
X161982000Y-98736000D01*
X161982000Y-98736000D02*
X159582000Y-98736000D01*
X159582000Y-98736000D02*
X159582000Y-96336000D01*
%TO.C,U1*%
X119066000Y-89138000D02*
X119066000Y-90388000D01*
X119066000Y-90388000D02*
X129346000Y-90388000D01*
X129346000Y-90388000D02*
X129346000Y-85888000D01*
X129346000Y-85888000D02*
X119066000Y-85888000D01*
X119066000Y-85888000D02*
X119066000Y-87138000D01*
X119006000Y-93388000D02*
X129406000Y-93388000D01*
X129406000Y-93388000D02*
X129406000Y-82888000D01*
X129406000Y-82888000D02*
X119006000Y-82888000D01*
X119006000Y-82888000D02*
X119006000Y-93388000D01*
X119066000Y-87138000D02*
G75*
G02*
X119066000Y-89138000I0J-1000000D01*
G01*
%TO.C,U2*%
X170628000Y-89138000D02*
X170628000Y-90388000D01*
X170628000Y-90388000D02*
X180908000Y-90388000D01*
X180908000Y-90388000D02*
X180908000Y-85888000D01*
X180908000Y-85888000D02*
X170628000Y-85888000D01*
X170628000Y-85888000D02*
X170628000Y-87138000D01*
X170568000Y-93388000D02*
X180968000Y-93388000D01*
X180968000Y-93388000D02*
X180968000Y-82888000D01*
X180968000Y-82888000D02*
X170568000Y-82888000D01*
X170568000Y-82888000D02*
X170568000Y-93388000D01*
X170628000Y-87138000D02*
G75*
G02*
X170628000Y-89138000I0J-1000000D01*
G01*
%TO.C,C5*%
X147420000Y-109778000D02*
X147420000Y-117218000D01*
X144680000Y-109778000D02*
X144680000Y-117218000D01*
X147420000Y-109778000D02*
X144680000Y-109778000D01*
X147420000Y-117218000D02*
X144680000Y-117218000D01*
%TO.C,C2*%
X139490000Y-112480000D02*
G75*
G03*
X139490000Y-112480000I-5120000J0D01*
G01*
X139450000Y-112480000D02*
X129290000Y-112480000D01*
X139450000Y-112520000D02*
X129290000Y-112520000D01*
X139450000Y-112560000D02*
X129290000Y-112560000D01*
X139449000Y-112600000D02*
X129291000Y-112600000D01*
X139448000Y-112640000D02*
X129292000Y-112640000D01*
X139447000Y-112680000D02*
X129293000Y-112680000D01*
X139445000Y-112720000D02*
X129295000Y-112720000D01*
X139443000Y-112760000D02*
X129297000Y-112760000D01*
X139440000Y-112800000D02*
X129300000Y-112800000D01*
X139438000Y-112840000D02*
X129302000Y-112840000D01*
X139435000Y-112880000D02*
X129305000Y-112880000D01*
X139432000Y-112920000D02*
X129308000Y-112920000D01*
X139428000Y-112960000D02*
X129312000Y-112960000D01*
X139424000Y-113000000D02*
X129316000Y-113000000D01*
X139420000Y-113040000D02*
X129320000Y-113040000D01*
X139415000Y-113080000D02*
X129325000Y-113080000D01*
X139410000Y-113120000D02*
X129330000Y-113120000D01*
X139405000Y-113160000D02*
X129335000Y-113160000D01*
X139400000Y-113201000D02*
X129340000Y-113201000D01*
X139394000Y-113241000D02*
X129346000Y-113241000D01*
X139388000Y-113281000D02*
X129352000Y-113281000D01*
X139381000Y-113321000D02*
X129359000Y-113321000D01*
X139374000Y-113361000D02*
X129366000Y-113361000D01*
X139367000Y-113401000D02*
X129373000Y-113401000D01*
X139360000Y-113441000D02*
X129380000Y-113441000D01*
X139352000Y-113481000D02*
X129388000Y-113481000D01*
X139344000Y-113521000D02*
X129396000Y-113521000D01*
X139335000Y-113561000D02*
X129405000Y-113561000D01*
X139326000Y-113601000D02*
X129414000Y-113601000D01*
X139317000Y-113641000D02*
X129423000Y-113641000D01*
X139308000Y-113681000D02*
X129432000Y-113681000D01*
X139298000Y-113721000D02*
X129442000Y-113721000D01*
X139288000Y-113761000D02*
X135611000Y-113761000D01*
X133129000Y-113761000D02*
X129452000Y-113761000D01*
X139277000Y-113801000D02*
X135611000Y-113801000D01*
X133129000Y-113801000D02*
X129463000Y-113801000D01*
X139267000Y-113841000D02*
X135611000Y-113841000D01*
X133129000Y-113841000D02*
X129473000Y-113841000D01*
X139255000Y-113881000D02*
X135611000Y-113881000D01*
X133129000Y-113881000D02*
X129485000Y-113881000D01*
X139244000Y-113921000D02*
X135611000Y-113921000D01*
X133129000Y-113921000D02*
X129496000Y-113921000D01*
X139232000Y-113961000D02*
X135611000Y-113961000D01*
X133129000Y-113961000D02*
X129508000Y-113961000D01*
X139220000Y-114001000D02*
X135611000Y-114001000D01*
X133129000Y-114001000D02*
X129520000Y-114001000D01*
X139207000Y-114041000D02*
X135611000Y-114041000D01*
X133129000Y-114041000D02*
X129533000Y-114041000D01*
X139194000Y-114081000D02*
X135611000Y-114081000D01*
X133129000Y-114081000D02*
X129546000Y-114081000D01*
X139181000Y-114121000D02*
X135611000Y-114121000D01*
X133129000Y-114121000D02*
X129559000Y-114121000D01*
X139167000Y-114161000D02*
X135611000Y-114161000D01*
X133129000Y-114161000D02*
X129573000Y-114161000D01*
X139153000Y-114201000D02*
X135611000Y-114201000D01*
X133129000Y-114201000D02*
X129587000Y-114201000D01*
X139138000Y-114241000D02*
X135611000Y-114241000D01*
X133129000Y-114241000D02*
X129602000Y-114241000D01*
X139124000Y-114281000D02*
X135611000Y-114281000D01*
X133129000Y-114281000D02*
X129616000Y-114281000D01*
X139108000Y-114321000D02*
X135611000Y-114321000D01*
X133129000Y-114321000D02*
X129632000Y-114321000D01*
X139093000Y-114361000D02*
X135611000Y-114361000D01*
X133129000Y-114361000D02*
X129647000Y-114361000D01*
X139077000Y-114401000D02*
X135611000Y-114401000D01*
X133129000Y-114401000D02*
X129663000Y-114401000D01*
X139060000Y-114441000D02*
X135611000Y-114441000D01*
X133129000Y-114441000D02*
X129680000Y-114441000D01*
X139044000Y-114481000D02*
X135611000Y-114481000D01*
X133129000Y-114481000D02*
X129696000Y-114481000D01*
X139027000Y-114521000D02*
X135611000Y-114521000D01*
X133129000Y-114521000D02*
X129713000Y-114521000D01*
X139009000Y-114561000D02*
X135611000Y-114561000D01*
X133129000Y-114561000D02*
X129731000Y-114561000D01*
X138991000Y-114601000D02*
X135611000Y-114601000D01*
X133129000Y-114601000D02*
X129749000Y-114601000D01*
X138973000Y-114641000D02*
X135611000Y-114641000D01*
X133129000Y-114641000D02*
X129767000Y-114641000D01*
X138954000Y-114681000D02*
X135611000Y-114681000D01*
X133129000Y-114681000D02*
X129786000Y-114681000D01*
X138934000Y-114721000D02*
X135611000Y-114721000D01*
X133129000Y-114721000D02*
X129806000Y-114721000D01*
X138915000Y-114761000D02*
X135611000Y-114761000D01*
X133129000Y-114761000D02*
X129825000Y-114761000D01*
X138895000Y-114801000D02*
X135611000Y-114801000D01*
X133129000Y-114801000D02*
X129845000Y-114801000D01*
X138874000Y-114841000D02*
X135611000Y-114841000D01*
X133129000Y-114841000D02*
X129866000Y-114841000D01*
X138853000Y-114881000D02*
X135611000Y-114881000D01*
X133129000Y-114881000D02*
X129887000Y-114881000D01*
X138832000Y-114921000D02*
X135611000Y-114921000D01*
X133129000Y-114921000D02*
X129908000Y-114921000D01*
X138810000Y-114961000D02*
X135611000Y-114961000D01*
X133129000Y-114961000D02*
X129930000Y-114961000D01*
X138787000Y-115001000D02*
X135611000Y-115001000D01*
X133129000Y-115001000D02*
X129953000Y-115001000D01*
X138765000Y-115041000D02*
X135611000Y-115041000D01*
X133129000Y-115041000D02*
X129975000Y-115041000D01*
X138741000Y-115081000D02*
X135611000Y-115081000D01*
X133129000Y-115081000D02*
X129999000Y-115081000D01*
X138717000Y-115121000D02*
X135611000Y-115121000D01*
X133129000Y-115121000D02*
X130023000Y-115121000D01*
X138693000Y-115161000D02*
X135611000Y-115161000D01*
X133129000Y-115161000D02*
X130047000Y-115161000D01*
X138668000Y-115201000D02*
X135611000Y-115201000D01*
X133129000Y-115201000D02*
X130072000Y-115201000D01*
X138643000Y-115241000D02*
X135611000Y-115241000D01*
X133129000Y-115241000D02*
X130097000Y-115241000D01*
X138617000Y-115281000D02*
X135611000Y-115281000D01*
X133129000Y-115281000D02*
X130123000Y-115281000D01*
X138591000Y-115321000D02*
X135611000Y-115321000D01*
X133129000Y-115321000D02*
X130149000Y-115321000D01*
X138564000Y-115361000D02*
X135611000Y-115361000D01*
X133129000Y-115361000D02*
X130176000Y-115361000D01*
X138536000Y-115401000D02*
X135611000Y-115401000D01*
X133129000Y-115401000D02*
X130204000Y-115401000D01*
X138508000Y-115441000D02*
X135611000Y-115441000D01*
X133129000Y-115441000D02*
X130232000Y-115441000D01*
X138480000Y-115481000D02*
X135611000Y-115481000D01*
X133129000Y-115481000D02*
X130260000Y-115481000D01*
X138450000Y-115521000D02*
X135611000Y-115521000D01*
X133129000Y-115521000D02*
X130290000Y-115521000D01*
X138420000Y-115561000D02*
X135611000Y-115561000D01*
X133129000Y-115561000D02*
X130320000Y-115561000D01*
X138390000Y-115601000D02*
X135611000Y-115601000D01*
X133129000Y-115601000D02*
X130350000Y-115601000D01*
X138359000Y-115641000D02*
X135611000Y-115641000D01*
X133129000Y-115641000D02*
X130381000Y-115641000D01*
X138327000Y-115681000D02*
X135611000Y-115681000D01*
X133129000Y-115681000D02*
X130413000Y-115681000D01*
X138295000Y-115721000D02*
X135611000Y-115721000D01*
X133129000Y-115721000D02*
X130445000Y-115721000D01*
X138262000Y-115761000D02*
X135611000Y-115761000D01*
X133129000Y-115761000D02*
X130478000Y-115761000D01*
X138228000Y-115801000D02*
X135611000Y-115801000D01*
X133129000Y-115801000D02*
X130512000Y-115801000D01*
X138194000Y-115841000D02*
X135611000Y-115841000D01*
X133129000Y-115841000D02*
X130546000Y-115841000D01*
X138159000Y-115881000D02*
X135611000Y-115881000D01*
X133129000Y-115881000D02*
X130581000Y-115881000D01*
X138123000Y-115921000D02*
X135611000Y-115921000D01*
X133129000Y-115921000D02*
X130617000Y-115921000D01*
X138086000Y-115961000D02*
X135611000Y-115961000D01*
X133129000Y-115961000D02*
X130654000Y-115961000D01*
X138049000Y-116001000D02*
X135611000Y-116001000D01*
X133129000Y-116001000D02*
X130691000Y-116001000D01*
X138010000Y-116041000D02*
X135611000Y-116041000D01*
X133129000Y-116041000D02*
X130730000Y-116041000D01*
X137971000Y-116081000D02*
X135611000Y-116081000D01*
X133129000Y-116081000D02*
X130769000Y-116081000D01*
X137931000Y-116121000D02*
X135611000Y-116121000D01*
X133129000Y-116121000D02*
X130809000Y-116121000D01*
X137890000Y-116161000D02*
X135611000Y-116161000D01*
X133129000Y-116161000D02*
X130850000Y-116161000D01*
X137848000Y-116201000D02*
X135611000Y-116201000D01*
X133129000Y-116201000D02*
X130892000Y-116201000D01*
X137806000Y-116241000D02*
X130934000Y-116241000D01*
X137762000Y-116281000D02*
X130978000Y-116281000D01*
X137717000Y-116321000D02*
X131023000Y-116321000D01*
X137671000Y-116361000D02*
X131069000Y-116361000D01*
X137624000Y-116401000D02*
X131116000Y-116401000D01*
X137576000Y-116441000D02*
X131164000Y-116441000D01*
X137526000Y-116481000D02*
X131214000Y-116481000D01*
X137476000Y-116521000D02*
X131264000Y-116521000D01*
X137424000Y-116561000D02*
X131316000Y-116561000D01*
X137370000Y-116601000D02*
X131370000Y-116601000D01*
X137315000Y-116641000D02*
X131425000Y-116641000D01*
X137259000Y-116681000D02*
X131481000Y-116681000D01*
X137200000Y-116721000D02*
X131540000Y-116721000D01*
X137140000Y-116761000D02*
X131600000Y-116761000D01*
X137079000Y-116801000D02*
X131661000Y-116801000D01*
X137015000Y-116841000D02*
X131725000Y-116841000D01*
X136949000Y-116881000D02*
X131791000Y-116881000D01*
X136880000Y-116921000D02*
X131860000Y-116921000D01*
X136809000Y-116961000D02*
X131931000Y-116961000D01*
X136735000Y-117001000D02*
X132005000Y-117001000D01*
X136659000Y-117041000D02*
X132081000Y-117041000D01*
X136579000Y-117081000D02*
X132161000Y-117081000D01*
X136495000Y-117121000D02*
X132245000Y-117121000D01*
X136407000Y-117161000D02*
X132333000Y-117161000D01*
X136314000Y-117201000D02*
X132426000Y-117201000D01*
X136216000Y-117241000D02*
X132524000Y-117241000D01*
X136112000Y-117281000D02*
X132628000Y-117281000D01*
X136000000Y-117321000D02*
X132740000Y-117321000D01*
X135880000Y-117361000D02*
X132860000Y-117361000D01*
X135748000Y-117401000D02*
X132992000Y-117401000D01*
X135600000Y-117441000D02*
X133140000Y-117441000D01*
X135432000Y-117481000D02*
X133308000Y-117481000D01*
X135232000Y-117521000D02*
X133508000Y-117521000D01*
X134969000Y-117561000D02*
X133771000Y-117561000D01*
X137245000Y-107000354D02*
X137245000Y-108000354D01*
X137745000Y-107500354D02*
X136745000Y-107500354D01*
%TO.C,C6*%
X158990000Y-112480000D02*
G75*
G03*
X158990000Y-112480000I-5120000J0D01*
G01*
X158950000Y-112480000D02*
X148790000Y-112480000D01*
X158950000Y-112520000D02*
X148790000Y-112520000D01*
X158950000Y-112560000D02*
X148790000Y-112560000D01*
X158949000Y-112600000D02*
X148791000Y-112600000D01*
X158948000Y-112640000D02*
X148792000Y-112640000D01*
X158947000Y-112680000D02*
X148793000Y-112680000D01*
X158945000Y-112720000D02*
X148795000Y-112720000D01*
X158943000Y-112760000D02*
X148797000Y-112760000D01*
X158940000Y-112800000D02*
X148800000Y-112800000D01*
X158938000Y-112840000D02*
X148802000Y-112840000D01*
X158935000Y-112880000D02*
X148805000Y-112880000D01*
X158932000Y-112920000D02*
X148808000Y-112920000D01*
X158928000Y-112960000D02*
X148812000Y-112960000D01*
X158924000Y-113000000D02*
X148816000Y-113000000D01*
X158920000Y-113040000D02*
X148820000Y-113040000D01*
X158915000Y-113080000D02*
X148825000Y-113080000D01*
X158910000Y-113120000D02*
X148830000Y-113120000D01*
X158905000Y-113160000D02*
X148835000Y-113160000D01*
X158900000Y-113201000D02*
X148840000Y-113201000D01*
X158894000Y-113241000D02*
X148846000Y-113241000D01*
X158888000Y-113281000D02*
X148852000Y-113281000D01*
X158881000Y-113321000D02*
X148859000Y-113321000D01*
X158874000Y-113361000D02*
X148866000Y-113361000D01*
X158867000Y-113401000D02*
X148873000Y-113401000D01*
X158860000Y-113441000D02*
X148880000Y-113441000D01*
X158852000Y-113481000D02*
X148888000Y-113481000D01*
X158844000Y-113521000D02*
X148896000Y-113521000D01*
X158835000Y-113561000D02*
X148905000Y-113561000D01*
X158826000Y-113601000D02*
X148914000Y-113601000D01*
X158817000Y-113641000D02*
X148923000Y-113641000D01*
X158808000Y-113681000D02*
X148932000Y-113681000D01*
X158798000Y-113721000D02*
X148942000Y-113721000D01*
X158788000Y-113761000D02*
X155111000Y-113761000D01*
X152629000Y-113761000D02*
X148952000Y-113761000D01*
X158777000Y-113801000D02*
X155111000Y-113801000D01*
X152629000Y-113801000D02*
X148963000Y-113801000D01*
X158767000Y-113841000D02*
X155111000Y-113841000D01*
X152629000Y-113841000D02*
X148973000Y-113841000D01*
X158755000Y-113881000D02*
X155111000Y-113881000D01*
X152629000Y-113881000D02*
X148985000Y-113881000D01*
X158744000Y-113921000D02*
X155111000Y-113921000D01*
X152629000Y-113921000D02*
X148996000Y-113921000D01*
X158732000Y-113961000D02*
X155111000Y-113961000D01*
X152629000Y-113961000D02*
X149008000Y-113961000D01*
X158720000Y-114001000D02*
X155111000Y-114001000D01*
X152629000Y-114001000D02*
X149020000Y-114001000D01*
X158707000Y-114041000D02*
X155111000Y-114041000D01*
X152629000Y-114041000D02*
X149033000Y-114041000D01*
X158694000Y-114081000D02*
X155111000Y-114081000D01*
X152629000Y-114081000D02*
X149046000Y-114081000D01*
X158681000Y-114121000D02*
X155111000Y-114121000D01*
X152629000Y-114121000D02*
X149059000Y-114121000D01*
X158667000Y-114161000D02*
X155111000Y-114161000D01*
X152629000Y-114161000D02*
X149073000Y-114161000D01*
X158653000Y-114201000D02*
X155111000Y-114201000D01*
X152629000Y-114201000D02*
X149087000Y-114201000D01*
X158638000Y-114241000D02*
X155111000Y-114241000D01*
X152629000Y-114241000D02*
X149102000Y-114241000D01*
X158624000Y-114281000D02*
X155111000Y-114281000D01*
X152629000Y-114281000D02*
X149116000Y-114281000D01*
X158608000Y-114321000D02*
X155111000Y-114321000D01*
X152629000Y-114321000D02*
X149132000Y-114321000D01*
X158593000Y-114361000D02*
X155111000Y-114361000D01*
X152629000Y-114361000D02*
X149147000Y-114361000D01*
X158577000Y-114401000D02*
X155111000Y-114401000D01*
X152629000Y-114401000D02*
X149163000Y-114401000D01*
X158560000Y-114441000D02*
X155111000Y-114441000D01*
X152629000Y-114441000D02*
X149180000Y-114441000D01*
X158544000Y-114481000D02*
X155111000Y-114481000D01*
X152629000Y-114481000D02*
X149196000Y-114481000D01*
X158527000Y-114521000D02*
X155111000Y-114521000D01*
X152629000Y-114521000D02*
X149213000Y-114521000D01*
X158509000Y-114561000D02*
X155111000Y-114561000D01*
X152629000Y-114561000D02*
X149231000Y-114561000D01*
X158491000Y-114601000D02*
X155111000Y-114601000D01*
X152629000Y-114601000D02*
X149249000Y-114601000D01*
X158473000Y-114641000D02*
X155111000Y-114641000D01*
X152629000Y-114641000D02*
X149267000Y-114641000D01*
X158454000Y-114681000D02*
X155111000Y-114681000D01*
X152629000Y-114681000D02*
X149286000Y-114681000D01*
X158434000Y-114721000D02*
X155111000Y-114721000D01*
X152629000Y-114721000D02*
X149306000Y-114721000D01*
X158415000Y-114761000D02*
X155111000Y-114761000D01*
X152629000Y-114761000D02*
X149325000Y-114761000D01*
X158395000Y-114801000D02*
X155111000Y-114801000D01*
X152629000Y-114801000D02*
X149345000Y-114801000D01*
X158374000Y-114841000D02*
X155111000Y-114841000D01*
X152629000Y-114841000D02*
X149366000Y-114841000D01*
X158353000Y-114881000D02*
X155111000Y-114881000D01*
X152629000Y-114881000D02*
X149387000Y-114881000D01*
X158332000Y-114921000D02*
X155111000Y-114921000D01*
X152629000Y-114921000D02*
X149408000Y-114921000D01*
X158310000Y-114961000D02*
X155111000Y-114961000D01*
X152629000Y-114961000D02*
X149430000Y-114961000D01*
X158287000Y-115001000D02*
X155111000Y-115001000D01*
X152629000Y-115001000D02*
X149453000Y-115001000D01*
X158265000Y-115041000D02*
X155111000Y-115041000D01*
X152629000Y-115041000D02*
X149475000Y-115041000D01*
X158241000Y-115081000D02*
X155111000Y-115081000D01*
X152629000Y-115081000D02*
X149499000Y-115081000D01*
X158217000Y-115121000D02*
X155111000Y-115121000D01*
X152629000Y-115121000D02*
X149523000Y-115121000D01*
X158193000Y-115161000D02*
X155111000Y-115161000D01*
X152629000Y-115161000D02*
X149547000Y-115161000D01*
X158168000Y-115201000D02*
X155111000Y-115201000D01*
X152629000Y-115201000D02*
X149572000Y-115201000D01*
X158143000Y-115241000D02*
X155111000Y-115241000D01*
X152629000Y-115241000D02*
X149597000Y-115241000D01*
X158117000Y-115281000D02*
X155111000Y-115281000D01*
X152629000Y-115281000D02*
X149623000Y-115281000D01*
X158091000Y-115321000D02*
X155111000Y-115321000D01*
X152629000Y-115321000D02*
X149649000Y-115321000D01*
X158064000Y-115361000D02*
X155111000Y-115361000D01*
X152629000Y-115361000D02*
X149676000Y-115361000D01*
X158036000Y-115401000D02*
X155111000Y-115401000D01*
X152629000Y-115401000D02*
X149704000Y-115401000D01*
X158008000Y-115441000D02*
X155111000Y-115441000D01*
X152629000Y-115441000D02*
X149732000Y-115441000D01*
X157980000Y-115481000D02*
X155111000Y-115481000D01*
X152629000Y-115481000D02*
X149760000Y-115481000D01*
X157950000Y-115521000D02*
X155111000Y-115521000D01*
X152629000Y-115521000D02*
X149790000Y-115521000D01*
X157920000Y-115561000D02*
X155111000Y-115561000D01*
X152629000Y-115561000D02*
X149820000Y-115561000D01*
X157890000Y-115601000D02*
X155111000Y-115601000D01*
X152629000Y-115601000D02*
X149850000Y-115601000D01*
X157859000Y-115641000D02*
X155111000Y-115641000D01*
X152629000Y-115641000D02*
X149881000Y-115641000D01*
X157827000Y-115681000D02*
X155111000Y-115681000D01*
X152629000Y-115681000D02*
X149913000Y-115681000D01*
X157795000Y-115721000D02*
X155111000Y-115721000D01*
X152629000Y-115721000D02*
X149945000Y-115721000D01*
X157762000Y-115761000D02*
X155111000Y-115761000D01*
X152629000Y-115761000D02*
X149978000Y-115761000D01*
X157728000Y-115801000D02*
X155111000Y-115801000D01*
X152629000Y-115801000D02*
X150012000Y-115801000D01*
X157694000Y-115841000D02*
X155111000Y-115841000D01*
X152629000Y-115841000D02*
X150046000Y-115841000D01*
X157659000Y-115881000D02*
X155111000Y-115881000D01*
X152629000Y-115881000D02*
X150081000Y-115881000D01*
X157623000Y-115921000D02*
X155111000Y-115921000D01*
X152629000Y-115921000D02*
X150117000Y-115921000D01*
X157586000Y-115961000D02*
X155111000Y-115961000D01*
X152629000Y-115961000D02*
X150154000Y-115961000D01*
X157549000Y-116001000D02*
X155111000Y-116001000D01*
X152629000Y-116001000D02*
X150191000Y-116001000D01*
X157510000Y-116041000D02*
X155111000Y-116041000D01*
X152629000Y-116041000D02*
X150230000Y-116041000D01*
X157471000Y-116081000D02*
X155111000Y-116081000D01*
X152629000Y-116081000D02*
X150269000Y-116081000D01*
X157431000Y-116121000D02*
X155111000Y-116121000D01*
X152629000Y-116121000D02*
X150309000Y-116121000D01*
X157390000Y-116161000D02*
X155111000Y-116161000D01*
X152629000Y-116161000D02*
X150350000Y-116161000D01*
X157348000Y-116201000D02*
X155111000Y-116201000D01*
X152629000Y-116201000D02*
X150392000Y-116201000D01*
X157306000Y-116241000D02*
X150434000Y-116241000D01*
X157262000Y-116281000D02*
X150478000Y-116281000D01*
X157217000Y-116321000D02*
X150523000Y-116321000D01*
X157171000Y-116361000D02*
X150569000Y-116361000D01*
X157124000Y-116401000D02*
X150616000Y-116401000D01*
X157076000Y-116441000D02*
X150664000Y-116441000D01*
X157026000Y-116481000D02*
X150714000Y-116481000D01*
X156976000Y-116521000D02*
X150764000Y-116521000D01*
X156924000Y-116561000D02*
X150816000Y-116561000D01*
X156870000Y-116601000D02*
X150870000Y-116601000D01*
X156815000Y-116641000D02*
X150925000Y-116641000D01*
X156759000Y-116681000D02*
X150981000Y-116681000D01*
X156700000Y-116721000D02*
X151040000Y-116721000D01*
X156640000Y-116761000D02*
X151100000Y-116761000D01*
X156579000Y-116801000D02*
X151161000Y-116801000D01*
X156515000Y-116841000D02*
X151225000Y-116841000D01*
X156449000Y-116881000D02*
X151291000Y-116881000D01*
X156380000Y-116921000D02*
X151360000Y-116921000D01*
X156309000Y-116961000D02*
X151431000Y-116961000D01*
X156235000Y-117001000D02*
X151505000Y-117001000D01*
X156159000Y-117041000D02*
X151581000Y-117041000D01*
X156079000Y-117081000D02*
X151661000Y-117081000D01*
X155995000Y-117121000D02*
X151745000Y-117121000D01*
X155907000Y-117161000D02*
X151833000Y-117161000D01*
X155814000Y-117201000D02*
X151926000Y-117201000D01*
X155716000Y-117241000D02*
X152024000Y-117241000D01*
X155612000Y-117281000D02*
X152128000Y-117281000D01*
X155500000Y-117321000D02*
X152240000Y-117321000D01*
X155380000Y-117361000D02*
X152360000Y-117361000D01*
X155248000Y-117401000D02*
X152492000Y-117401000D01*
X155100000Y-117441000D02*
X152640000Y-117441000D01*
X154932000Y-117481000D02*
X152808000Y-117481000D01*
X154732000Y-117521000D02*
X153008000Y-117521000D01*
X154469000Y-117561000D02*
X153271000Y-117561000D01*
X156745000Y-107000354D02*
X156745000Y-108000354D01*
X157245000Y-107500354D02*
X156245000Y-107500354D01*
%TO.C,C8*%
X209490000Y-112480000D02*
G75*
G03*
X209490000Y-112480000I-5120000J0D01*
G01*
X209450000Y-112480000D02*
X199290000Y-112480000D01*
X209450000Y-112520000D02*
X199290000Y-112520000D01*
X209450000Y-112560000D02*
X199290000Y-112560000D01*
X209449000Y-112600000D02*
X199291000Y-112600000D01*
X209448000Y-112640000D02*
X199292000Y-112640000D01*
X209447000Y-112680000D02*
X199293000Y-112680000D01*
X209445000Y-112720000D02*
X199295000Y-112720000D01*
X209443000Y-112760000D02*
X199297000Y-112760000D01*
X209440000Y-112800000D02*
X199300000Y-112800000D01*
X209438000Y-112840000D02*
X199302000Y-112840000D01*
X209435000Y-112880000D02*
X199305000Y-112880000D01*
X209432000Y-112920000D02*
X199308000Y-112920000D01*
X209428000Y-112960000D02*
X199312000Y-112960000D01*
X209424000Y-113000000D02*
X199316000Y-113000000D01*
X209420000Y-113040000D02*
X199320000Y-113040000D01*
X209415000Y-113080000D02*
X199325000Y-113080000D01*
X209410000Y-113120000D02*
X199330000Y-113120000D01*
X209405000Y-113160000D02*
X199335000Y-113160000D01*
X209400000Y-113201000D02*
X199340000Y-113201000D01*
X209394000Y-113241000D02*
X199346000Y-113241000D01*
X209388000Y-113281000D02*
X199352000Y-113281000D01*
X209381000Y-113321000D02*
X199359000Y-113321000D01*
X209374000Y-113361000D02*
X199366000Y-113361000D01*
X209367000Y-113401000D02*
X199373000Y-113401000D01*
X209360000Y-113441000D02*
X199380000Y-113441000D01*
X209352000Y-113481000D02*
X199388000Y-113481000D01*
X209344000Y-113521000D02*
X199396000Y-113521000D01*
X209335000Y-113561000D02*
X199405000Y-113561000D01*
X209326000Y-113601000D02*
X199414000Y-113601000D01*
X209317000Y-113641000D02*
X199423000Y-113641000D01*
X209308000Y-113681000D02*
X199432000Y-113681000D01*
X209298000Y-113721000D02*
X199442000Y-113721000D01*
X209288000Y-113761000D02*
X205611000Y-113761000D01*
X203129000Y-113761000D02*
X199452000Y-113761000D01*
X209277000Y-113801000D02*
X205611000Y-113801000D01*
X203129000Y-113801000D02*
X199463000Y-113801000D01*
X209267000Y-113841000D02*
X205611000Y-113841000D01*
X203129000Y-113841000D02*
X199473000Y-113841000D01*
X209255000Y-113881000D02*
X205611000Y-113881000D01*
X203129000Y-113881000D02*
X199485000Y-113881000D01*
X209244000Y-113921000D02*
X205611000Y-113921000D01*
X203129000Y-113921000D02*
X199496000Y-113921000D01*
X209232000Y-113961000D02*
X205611000Y-113961000D01*
X203129000Y-113961000D02*
X199508000Y-113961000D01*
X209220000Y-114001000D02*
X205611000Y-114001000D01*
X203129000Y-114001000D02*
X199520000Y-114001000D01*
X209207000Y-114041000D02*
X205611000Y-114041000D01*
X203129000Y-114041000D02*
X199533000Y-114041000D01*
X209194000Y-114081000D02*
X205611000Y-114081000D01*
X203129000Y-114081000D02*
X199546000Y-114081000D01*
X209181000Y-114121000D02*
X205611000Y-114121000D01*
X203129000Y-114121000D02*
X199559000Y-114121000D01*
X209167000Y-114161000D02*
X205611000Y-114161000D01*
X203129000Y-114161000D02*
X199573000Y-114161000D01*
X209153000Y-114201000D02*
X205611000Y-114201000D01*
X203129000Y-114201000D02*
X199587000Y-114201000D01*
X209138000Y-114241000D02*
X205611000Y-114241000D01*
X203129000Y-114241000D02*
X199602000Y-114241000D01*
X209124000Y-114281000D02*
X205611000Y-114281000D01*
X203129000Y-114281000D02*
X199616000Y-114281000D01*
X209108000Y-114321000D02*
X205611000Y-114321000D01*
X203129000Y-114321000D02*
X199632000Y-114321000D01*
X209093000Y-114361000D02*
X205611000Y-114361000D01*
X203129000Y-114361000D02*
X199647000Y-114361000D01*
X209077000Y-114401000D02*
X205611000Y-114401000D01*
X203129000Y-114401000D02*
X199663000Y-114401000D01*
X209060000Y-114441000D02*
X205611000Y-114441000D01*
X203129000Y-114441000D02*
X199680000Y-114441000D01*
X209044000Y-114481000D02*
X205611000Y-114481000D01*
X203129000Y-114481000D02*
X199696000Y-114481000D01*
X209027000Y-114521000D02*
X205611000Y-114521000D01*
X203129000Y-114521000D02*
X199713000Y-114521000D01*
X209009000Y-114561000D02*
X205611000Y-114561000D01*
X203129000Y-114561000D02*
X199731000Y-114561000D01*
X208991000Y-114601000D02*
X205611000Y-114601000D01*
X203129000Y-114601000D02*
X199749000Y-114601000D01*
X208973000Y-114641000D02*
X205611000Y-114641000D01*
X203129000Y-114641000D02*
X199767000Y-114641000D01*
X208954000Y-114681000D02*
X205611000Y-114681000D01*
X203129000Y-114681000D02*
X199786000Y-114681000D01*
X208934000Y-114721000D02*
X205611000Y-114721000D01*
X203129000Y-114721000D02*
X199806000Y-114721000D01*
X208915000Y-114761000D02*
X205611000Y-114761000D01*
X203129000Y-114761000D02*
X199825000Y-114761000D01*
X208895000Y-114801000D02*
X205611000Y-114801000D01*
X203129000Y-114801000D02*
X199845000Y-114801000D01*
X208874000Y-114841000D02*
X205611000Y-114841000D01*
X203129000Y-114841000D02*
X199866000Y-114841000D01*
X208853000Y-114881000D02*
X205611000Y-114881000D01*
X203129000Y-114881000D02*
X199887000Y-114881000D01*
X208832000Y-114921000D02*
X205611000Y-114921000D01*
X203129000Y-114921000D02*
X199908000Y-114921000D01*
X208810000Y-114961000D02*
X205611000Y-114961000D01*
X203129000Y-114961000D02*
X199930000Y-114961000D01*
X208787000Y-115001000D02*
X205611000Y-115001000D01*
X203129000Y-115001000D02*
X199953000Y-115001000D01*
X208765000Y-115041000D02*
X205611000Y-115041000D01*
X203129000Y-115041000D02*
X199975000Y-115041000D01*
X208741000Y-115081000D02*
X205611000Y-115081000D01*
X203129000Y-115081000D02*
X199999000Y-115081000D01*
X208717000Y-115121000D02*
X205611000Y-115121000D01*
X203129000Y-115121000D02*
X200023000Y-115121000D01*
X208693000Y-115161000D02*
X205611000Y-115161000D01*
X203129000Y-115161000D02*
X200047000Y-115161000D01*
X208668000Y-115201000D02*
X205611000Y-115201000D01*
X203129000Y-115201000D02*
X200072000Y-115201000D01*
X208643000Y-115241000D02*
X205611000Y-115241000D01*
X203129000Y-115241000D02*
X200097000Y-115241000D01*
X208617000Y-115281000D02*
X205611000Y-115281000D01*
X203129000Y-115281000D02*
X200123000Y-115281000D01*
X208591000Y-115321000D02*
X205611000Y-115321000D01*
X203129000Y-115321000D02*
X200149000Y-115321000D01*
X208564000Y-115361000D02*
X205611000Y-115361000D01*
X203129000Y-115361000D02*
X200176000Y-115361000D01*
X208536000Y-115401000D02*
X205611000Y-115401000D01*
X203129000Y-115401000D02*
X200204000Y-115401000D01*
X208508000Y-115441000D02*
X205611000Y-115441000D01*
X203129000Y-115441000D02*
X200232000Y-115441000D01*
X208480000Y-115481000D02*
X205611000Y-115481000D01*
X203129000Y-115481000D02*
X200260000Y-115481000D01*
X208450000Y-115521000D02*
X205611000Y-115521000D01*
X203129000Y-115521000D02*
X200290000Y-115521000D01*
X208420000Y-115561000D02*
X205611000Y-115561000D01*
X203129000Y-115561000D02*
X200320000Y-115561000D01*
X208390000Y-115601000D02*
X205611000Y-115601000D01*
X203129000Y-115601000D02*
X200350000Y-115601000D01*
X208359000Y-115641000D02*
X205611000Y-115641000D01*
X203129000Y-115641000D02*
X200381000Y-115641000D01*
X208327000Y-115681000D02*
X205611000Y-115681000D01*
X203129000Y-115681000D02*
X200413000Y-115681000D01*
X208295000Y-115721000D02*
X205611000Y-115721000D01*
X203129000Y-115721000D02*
X200445000Y-115721000D01*
X208262000Y-115761000D02*
X205611000Y-115761000D01*
X203129000Y-115761000D02*
X200478000Y-115761000D01*
X208228000Y-115801000D02*
X205611000Y-115801000D01*
X203129000Y-115801000D02*
X200512000Y-115801000D01*
X208194000Y-115841000D02*
X205611000Y-115841000D01*
X203129000Y-115841000D02*
X200546000Y-115841000D01*
X208159000Y-115881000D02*
X205611000Y-115881000D01*
X203129000Y-115881000D02*
X200581000Y-115881000D01*
X208123000Y-115921000D02*
X205611000Y-115921000D01*
X203129000Y-115921000D02*
X200617000Y-115921000D01*
X208086000Y-115961000D02*
X205611000Y-115961000D01*
X203129000Y-115961000D02*
X200654000Y-115961000D01*
X208049000Y-116001000D02*
X205611000Y-116001000D01*
X203129000Y-116001000D02*
X200691000Y-116001000D01*
X208010000Y-116041000D02*
X205611000Y-116041000D01*
X203129000Y-116041000D02*
X200730000Y-116041000D01*
X207971000Y-116081000D02*
X205611000Y-116081000D01*
X203129000Y-116081000D02*
X200769000Y-116081000D01*
X207931000Y-116121000D02*
X205611000Y-116121000D01*
X203129000Y-116121000D02*
X200809000Y-116121000D01*
X207890000Y-116161000D02*
X205611000Y-116161000D01*
X203129000Y-116161000D02*
X200850000Y-116161000D01*
X207848000Y-116201000D02*
X205611000Y-116201000D01*
X203129000Y-116201000D02*
X200892000Y-116201000D01*
X207806000Y-116241000D02*
X200934000Y-116241000D01*
X207762000Y-116281000D02*
X200978000Y-116281000D01*
X207717000Y-116321000D02*
X201023000Y-116321000D01*
X207671000Y-116361000D02*
X201069000Y-116361000D01*
X207624000Y-116401000D02*
X201116000Y-116401000D01*
X207576000Y-116441000D02*
X201164000Y-116441000D01*
X207526000Y-116481000D02*
X201214000Y-116481000D01*
X207476000Y-116521000D02*
X201264000Y-116521000D01*
X207424000Y-116561000D02*
X201316000Y-116561000D01*
X207370000Y-116601000D02*
X201370000Y-116601000D01*
X207315000Y-116641000D02*
X201425000Y-116641000D01*
X207259000Y-116681000D02*
X201481000Y-116681000D01*
X207200000Y-116721000D02*
X201540000Y-116721000D01*
X207140000Y-116761000D02*
X201600000Y-116761000D01*
X207079000Y-116801000D02*
X201661000Y-116801000D01*
X207015000Y-116841000D02*
X201725000Y-116841000D01*
X206949000Y-116881000D02*
X201791000Y-116881000D01*
X206880000Y-116921000D02*
X201860000Y-116921000D01*
X206809000Y-116961000D02*
X201931000Y-116961000D01*
X206735000Y-117001000D02*
X202005000Y-117001000D01*
X206659000Y-117041000D02*
X202081000Y-117041000D01*
X206579000Y-117081000D02*
X202161000Y-117081000D01*
X206495000Y-117121000D02*
X202245000Y-117121000D01*
X206407000Y-117161000D02*
X202333000Y-117161000D01*
X206314000Y-117201000D02*
X202426000Y-117201000D01*
X206216000Y-117241000D02*
X202524000Y-117241000D01*
X206112000Y-117281000D02*
X202628000Y-117281000D01*
X206000000Y-117321000D02*
X202740000Y-117321000D01*
X205880000Y-117361000D02*
X202860000Y-117361000D01*
X205748000Y-117401000D02*
X202992000Y-117401000D01*
X205600000Y-117441000D02*
X203140000Y-117441000D01*
X205432000Y-117481000D02*
X203308000Y-117481000D01*
X205232000Y-117521000D02*
X203508000Y-117521000D01*
X204969000Y-117561000D02*
X203771000Y-117561000D01*
X207245000Y-107000354D02*
X207245000Y-108000354D01*
X207745000Y-107500354D02*
X206745000Y-107500354D01*
%TO.C,D9*%
X195794000Y-72390000D02*
G75*
G03*
X195794000Y-72390000I-2500000J0D01*
G01*
X191749000Y-74950000D02*
X194839000Y-74950000D01*
X193293538Y-69400000D02*
G75*
G02*
X194838830Y-74950000I462J-2990000D01*
G01*
X193294462Y-69400000D02*
G75*
G03*
X191749170Y-74950000I-462J-2990000D01*
G01*
%TO.C,D10*%
X203668000Y-72390000D02*
G75*
G03*
X203668000Y-72390000I-2500000J0D01*
G01*
X199623000Y-74950000D02*
X202713000Y-74950000D01*
X201167538Y-69400000D02*
G75*
G02*
X202712830Y-74950000I462J-2990000D01*
G01*
X201168462Y-69400000D02*
G75*
G03*
X199623170Y-74950000I-462J-2990000D01*
G01*
%TO.C,R21*%
X188746000Y-67596000D02*
X189076000Y-67596000D01*
X189076000Y-67596000D02*
X189076000Y-74136000D01*
X189076000Y-74136000D02*
X188746000Y-74136000D01*
X186666000Y-67596000D02*
X186336000Y-67596000D01*
X186336000Y-67596000D02*
X186336000Y-74136000D01*
X186336000Y-74136000D02*
X186666000Y-74136000D01*
%TO.C,R22*%
X207796000Y-67596000D02*
X208126000Y-67596000D01*
X208126000Y-67596000D02*
X208126000Y-74136000D01*
X208126000Y-74136000D02*
X207796000Y-74136000D01*
X205716000Y-67596000D02*
X205386000Y-67596000D01*
X205386000Y-67596000D02*
X205386000Y-74136000D01*
X205386000Y-74136000D02*
X205716000Y-74136000D01*
%TO.C,R17*%
D11*
X174617142Y-102644380D02*
X174283809Y-102168190D01*
X174045714Y-102644380D02*
X174045714Y-101644380D01*
X174426666Y-101644380D01*
X174521904Y-101692000D01*
X174569523Y-101739619D01*
X174617142Y-101834857D01*
X174617142Y-101977714D01*
X174569523Y-102072952D01*
X174521904Y-102120571D01*
X174426666Y-102168190D01*
X174045714Y-102168190D01*
X175569523Y-102644380D02*
X174998095Y-102644380D01*
X175283809Y-102644380D02*
X175283809Y-101644380D01*
X175188571Y-101787238D01*
X175093333Y-101882476D01*
X174998095Y-101930095D01*
X175902857Y-101644380D02*
X176569523Y-101644380D01*
X176140952Y-102644380D01*
%TO.C,Q1*%
X120808761Y-77005619D02*
X120713523Y-76958000D01*
X120618285Y-76862761D01*
X120475428Y-76719904D01*
X120380190Y-76672285D01*
X120284952Y-76672285D01*
X120332571Y-76910380D02*
X120237333Y-76862761D01*
X120142095Y-76767523D01*
X120094476Y-76577047D01*
X120094476Y-76243714D01*
X120142095Y-76053238D01*
X120237333Y-75958000D01*
X120332571Y-75910380D01*
X120523047Y-75910380D01*
X120618285Y-75958000D01*
X120713523Y-76053238D01*
X120761142Y-76243714D01*
X120761142Y-76577047D01*
X120713523Y-76767523D01*
X120618285Y-76862761D01*
X120523047Y-76910380D01*
X120332571Y-76910380D01*
X121713523Y-76910380D02*
X121142095Y-76910380D01*
X121427809Y-76910380D02*
X121427809Y-75910380D01*
X121332571Y-76053238D01*
X121237333Y-76148476D01*
X121142095Y-76196095D01*
%TO.C,Q3*%
X181768761Y-77005619D02*
X181673523Y-76958000D01*
X181578285Y-76862761D01*
X181435428Y-76719904D01*
X181340190Y-76672285D01*
X181244952Y-76672285D01*
X181292571Y-76910380D02*
X181197333Y-76862761D01*
X181102095Y-76767523D01*
X181054476Y-76577047D01*
X181054476Y-76243714D01*
X181102095Y-76053238D01*
X181197333Y-75958000D01*
X181292571Y-75910380D01*
X181483047Y-75910380D01*
X181578285Y-75958000D01*
X181673523Y-76053238D01*
X181721142Y-76243714D01*
X181721142Y-76577047D01*
X181673523Y-76767523D01*
X181578285Y-76862761D01*
X181483047Y-76910380D01*
X181292571Y-76910380D01*
X182054476Y-75910380D02*
X182673523Y-75910380D01*
X182340190Y-76291333D01*
X182483047Y-76291333D01*
X182578285Y-76338952D01*
X182625904Y-76386571D01*
X182673523Y-76481809D01*
X182673523Y-76719904D01*
X182625904Y-76815142D01*
X182578285Y-76862761D01*
X182483047Y-76910380D01*
X182197333Y-76910380D01*
X182102095Y-76862761D01*
X182054476Y-76815142D01*
%TO.C,Q4*%
X161448761Y-77005619D02*
X161353523Y-76958000D01*
X161258285Y-76862761D01*
X161115428Y-76719904D01*
X161020190Y-76672285D01*
X160924952Y-76672285D01*
X160972571Y-76910380D02*
X160877333Y-76862761D01*
X160782095Y-76767523D01*
X160734476Y-76577047D01*
X160734476Y-76243714D01*
X160782095Y-76053238D01*
X160877333Y-75958000D01*
X160972571Y-75910380D01*
X161163047Y-75910380D01*
X161258285Y-75958000D01*
X161353523Y-76053238D01*
X161401142Y-76243714D01*
X161401142Y-76577047D01*
X161353523Y-76767523D01*
X161258285Y-76862761D01*
X161163047Y-76910380D01*
X160972571Y-76910380D01*
X162258285Y-76243714D02*
X162258285Y-76910380D01*
X162020190Y-75862761D02*
X161782095Y-76577047D01*
X162401142Y-76577047D01*
%TO.C,Q6*%
X141128761Y-77005619D02*
X141033523Y-76958000D01*
X140938285Y-76862761D01*
X140795428Y-76719904D01*
X140700190Y-76672285D01*
X140604952Y-76672285D01*
X140652571Y-76910380D02*
X140557333Y-76862761D01*
X140462095Y-76767523D01*
X140414476Y-76577047D01*
X140414476Y-76243714D01*
X140462095Y-76053238D01*
X140557333Y-75958000D01*
X140652571Y-75910380D01*
X140843047Y-75910380D01*
X140938285Y-75958000D01*
X141033523Y-76053238D01*
X141081142Y-76243714D01*
X141081142Y-76577047D01*
X141033523Y-76767523D01*
X140938285Y-76862761D01*
X140843047Y-76910380D01*
X140652571Y-76910380D01*
X141938285Y-75910380D02*
X141747809Y-75910380D01*
X141652571Y-75958000D01*
X141604952Y-76005619D01*
X141509714Y-76148476D01*
X141462095Y-76338952D01*
X141462095Y-76719904D01*
X141509714Y-76815142D01*
X141557333Y-76862761D01*
X141652571Y-76910380D01*
X141843047Y-76910380D01*
X141938285Y-76862761D01*
X141985904Y-76815142D01*
X142033523Y-76719904D01*
X142033523Y-76481809D01*
X141985904Y-76386571D01*
X141938285Y-76338952D01*
X141843047Y-76291333D01*
X141652571Y-76291333D01*
X141557333Y-76338952D01*
X141509714Y-76386571D01*
X141462095Y-76481809D01*
%TO.C,REF\u002A\u002A*%
X203136666Y-98448380D02*
X202803333Y-97972190D01*
X202565238Y-98448380D02*
X202565238Y-97448380D01*
X202946190Y-97448380D01*
X203041428Y-97496000D01*
X203089047Y-97543619D01*
X203136666Y-97638857D01*
X203136666Y-97781714D01*
X203089047Y-97876952D01*
X203041428Y-97924571D01*
X202946190Y-97972190D01*
X202565238Y-97972190D01*
X203565238Y-97924571D02*
X203898571Y-97924571D01*
X204041428Y-98448380D02*
X203565238Y-98448380D01*
X203565238Y-97448380D01*
X204041428Y-97448380D01*
X204803333Y-97924571D02*
X204470000Y-97924571D01*
X204470000Y-98448380D02*
X204470000Y-97448380D01*
X204946190Y-97448380D01*
X205470000Y-97448380D02*
X205470000Y-97686476D01*
X205231904Y-97591238D02*
X205470000Y-97686476D01*
X205708095Y-97591238D01*
X205327142Y-97876952D02*
X205470000Y-97686476D01*
X205612857Y-97876952D01*
X206231904Y-97448380D02*
X206231904Y-97686476D01*
X205993809Y-97591238D02*
X206231904Y-97686476D01*
X206470000Y-97591238D01*
X206089047Y-97876952D02*
X206231904Y-97686476D01*
X206374761Y-97876952D01*
X200088666Y-62832380D02*
X199755333Y-62356190D01*
X199517238Y-62832380D02*
X199517238Y-61832380D01*
X199898190Y-61832380D01*
X199993428Y-61880000D01*
X200041047Y-61927619D01*
X200088666Y-62022857D01*
X200088666Y-62165714D01*
X200041047Y-62260952D01*
X199993428Y-62308571D01*
X199898190Y-62356190D01*
X199517238Y-62356190D01*
X200517238Y-62308571D02*
X200850571Y-62308571D01*
X200993428Y-62832380D02*
X200517238Y-62832380D01*
X200517238Y-61832380D01*
X200993428Y-61832380D01*
X201755333Y-62308571D02*
X201422000Y-62308571D01*
X201422000Y-62832380D02*
X201422000Y-61832380D01*
X201898190Y-61832380D01*
X202422000Y-61832380D02*
X202422000Y-62070476D01*
X202183904Y-61975238D02*
X202422000Y-62070476D01*
X202660095Y-61975238D01*
X202279142Y-62260952D02*
X202422000Y-62070476D01*
X202564857Y-62260952D01*
X203183904Y-61832380D02*
X203183904Y-62070476D01*
X202945809Y-61975238D02*
X203183904Y-62070476D01*
X203422000Y-61975238D01*
X203041047Y-62260952D02*
X203183904Y-62070476D01*
X203326761Y-62260952D01*
%TO.C,R3*%
X130162380Y-88812666D02*
X129686190Y-89146000D01*
X130162380Y-89384095D02*
X129162380Y-89384095D01*
X129162380Y-89003142D01*
X129210000Y-88907904D01*
X129257619Y-88860285D01*
X129352857Y-88812666D01*
X129495714Y-88812666D01*
X129590952Y-88860285D01*
X129638571Y-88907904D01*
X129686190Y-89003142D01*
X129686190Y-89384095D01*
X129162380Y-88479333D02*
X129162380Y-87860285D01*
X129543333Y-88193619D01*
X129543333Y-88050761D01*
X129590952Y-87955523D01*
X129638571Y-87907904D01*
X129733809Y-87860285D01*
X129971904Y-87860285D01*
X130067142Y-87907904D01*
X130114761Y-87955523D01*
X130162380Y-88050761D01*
X130162380Y-88336476D01*
X130114761Y-88431714D01*
X130067142Y-88479333D01*
%TO.C,K2*%
X196521904Y-82754380D02*
X196521904Y-81754380D01*
X197093333Y-82754380D02*
X196664761Y-82182952D01*
X197093333Y-81754380D02*
X196521904Y-82325809D01*
X197474285Y-81849619D02*
X197521904Y-81802000D01*
X197617142Y-81754380D01*
X197855238Y-81754380D01*
X197950476Y-81802000D01*
X197998095Y-81849619D01*
X198045714Y-81944857D01*
X198045714Y-82040095D01*
X197998095Y-82182952D01*
X197426666Y-82754380D01*
X198045714Y-82754380D01*
%TO.C,TP1*%
X105164095Y-92958380D02*
X105735523Y-92958380D01*
X105449809Y-93958380D02*
X105449809Y-92958380D01*
X106068857Y-93958380D02*
X106068857Y-92958380D01*
X106449809Y-92958380D01*
X106545047Y-93006000D01*
X106592666Y-93053619D01*
X106640285Y-93148857D01*
X106640285Y-93291714D01*
X106592666Y-93386952D01*
X106545047Y-93434571D01*
X106449809Y-93482190D01*
X106068857Y-93482190D01*
X107592666Y-93958380D02*
X107021238Y-93958380D01*
X107306952Y-93958380D02*
X107306952Y-92958380D01*
X107211714Y-93101238D01*
X107116476Y-93196476D01*
X107021238Y-93244095D01*
%TO.C,TP8*%
X182380095Y-78480380D02*
X182951523Y-78480380D01*
X182665809Y-79480380D02*
X182665809Y-78480380D01*
X183284857Y-79480380D02*
X183284857Y-78480380D01*
X183665809Y-78480380D01*
X183761047Y-78528000D01*
X183808666Y-78575619D01*
X183856285Y-78670857D01*
X183856285Y-78813714D01*
X183808666Y-78908952D01*
X183761047Y-78956571D01*
X183665809Y-79004190D01*
X183284857Y-79004190D01*
X184427714Y-78908952D02*
X184332476Y-78861333D01*
X184284857Y-78813714D01*
X184237238Y-78718476D01*
X184237238Y-78670857D01*
X184284857Y-78575619D01*
X184332476Y-78528000D01*
X184427714Y-78480380D01*
X184618190Y-78480380D01*
X184713428Y-78528000D01*
X184761047Y-78575619D01*
X184808666Y-78670857D01*
X184808666Y-78718476D01*
X184761047Y-78813714D01*
X184713428Y-78861333D01*
X184618190Y-78908952D01*
X184427714Y-78908952D01*
X184332476Y-78956571D01*
X184284857Y-79004190D01*
X184237238Y-79099428D01*
X184237238Y-79289904D01*
X184284857Y-79385142D01*
X184332476Y-79432761D01*
X184427714Y-79480380D01*
X184618190Y-79480380D01*
X184713428Y-79432761D01*
X184761047Y-79385142D01*
X184808666Y-79289904D01*
X184808666Y-79099428D01*
X184761047Y-79004190D01*
X184713428Y-78956571D01*
X184618190Y-78908952D01*
%TO.C,R11*%
X149217142Y-75212380D02*
X148883809Y-74736190D01*
X148645714Y-75212380D02*
X148645714Y-74212380D01*
X149026666Y-74212380D01*
X149121904Y-74260000D01*
X149169523Y-74307619D01*
X149217142Y-74402857D01*
X149217142Y-74545714D01*
X149169523Y-74640952D01*
X149121904Y-74688571D01*
X149026666Y-74736190D01*
X148645714Y-74736190D01*
X150169523Y-75212380D02*
X149598095Y-75212380D01*
X149883809Y-75212380D02*
X149883809Y-74212380D01*
X149788571Y-74355238D01*
X149693333Y-74450476D01*
X149598095Y-74498095D01*
X151121904Y-75212380D02*
X150550476Y-75212380D01*
X150836190Y-75212380D02*
X150836190Y-74212380D01*
X150740952Y-74355238D01*
X150645714Y-74450476D01*
X150550476Y-74498095D01*
%TO.C,R8*%
X170013333Y-74028380D02*
X169680000Y-73552190D01*
X169441904Y-74028380D02*
X169441904Y-73028380D01*
X169822857Y-73028380D01*
X169918095Y-73076000D01*
X169965714Y-73123619D01*
X170013333Y-73218857D01*
X170013333Y-73361714D01*
X169965714Y-73456952D01*
X169918095Y-73504571D01*
X169822857Y-73552190D01*
X169441904Y-73552190D01*
X170584761Y-73456952D02*
X170489523Y-73409333D01*
X170441904Y-73361714D01*
X170394285Y-73266476D01*
X170394285Y-73218857D01*
X170441904Y-73123619D01*
X170489523Y-73076000D01*
X170584761Y-73028380D01*
X170775238Y-73028380D01*
X170870476Y-73076000D01*
X170918095Y-73123619D01*
X170965714Y-73218857D01*
X170965714Y-73266476D01*
X170918095Y-73361714D01*
X170870476Y-73409333D01*
X170775238Y-73456952D01*
X170584761Y-73456952D01*
X170489523Y-73504571D01*
X170441904Y-73552190D01*
X170394285Y-73647428D01*
X170394285Y-73837904D01*
X170441904Y-73933142D01*
X170489523Y-73980761D01*
X170584761Y-74028380D01*
X170775238Y-74028380D01*
X170870476Y-73980761D01*
X170918095Y-73933142D01*
X170965714Y-73837904D01*
X170965714Y-73647428D01*
X170918095Y-73552190D01*
X170870476Y-73504571D01*
X170775238Y-73456952D01*
%TO.C,R9*%
X170013333Y-75212380D02*
X169680000Y-74736190D01*
X169441904Y-75212380D02*
X169441904Y-74212380D01*
X169822857Y-74212380D01*
X169918095Y-74260000D01*
X169965714Y-74307619D01*
X170013333Y-74402857D01*
X170013333Y-74545714D01*
X169965714Y-74640952D01*
X169918095Y-74688571D01*
X169822857Y-74736190D01*
X169441904Y-74736190D01*
X170489523Y-75212380D02*
X170680000Y-75212380D01*
X170775238Y-75164761D01*
X170822857Y-75117142D01*
X170918095Y-74974285D01*
X170965714Y-74783809D01*
X170965714Y-74402857D01*
X170918095Y-74307619D01*
X170870476Y-74260000D01*
X170775238Y-74212380D01*
X170584761Y-74212380D01*
X170489523Y-74260000D01*
X170441904Y-74307619D01*
X170394285Y-74402857D01*
X170394285Y-74640952D01*
X170441904Y-74736190D01*
X170489523Y-74783809D01*
X170584761Y-74831428D01*
X170775238Y-74831428D01*
X170870476Y-74783809D01*
X170918095Y-74736190D01*
X170965714Y-74640952D01*
%TO.C,TP3*%
X114816095Y-69844380D02*
X115387523Y-69844380D01*
X115101809Y-70844380D02*
X115101809Y-69844380D01*
X115720857Y-70844380D02*
X115720857Y-69844380D01*
X116101809Y-69844380D01*
X116197047Y-69892000D01*
X116244666Y-69939619D01*
X116292285Y-70034857D01*
X116292285Y-70177714D01*
X116244666Y-70272952D01*
X116197047Y-70320571D01*
X116101809Y-70368190D01*
X115720857Y-70368190D01*
X116625619Y-69844380D02*
X117244666Y-69844380D01*
X116911333Y-70225333D01*
X117054190Y-70225333D01*
X117149428Y-70272952D01*
X117197047Y-70320571D01*
X117244666Y-70415809D01*
X117244666Y-70653904D01*
X117197047Y-70749142D01*
X117149428Y-70796761D01*
X117054190Y-70844380D01*
X116768476Y-70844380D01*
X116673238Y-70796761D01*
X116625619Y-70749142D01*
%TO.C,REF\u002A\u002A*%
X163036666Y-111832380D02*
X162703333Y-111356190D01*
X162465238Y-111832380D02*
X162465238Y-110832380D01*
X162846190Y-110832380D01*
X162941428Y-110880000D01*
X162989047Y-110927619D01*
X163036666Y-111022857D01*
X163036666Y-111165714D01*
X162989047Y-111260952D01*
X162941428Y-111308571D01*
X162846190Y-111356190D01*
X162465238Y-111356190D01*
X163465238Y-111308571D02*
X163798571Y-111308571D01*
X163941428Y-111832380D02*
X163465238Y-111832380D01*
X163465238Y-110832380D01*
X163941428Y-110832380D01*
X164703333Y-111308571D02*
X164370000Y-111308571D01*
X164370000Y-111832380D02*
X164370000Y-110832380D01*
X164846190Y-110832380D01*
X165370000Y-110832380D02*
X165370000Y-111070476D01*
X165131904Y-110975238D02*
X165370000Y-111070476D01*
X165608095Y-110975238D01*
X165227142Y-111260952D02*
X165370000Y-111070476D01*
X165512857Y-111260952D01*
X166131904Y-110832380D02*
X166131904Y-111070476D01*
X165893809Y-110975238D02*
X166131904Y-111070476D01*
X166370000Y-110975238D01*
X165989047Y-111260952D02*
X166131904Y-111070476D01*
X166274761Y-111260952D01*
X105036666Y-111832380D02*
X104703333Y-111356190D01*
X104465238Y-111832380D02*
X104465238Y-110832380D01*
X104846190Y-110832380D01*
X104941428Y-110880000D01*
X104989047Y-110927619D01*
X105036666Y-111022857D01*
X105036666Y-111165714D01*
X104989047Y-111260952D01*
X104941428Y-111308571D01*
X104846190Y-111356190D01*
X104465238Y-111356190D01*
X105465238Y-111308571D02*
X105798571Y-111308571D01*
X105941428Y-111832380D02*
X105465238Y-111832380D01*
X105465238Y-110832380D01*
X105941428Y-110832380D01*
X106703333Y-111308571D02*
X106370000Y-111308571D01*
X106370000Y-111832380D02*
X106370000Y-110832380D01*
X106846190Y-110832380D01*
X107370000Y-110832380D02*
X107370000Y-111070476D01*
X107131904Y-110975238D02*
X107370000Y-111070476D01*
X107608095Y-110975238D01*
X107227142Y-111260952D02*
X107370000Y-111070476D01*
X107512857Y-111260952D01*
X108131904Y-110832380D02*
X108131904Y-111070476D01*
X107893809Y-110975238D02*
X108131904Y-111070476D01*
X108370000Y-110975238D01*
X107989047Y-111260952D02*
X108131904Y-111070476D01*
X108274761Y-111260952D01*
X163036666Y-62832380D02*
X162703333Y-62356190D01*
X162465238Y-62832380D02*
X162465238Y-61832380D01*
X162846190Y-61832380D01*
X162941428Y-61880000D01*
X162989047Y-61927619D01*
X163036666Y-62022857D01*
X163036666Y-62165714D01*
X162989047Y-62260952D01*
X162941428Y-62308571D01*
X162846190Y-62356190D01*
X162465238Y-62356190D01*
X163465238Y-62308571D02*
X163798571Y-62308571D01*
X163941428Y-62832380D02*
X163465238Y-62832380D01*
X163465238Y-61832380D01*
X163941428Y-61832380D01*
X164703333Y-62308571D02*
X164370000Y-62308571D01*
X164370000Y-62832380D02*
X164370000Y-61832380D01*
X164846190Y-61832380D01*
X165370000Y-61832380D02*
X165370000Y-62070476D01*
X165131904Y-61975238D02*
X165370000Y-62070476D01*
X165608095Y-61975238D01*
X165227142Y-62260952D02*
X165370000Y-62070476D01*
X165512857Y-62260952D01*
X166131904Y-61832380D02*
X166131904Y-62070476D01*
X165893809Y-61975238D02*
X166131904Y-62070476D01*
X166370000Y-61975238D01*
X165989047Y-62260952D02*
X166131904Y-62070476D01*
X166274761Y-62260952D01*
X105036666Y-62832380D02*
X104703333Y-62356190D01*
X104465238Y-62832380D02*
X104465238Y-61832380D01*
X104846190Y-61832380D01*
X104941428Y-61880000D01*
X104989047Y-61927619D01*
X105036666Y-62022857D01*
X105036666Y-62165714D01*
X104989047Y-62260952D01*
X104941428Y-62308571D01*
X104846190Y-62356190D01*
X104465238Y-62356190D01*
X105465238Y-62308571D02*
X105798571Y-62308571D01*
X105941428Y-62832380D02*
X105465238Y-62832380D01*
X105465238Y-61832380D01*
X105941428Y-61832380D01*
X106703333Y-62308571D02*
X106370000Y-62308571D01*
X106370000Y-62832380D02*
X106370000Y-61832380D01*
X106846190Y-61832380D01*
X107370000Y-61832380D02*
X107370000Y-62070476D01*
X107131904Y-61975238D02*
X107370000Y-62070476D01*
X107608095Y-61975238D01*
X107227142Y-62260952D02*
X107370000Y-62070476D01*
X107512857Y-62260952D01*
X108131904Y-61832380D02*
X108131904Y-62070476D01*
X107893809Y-61975238D02*
X108131904Y-62070476D01*
X108370000Y-61975238D01*
X107989047Y-62260952D02*
X108131904Y-62070476D01*
X108274761Y-62260952D01*
%TO.C,C1*%
X110791142Y-88518666D02*
X110838761Y-88566285D01*
X110886380Y-88709142D01*
X110886380Y-88804380D01*
X110838761Y-88947238D01*
X110743523Y-89042476D01*
X110648285Y-89090095D01*
X110457809Y-89137714D01*
X110314952Y-89137714D01*
X110124476Y-89090095D01*
X110029238Y-89042476D01*
X109934000Y-88947238D01*
X109886380Y-88804380D01*
X109886380Y-88709142D01*
X109934000Y-88566285D01*
X109981619Y-88518666D01*
X110886380Y-87566285D02*
X110886380Y-88137714D01*
X110886380Y-87852000D02*
X109886380Y-87852000D01*
X110029238Y-87947238D01*
X110124476Y-88042476D01*
X110172095Y-88137714D01*
%TO.C,C3*%
X129857142Y-113646666D02*
X129904761Y-113694285D01*
X129952380Y-113837142D01*
X129952380Y-113932380D01*
X129904761Y-114075238D01*
X129809523Y-114170476D01*
X129714285Y-114218095D01*
X129523809Y-114265714D01*
X129380952Y-114265714D01*
X129190476Y-114218095D01*
X129095238Y-114170476D01*
X129000000Y-114075238D01*
X128952380Y-113932380D01*
X128952380Y-113837142D01*
X129000000Y-113694285D01*
X129047619Y-113646666D01*
X128952380Y-113313333D02*
X128952380Y-112694285D01*
X129333333Y-113027619D01*
X129333333Y-112884761D01*
X129380952Y-112789523D01*
X129428571Y-112741904D01*
X129523809Y-112694285D01*
X129761904Y-112694285D01*
X129857142Y-112741904D01*
X129904761Y-112789523D01*
X129952380Y-112884761D01*
X129952380Y-113170476D01*
X129904761Y-113265714D01*
X129857142Y-113313333D01*
%TO.C,C4*%
X119681142Y-88010666D02*
X119728761Y-88058285D01*
X119776380Y-88201142D01*
X119776380Y-88296380D01*
X119728761Y-88439238D01*
X119633523Y-88534476D01*
X119538285Y-88582095D01*
X119347809Y-88629714D01*
X119204952Y-88629714D01*
X119014476Y-88582095D01*
X118919238Y-88534476D01*
X118824000Y-88439238D01*
X118776380Y-88296380D01*
X118776380Y-88201142D01*
X118824000Y-88058285D01*
X118871619Y-88010666D01*
X119109714Y-87153523D02*
X119776380Y-87153523D01*
X118728761Y-87391619D02*
X119443047Y-87629714D01*
X119443047Y-87010666D01*
%TO.C,C7*%
X171243142Y-88010666D02*
X171290761Y-88058285D01*
X171338380Y-88201142D01*
X171338380Y-88296380D01*
X171290761Y-88439238D01*
X171195523Y-88534476D01*
X171100285Y-88582095D01*
X170909809Y-88629714D01*
X170766952Y-88629714D01*
X170576476Y-88582095D01*
X170481238Y-88534476D01*
X170386000Y-88439238D01*
X170338380Y-88296380D01*
X170338380Y-88201142D01*
X170386000Y-88058285D01*
X170433619Y-88010666D01*
X170338380Y-87677333D02*
X170338380Y-87010666D01*
X171338380Y-87439238D01*
%TO.C,C9*%
X199707142Y-113664666D02*
X199754761Y-113712285D01*
X199802380Y-113855142D01*
X199802380Y-113950380D01*
X199754761Y-114093238D01*
X199659523Y-114188476D01*
X199564285Y-114236095D01*
X199373809Y-114283714D01*
X199230952Y-114283714D01*
X199040476Y-114236095D01*
X198945238Y-114188476D01*
X198850000Y-114093238D01*
X198802380Y-113950380D01*
X198802380Y-113855142D01*
X198850000Y-113712285D01*
X198897619Y-113664666D01*
X199802380Y-113188476D02*
X199802380Y-112998000D01*
X199754761Y-112902761D01*
X199707142Y-112855142D01*
X199564285Y-112759904D01*
X199373809Y-112712285D01*
X198992857Y-112712285D01*
X198897619Y-112759904D01*
X198850000Y-112807523D01*
X198802380Y-112902761D01*
X198802380Y-113093238D01*
X198850000Y-113188476D01*
X198897619Y-113236095D01*
X198992857Y-113283714D01*
X199230952Y-113283714D01*
X199326190Y-113236095D01*
X199373809Y-113188476D01*
X199421428Y-113093238D01*
X199421428Y-112902761D01*
X199373809Y-112807523D01*
X199326190Y-112759904D01*
X199230952Y-112712285D01*
%TO.C,C10*%
X162099142Y-89502857D02*
X162146761Y-89550476D01*
X162194380Y-89693333D01*
X162194380Y-89788571D01*
X162146761Y-89931428D01*
X162051523Y-90026666D01*
X161956285Y-90074285D01*
X161765809Y-90121904D01*
X161622952Y-90121904D01*
X161432476Y-90074285D01*
X161337238Y-90026666D01*
X161242000Y-89931428D01*
X161194380Y-89788571D01*
X161194380Y-89693333D01*
X161242000Y-89550476D01*
X161289619Y-89502857D01*
X162194380Y-88550476D02*
X162194380Y-89121904D01*
X162194380Y-88836190D02*
X161194380Y-88836190D01*
X161337238Y-88931428D01*
X161432476Y-89026666D01*
X161480095Y-89121904D01*
X161194380Y-87931428D02*
X161194380Y-87836190D01*
X161242000Y-87740952D01*
X161289619Y-87693333D01*
X161384857Y-87645714D01*
X161575333Y-87598095D01*
X161813428Y-87598095D01*
X162003904Y-87645714D01*
X162099142Y-87693333D01*
X162146761Y-87740952D01*
X162194380Y-87836190D01*
X162194380Y-87931428D01*
X162146761Y-88026666D01*
X162099142Y-88074285D01*
X162003904Y-88121904D01*
X161813428Y-88169523D01*
X161575333Y-88169523D01*
X161384857Y-88121904D01*
X161289619Y-88074285D01*
X161242000Y-88026666D01*
X161194380Y-87931428D01*
%TO.C,C11*%
X110903142Y-83375142D02*
X110855523Y-83422761D01*
X110712666Y-83470380D01*
X110617428Y-83470380D01*
X110474571Y-83422761D01*
X110379333Y-83327523D01*
X110331714Y-83232285D01*
X110284095Y-83041809D01*
X110284095Y-82898952D01*
X110331714Y-82708476D01*
X110379333Y-82613238D01*
X110474571Y-82518000D01*
X110617428Y-82470380D01*
X110712666Y-82470380D01*
X110855523Y-82518000D01*
X110903142Y-82565619D01*
X111855523Y-83470380D02*
X111284095Y-83470380D01*
X111569809Y-83470380D02*
X111569809Y-82470380D01*
X111474571Y-82613238D01*
X111379333Y-82708476D01*
X111284095Y-82756095D01*
X112807904Y-83470380D02*
X112236476Y-83470380D01*
X112522190Y-83470380D02*
X112522190Y-82470380D01*
X112426952Y-82613238D01*
X112331714Y-82708476D01*
X112236476Y-82756095D01*
%TO.C,C12*%
X160941142Y-83375142D02*
X160893523Y-83422761D01*
X160750666Y-83470380D01*
X160655428Y-83470380D01*
X160512571Y-83422761D01*
X160417333Y-83327523D01*
X160369714Y-83232285D01*
X160322095Y-83041809D01*
X160322095Y-82898952D01*
X160369714Y-82708476D01*
X160417333Y-82613238D01*
X160512571Y-82518000D01*
X160655428Y-82470380D01*
X160750666Y-82470380D01*
X160893523Y-82518000D01*
X160941142Y-82565619D01*
X161893523Y-83470380D02*
X161322095Y-83470380D01*
X161607809Y-83470380D02*
X161607809Y-82470380D01*
X161512571Y-82613238D01*
X161417333Y-82708476D01*
X161322095Y-82756095D01*
X162274476Y-82565619D02*
X162322095Y-82518000D01*
X162417333Y-82470380D01*
X162655428Y-82470380D01*
X162750666Y-82518000D01*
X162798285Y-82565619D01*
X162845904Y-82660857D01*
X162845904Y-82756095D01*
X162798285Y-82898952D01*
X162226857Y-83470380D01*
X162845904Y-83470380D01*
%TO.C,D1*%
X114078380Y-89384095D02*
X113078380Y-89384095D01*
X113078380Y-89146000D01*
X113126000Y-89003142D01*
X113221238Y-88907904D01*
X113316476Y-88860285D01*
X113506952Y-88812666D01*
X113649809Y-88812666D01*
X113840285Y-88860285D01*
X113935523Y-88907904D01*
X114030761Y-89003142D01*
X114078380Y-89146000D01*
X114078380Y-89384095D01*
X114078380Y-87860285D02*
X114078380Y-88431714D01*
X114078380Y-88146000D02*
X113078380Y-88146000D01*
X113221238Y-88241238D01*
X113316476Y-88336476D01*
X113364095Y-88431714D01*
X113758380Y-83827904D02*
X112758380Y-83827904D01*
X113758380Y-83256476D02*
X113186952Y-83685047D01*
X112758380Y-83256476D02*
X113329809Y-83827904D01*
%TO.C,D2*%
X144549904Y-78754380D02*
X144549904Y-77754380D01*
X144788000Y-77754380D01*
X144930857Y-77802000D01*
X145026095Y-77897238D01*
X145073714Y-77992476D01*
X145121333Y-78182952D01*
X145121333Y-78325809D01*
X145073714Y-78516285D01*
X145026095Y-78611523D01*
X144930857Y-78706761D01*
X144788000Y-78754380D01*
X144549904Y-78754380D01*
X145502285Y-77849619D02*
X145549904Y-77802000D01*
X145645142Y-77754380D01*
X145883238Y-77754380D01*
X145978476Y-77802000D01*
X146026095Y-77849619D01*
X146073714Y-77944857D01*
X146073714Y-78040095D01*
X146026095Y-78182952D01*
X145454666Y-78754380D01*
X146073714Y-78754380D01*
X139946095Y-79124380D02*
X139946095Y-78124380D01*
X140517523Y-79124380D02*
X140088952Y-78552952D01*
X140517523Y-78124380D02*
X139946095Y-78695809D01*
%TO.C,D3*%
X145819904Y-108332380D02*
X145819904Y-107332380D01*
X146058000Y-107332380D01*
X146200857Y-107380000D01*
X146296095Y-107475238D01*
X146343714Y-107570476D01*
X146391333Y-107760952D01*
X146391333Y-107903809D01*
X146343714Y-108094285D01*
X146296095Y-108189523D01*
X146200857Y-108284761D01*
X146058000Y-108332380D01*
X145819904Y-108332380D01*
X146724666Y-107332380D02*
X147343714Y-107332380D01*
X147010380Y-107713333D01*
X147153238Y-107713333D01*
X147248476Y-107760952D01*
X147296095Y-107808571D01*
X147343714Y-107903809D01*
X147343714Y-108141904D01*
X147296095Y-108237142D01*
X147248476Y-108284761D01*
X147153238Y-108332380D01*
X146867523Y-108332380D01*
X146772285Y-108284761D01*
X146724666Y-108237142D01*
X151376095Y-107962380D02*
X151376095Y-106962380D01*
X151947523Y-107962380D02*
X151518952Y-107390952D01*
X151947523Y-106962380D02*
X151376095Y-107533809D01*
%TO.C,D4*%
X161059904Y-103392380D02*
X161059904Y-102392380D01*
X161298000Y-102392380D01*
X161440857Y-102440000D01*
X161536095Y-102535238D01*
X161583714Y-102630476D01*
X161631333Y-102820952D01*
X161631333Y-102963809D01*
X161583714Y-103154285D01*
X161536095Y-103249523D01*
X161440857Y-103344761D01*
X161298000Y-103392380D01*
X161059904Y-103392380D01*
X162488476Y-102725714D02*
X162488476Y-103392380D01*
X162250380Y-102344761D02*
X162012285Y-103059047D01*
X162631333Y-103059047D01*
X156456095Y-103762380D02*
X156456095Y-102762380D01*
X157027523Y-103762380D02*
X156598952Y-103190952D01*
X157027523Y-102762380D02*
X156456095Y-103333809D01*
%TO.C,D5*%
X195349904Y-78754380D02*
X195349904Y-77754380D01*
X195588000Y-77754380D01*
X195730857Y-77802000D01*
X195826095Y-77897238D01*
X195873714Y-77992476D01*
X195921333Y-78182952D01*
X195921333Y-78325809D01*
X195873714Y-78516285D01*
X195826095Y-78611523D01*
X195730857Y-78706761D01*
X195588000Y-78754380D01*
X195349904Y-78754380D01*
X196826095Y-77754380D02*
X196349904Y-77754380D01*
X196302285Y-78230571D01*
X196349904Y-78182952D01*
X196445142Y-78135333D01*
X196683238Y-78135333D01*
X196778476Y-78182952D01*
X196826095Y-78230571D01*
X196873714Y-78325809D01*
X196873714Y-78563904D01*
X196826095Y-78659142D01*
X196778476Y-78706761D01*
X196683238Y-78754380D01*
X196445142Y-78754380D01*
X196349904Y-78706761D01*
X196302285Y-78659142D01*
X190746095Y-79124380D02*
X190746095Y-78124380D01*
X191317523Y-79124380D02*
X190888952Y-78552952D01*
X191317523Y-78124380D02*
X190746095Y-78695809D01*
%TO.C,D6*%
X165386380Y-89384095D02*
X164386380Y-89384095D01*
X164386380Y-89146000D01*
X164434000Y-89003142D01*
X164529238Y-88907904D01*
X164624476Y-88860285D01*
X164814952Y-88812666D01*
X164957809Y-88812666D01*
X165148285Y-88860285D01*
X165243523Y-88907904D01*
X165338761Y-89003142D01*
X165386380Y-89146000D01*
X165386380Y-89384095D01*
X164386380Y-87955523D02*
X164386380Y-88146000D01*
X164434000Y-88241238D01*
X164481619Y-88288857D01*
X164624476Y-88384095D01*
X164814952Y-88431714D01*
X165195904Y-88431714D01*
X165291142Y-88384095D01*
X165338761Y-88336476D01*
X165386380Y-88241238D01*
X165386380Y-88050761D01*
X165338761Y-87955523D01*
X165291142Y-87907904D01*
X165195904Y-87860285D01*
X164957809Y-87860285D01*
X164862571Y-87907904D01*
X164814952Y-87955523D01*
X164767333Y-88050761D01*
X164767333Y-88241238D01*
X164814952Y-88336476D01*
X164862571Y-88384095D01*
X164957809Y-88431714D01*
X165066380Y-83827904D02*
X164066380Y-83827904D01*
X165066380Y-83256476D02*
X164494952Y-83685047D01*
X164066380Y-83256476D02*
X164637809Y-83827904D01*
%TO.C,D7*%
X119341904Y-109952380D02*
X119341904Y-108952380D01*
X119580000Y-108952380D01*
X119722857Y-109000000D01*
X119818095Y-109095238D01*
X119865714Y-109190476D01*
X119913333Y-109380952D01*
X119913333Y-109523809D01*
X119865714Y-109714285D01*
X119818095Y-109809523D01*
X119722857Y-109904761D01*
X119580000Y-109952380D01*
X119341904Y-109952380D01*
X120246666Y-108952380D02*
X120913333Y-108952380D01*
X120484761Y-109952380D01*
%TO.C,D8*%
X180363904Y-109878380D02*
X180363904Y-108878380D01*
X180602000Y-108878380D01*
X180744857Y-108926000D01*
X180840095Y-109021238D01*
X180887714Y-109116476D01*
X180935333Y-109306952D01*
X180935333Y-109449809D01*
X180887714Y-109640285D01*
X180840095Y-109735523D01*
X180744857Y-109830761D01*
X180602000Y-109878380D01*
X180363904Y-109878380D01*
X181506761Y-109306952D02*
X181411523Y-109259333D01*
X181363904Y-109211714D01*
X181316285Y-109116476D01*
X181316285Y-109068857D01*
X181363904Y-108973619D01*
X181411523Y-108926000D01*
X181506761Y-108878380D01*
X181697238Y-108878380D01*
X181792476Y-108926000D01*
X181840095Y-108973619D01*
X181887714Y-109068857D01*
X181887714Y-109116476D01*
X181840095Y-109211714D01*
X181792476Y-109259333D01*
X181697238Y-109306952D01*
X181506761Y-109306952D01*
X181411523Y-109354571D01*
X181363904Y-109402190D01*
X181316285Y-109497428D01*
X181316285Y-109687904D01*
X181363904Y-109783142D01*
X181411523Y-109830761D01*
X181506761Y-109878380D01*
X181697238Y-109878380D01*
X181792476Y-109830761D01*
X181840095Y-109783142D01*
X181887714Y-109687904D01*
X181887714Y-109497428D01*
X181840095Y-109402190D01*
X181792476Y-109354571D01*
X181697238Y-109306952D01*
%TO.C,F1*%
X125798571Y-113813333D02*
X125798571Y-114146666D01*
X126322380Y-114146666D02*
X125322380Y-114146666D01*
X125322380Y-113670476D01*
X126322380Y-112765714D02*
X126322380Y-113337142D01*
X126322380Y-113051428D02*
X125322380Y-113051428D01*
X125465238Y-113146666D01*
X125560476Y-113241904D01*
X125608095Y-113337142D01*
%TO.C,F2*%
X195714571Y-113831333D02*
X195714571Y-114164666D01*
X196238380Y-114164666D02*
X195238380Y-114164666D01*
X195238380Y-113688476D01*
X195333619Y-113355142D02*
X195286000Y-113307523D01*
X195238380Y-113212285D01*
X195238380Y-112974190D01*
X195286000Y-112878952D01*
X195333619Y-112831333D01*
X195428857Y-112783714D01*
X195524095Y-112783714D01*
X195666952Y-112831333D01*
X196238380Y-113402761D01*
X196238380Y-112783714D01*
%TO.C,J1*%
X114728666Y-108164380D02*
X114728666Y-108878666D01*
X114681047Y-109021523D01*
X114585809Y-109116761D01*
X114442952Y-109164380D01*
X114347714Y-109164380D01*
X115728666Y-109164380D02*
X115157238Y-109164380D01*
X115442952Y-109164380D02*
X115442952Y-108164380D01*
X115347714Y-108307238D01*
X115252476Y-108402476D01*
X115157238Y-108450095D01*
%TO.C,J2*%
X108374380Y-66119333D02*
X109088666Y-66119333D01*
X109231523Y-66166952D01*
X109326761Y-66262190D01*
X109374380Y-66405047D01*
X109374380Y-66500285D01*
X108469619Y-65690761D02*
X108422000Y-65643142D01*
X108374380Y-65547904D01*
X108374380Y-65309809D01*
X108422000Y-65214571D01*
X108469619Y-65166952D01*
X108564857Y-65119333D01*
X108660095Y-65119333D01*
X108802952Y-65166952D01*
X109374380Y-65738380D01*
X109374380Y-65119333D01*
%TO.C,J3*%
X172894666Y-107910380D02*
X172894666Y-108624666D01*
X172847047Y-108767523D01*
X172751809Y-108862761D01*
X172608952Y-108910380D01*
X172513714Y-108910380D01*
X173275619Y-107910380D02*
X173894666Y-107910380D01*
X173561333Y-108291333D01*
X173704190Y-108291333D01*
X173799428Y-108338952D01*
X173847047Y-108386571D01*
X173894666Y-108481809D01*
X173894666Y-108719904D01*
X173847047Y-108815142D01*
X173799428Y-108862761D01*
X173704190Y-108910380D01*
X173418476Y-108910380D01*
X173323238Y-108862761D01*
X173275619Y-108815142D01*
%TO.C,J4*%
X184578666Y-107910380D02*
X184578666Y-108624666D01*
X184531047Y-108767523D01*
X184435809Y-108862761D01*
X184292952Y-108910380D01*
X184197714Y-108910380D01*
X185483428Y-108243714D02*
X185483428Y-108910380D01*
X185245333Y-107862761D02*
X185007238Y-108577047D01*
X185626285Y-108577047D01*
%TO.C,K1*%
X144705904Y-82754380D02*
X144705904Y-81754380D01*
X145277333Y-82754380D02*
X144848761Y-82182952D01*
X145277333Y-81754380D02*
X144705904Y-82325809D01*
X146229714Y-82754380D02*
X145658285Y-82754380D01*
X145944000Y-82754380D02*
X145944000Y-81754380D01*
X145848761Y-81897238D01*
X145753523Y-81992476D01*
X145658285Y-82040095D01*
%TO.C,Q2*%
X196246761Y-96603619D02*
X196151523Y-96556000D01*
X196056285Y-96460761D01*
X195913428Y-96317904D01*
X195818190Y-96270285D01*
X195722952Y-96270285D01*
X195770571Y-96508380D02*
X195675333Y-96460761D01*
X195580095Y-96365523D01*
X195532476Y-96175047D01*
X195532476Y-95841714D01*
X195580095Y-95651238D01*
X195675333Y-95556000D01*
X195770571Y-95508380D01*
X195961047Y-95508380D01*
X196056285Y-95556000D01*
X196151523Y-95651238D01*
X196199142Y-95841714D01*
X196199142Y-96175047D01*
X196151523Y-96365523D01*
X196056285Y-96460761D01*
X195961047Y-96508380D01*
X195770571Y-96508380D01*
X196580095Y-95603619D02*
X196627714Y-95556000D01*
X196722952Y-95508380D01*
X196961047Y-95508380D01*
X197056285Y-95556000D01*
X197103904Y-95603619D01*
X197151523Y-95698857D01*
X197151523Y-95794095D01*
X197103904Y-95936952D01*
X196532476Y-96508380D01*
X197151523Y-96508380D01*
%TO.C,Q5*%
X151034761Y-96603619D02*
X150939523Y-96556000D01*
X150844285Y-96460761D01*
X150701428Y-96317904D01*
X150606190Y-96270285D01*
X150510952Y-96270285D01*
X150558571Y-96508380D02*
X150463333Y-96460761D01*
X150368095Y-96365523D01*
X150320476Y-96175047D01*
X150320476Y-95841714D01*
X150368095Y-95651238D01*
X150463333Y-95556000D01*
X150558571Y-95508380D01*
X150749047Y-95508380D01*
X150844285Y-95556000D01*
X150939523Y-95651238D01*
X150987142Y-95841714D01*
X150987142Y-96175047D01*
X150939523Y-96365523D01*
X150844285Y-96460761D01*
X150749047Y-96508380D01*
X150558571Y-96508380D01*
X151891904Y-95508380D02*
X151415714Y-95508380D01*
X151368095Y-95984571D01*
X151415714Y-95936952D01*
X151510952Y-95889333D01*
X151749047Y-95889333D01*
X151844285Y-95936952D01*
X151891904Y-95984571D01*
X151939523Y-96079809D01*
X151939523Y-96317904D01*
X151891904Y-96413142D01*
X151844285Y-96460761D01*
X151749047Y-96508380D01*
X151510952Y-96508380D01*
X151415714Y-96460761D01*
X151368095Y-96413142D01*
%TO.C,R1*%
X104254380Y-102782666D02*
X103778190Y-103116000D01*
X104254380Y-103354095D02*
X103254380Y-103354095D01*
X103254380Y-102973142D01*
X103302000Y-102877904D01*
X103349619Y-102830285D01*
X103444857Y-102782666D01*
X103587714Y-102782666D01*
X103682952Y-102830285D01*
X103730571Y-102877904D01*
X103778190Y-102973142D01*
X103778190Y-103354095D01*
X104254380Y-101830285D02*
X104254380Y-102401714D01*
X104254380Y-102116000D02*
X103254380Y-102116000D01*
X103397238Y-102211238D01*
X103492476Y-102306476D01*
X103540095Y-102401714D01*
%TO.C,R2*%
X113117333Y-102390380D02*
X112784000Y-101914190D01*
X112545904Y-102390380D02*
X112545904Y-101390380D01*
X112926857Y-101390380D01*
X113022095Y-101438000D01*
X113069714Y-101485619D01*
X113117333Y-101580857D01*
X113117333Y-101723714D01*
X113069714Y-101818952D01*
X113022095Y-101866571D01*
X112926857Y-101914190D01*
X112545904Y-101914190D01*
X113498285Y-101485619D02*
X113545904Y-101438000D01*
X113641142Y-101390380D01*
X113879238Y-101390380D01*
X113974476Y-101438000D01*
X114022095Y-101485619D01*
X114069714Y-101580857D01*
X114069714Y-101676095D01*
X114022095Y-101818952D01*
X113450666Y-102390380D01*
X114069714Y-102390380D01*
%TO.C,R4*%
X120991333Y-78600380D02*
X120658000Y-78124190D01*
X120419904Y-78600380D02*
X120419904Y-77600380D01*
X120800857Y-77600380D01*
X120896095Y-77648000D01*
X120943714Y-77695619D01*
X120991333Y-77790857D01*
X120991333Y-77933714D01*
X120943714Y-78028952D01*
X120896095Y-78076571D01*
X120800857Y-78124190D01*
X120419904Y-78124190D01*
X121848476Y-77933714D02*
X121848476Y-78600380D01*
X121610380Y-77552761D02*
X121372285Y-78267047D01*
X121991333Y-78267047D01*
%TO.C,R5*%
X109053333Y-74028380D02*
X108720000Y-73552190D01*
X108481904Y-74028380D02*
X108481904Y-73028380D01*
X108862857Y-73028380D01*
X108958095Y-73076000D01*
X109005714Y-73123619D01*
X109053333Y-73218857D01*
X109053333Y-73361714D01*
X109005714Y-73456952D01*
X108958095Y-73504571D01*
X108862857Y-73552190D01*
X108481904Y-73552190D01*
X109958095Y-73028380D02*
X109481904Y-73028380D01*
X109434285Y-73504571D01*
X109481904Y-73456952D01*
X109577142Y-73409333D01*
X109815238Y-73409333D01*
X109910476Y-73456952D01*
X109958095Y-73504571D01*
X110005714Y-73599809D01*
X110005714Y-73837904D01*
X109958095Y-73933142D01*
X109910476Y-73980761D01*
X109815238Y-74028380D01*
X109577142Y-74028380D01*
X109481904Y-73980761D01*
X109434285Y-73933142D01*
%TO.C,R6*%
X142073333Y-104676380D02*
X141740000Y-104200190D01*
X141501904Y-104676380D02*
X141501904Y-103676380D01*
X141882857Y-103676380D01*
X141978095Y-103724000D01*
X142025714Y-103771619D01*
X142073333Y-103866857D01*
X142073333Y-104009714D01*
X142025714Y-104104952D01*
X141978095Y-104152571D01*
X141882857Y-104200190D01*
X141501904Y-104200190D01*
X142930476Y-103676380D02*
X142740000Y-103676380D01*
X142644761Y-103724000D01*
X142597142Y-103771619D01*
X142501904Y-103914476D01*
X142454285Y-104104952D01*
X142454285Y-104485904D01*
X142501904Y-104581142D01*
X142549523Y-104628761D01*
X142644761Y-104676380D01*
X142835238Y-104676380D01*
X142930476Y-104628761D01*
X142978095Y-104581142D01*
X143025714Y-104485904D01*
X143025714Y-104247809D01*
X142978095Y-104152571D01*
X142930476Y-104104952D01*
X142835238Y-104057333D01*
X142644761Y-104057333D01*
X142549523Y-104104952D01*
X142501904Y-104152571D01*
X142454285Y-104247809D01*
%TO.C,R7*%
X109053333Y-75212380D02*
X108720000Y-74736190D01*
X108481904Y-75212380D02*
X108481904Y-74212380D01*
X108862857Y-74212380D01*
X108958095Y-74260000D01*
X109005714Y-74307619D01*
X109053333Y-74402857D01*
X109053333Y-74545714D01*
X109005714Y-74640952D01*
X108958095Y-74688571D01*
X108862857Y-74736190D01*
X108481904Y-74736190D01*
X109386666Y-74212380D02*
X110053333Y-74212380D01*
X109624761Y-75212380D01*
%TO.C,R10*%
X149217142Y-74028380D02*
X148883809Y-73552190D01*
X148645714Y-74028380D02*
X148645714Y-73028380D01*
X149026666Y-73028380D01*
X149121904Y-73076000D01*
X149169523Y-73123619D01*
X149217142Y-73218857D01*
X149217142Y-73361714D01*
X149169523Y-73456952D01*
X149121904Y-73504571D01*
X149026666Y-73552190D01*
X148645714Y-73552190D01*
X150169523Y-74028380D02*
X149598095Y-74028380D01*
X149883809Y-74028380D02*
X149883809Y-73028380D01*
X149788571Y-73171238D01*
X149693333Y-73266476D01*
X149598095Y-73314095D01*
X150788571Y-73028380D02*
X150883809Y-73028380D01*
X150979047Y-73076000D01*
X151026666Y-73123619D01*
X151074285Y-73218857D01*
X151121904Y-73409333D01*
X151121904Y-73647428D01*
X151074285Y-73837904D01*
X151026666Y-73933142D01*
X150979047Y-73980761D01*
X150883809Y-74028380D01*
X150788571Y-74028380D01*
X150693333Y-73980761D01*
X150645714Y-73933142D01*
X150598095Y-73837904D01*
X150550476Y-73647428D01*
X150550476Y-73409333D01*
X150598095Y-73218857D01*
X150645714Y-73123619D01*
X150693333Y-73076000D01*
X150788571Y-73028380D01*
%TO.C,R12*%
X158869142Y-99682380D02*
X158535809Y-99206190D01*
X158297714Y-99682380D02*
X158297714Y-98682380D01*
X158678666Y-98682380D01*
X158773904Y-98730000D01*
X158821523Y-98777619D01*
X158869142Y-98872857D01*
X158869142Y-99015714D01*
X158821523Y-99110952D01*
X158773904Y-99158571D01*
X158678666Y-99206190D01*
X158297714Y-99206190D01*
X159821523Y-99682380D02*
X159250095Y-99682380D01*
X159535809Y-99682380D02*
X159535809Y-98682380D01*
X159440571Y-98825238D01*
X159345333Y-98920476D01*
X159250095Y-98968095D01*
X160202476Y-98777619D02*
X160250095Y-98730000D01*
X160345333Y-98682380D01*
X160583428Y-98682380D01*
X160678666Y-98730000D01*
X160726285Y-98777619D01*
X160773904Y-98872857D01*
X160773904Y-98968095D01*
X160726285Y-99110952D01*
X160154857Y-99682380D01*
X160773904Y-99682380D01*
%TO.C,R13*%
X175633142Y-78854380D02*
X175299809Y-78378190D01*
X175061714Y-78854380D02*
X175061714Y-77854380D01*
X175442666Y-77854380D01*
X175537904Y-77902000D01*
X175585523Y-77949619D01*
X175633142Y-78044857D01*
X175633142Y-78187714D01*
X175585523Y-78282952D01*
X175537904Y-78330571D01*
X175442666Y-78378190D01*
X175061714Y-78378190D01*
X176585523Y-78854380D02*
X176014095Y-78854380D01*
X176299809Y-78854380D02*
X176299809Y-77854380D01*
X176204571Y-77997238D01*
X176109333Y-78092476D01*
X176014095Y-78140095D01*
X176918857Y-77854380D02*
X177537904Y-77854380D01*
X177204571Y-78235333D01*
X177347428Y-78235333D01*
X177442666Y-78282952D01*
X177490285Y-78330571D01*
X177537904Y-78425809D01*
X177537904Y-78663904D01*
X177490285Y-78759142D01*
X177442666Y-78806761D01*
X177347428Y-78854380D01*
X177061714Y-78854380D01*
X176966476Y-78806761D01*
X176918857Y-78759142D01*
%TO.C,R14*%
X128897142Y-74112380D02*
X128563809Y-73636190D01*
X128325714Y-74112380D02*
X128325714Y-73112380D01*
X128706666Y-73112380D01*
X128801904Y-73160000D01*
X128849523Y-73207619D01*
X128897142Y-73302857D01*
X128897142Y-73445714D01*
X128849523Y-73540952D01*
X128801904Y-73588571D01*
X128706666Y-73636190D01*
X128325714Y-73636190D01*
X129849523Y-74112380D02*
X129278095Y-74112380D01*
X129563809Y-74112380D02*
X129563809Y-73112380D01*
X129468571Y-73255238D01*
X129373333Y-73350476D01*
X129278095Y-73398095D01*
X130706666Y-73445714D02*
X130706666Y-74112380D01*
X130468571Y-73064761D02*
X130230476Y-73779047D01*
X130849523Y-73779047D01*
%TO.C,R15*%
X181724380Y-89288857D02*
X181248190Y-89622190D01*
X181724380Y-89860285D02*
X180724380Y-89860285D01*
X180724380Y-89479333D01*
X180772000Y-89384095D01*
X180819619Y-89336476D01*
X180914857Y-89288857D01*
X181057714Y-89288857D01*
X181152952Y-89336476D01*
X181200571Y-89384095D01*
X181248190Y-89479333D01*
X181248190Y-89860285D01*
X181724380Y-88336476D02*
X181724380Y-88907904D01*
X181724380Y-88622190D02*
X180724380Y-88622190D01*
X180867238Y-88717428D01*
X180962476Y-88812666D01*
X181010095Y-88907904D01*
X180724380Y-87431714D02*
X180724380Y-87907904D01*
X181200571Y-87955523D01*
X181152952Y-87907904D01*
X181105333Y-87812666D01*
X181105333Y-87574571D01*
X181152952Y-87479333D01*
X181200571Y-87431714D01*
X181295809Y-87384095D01*
X181533904Y-87384095D01*
X181629142Y-87431714D01*
X181676761Y-87479333D01*
X181724380Y-87574571D01*
X181724380Y-87812666D01*
X181676761Y-87907904D01*
X181629142Y-87955523D01*
%TO.C,R16*%
X128897142Y-75212380D02*
X128563809Y-74736190D01*
X128325714Y-75212380D02*
X128325714Y-74212380D01*
X128706666Y-74212380D01*
X128801904Y-74260000D01*
X128849523Y-74307619D01*
X128897142Y-74402857D01*
X128897142Y-74545714D01*
X128849523Y-74640952D01*
X128801904Y-74688571D01*
X128706666Y-74736190D01*
X128325714Y-74736190D01*
X129849523Y-75212380D02*
X129278095Y-75212380D01*
X129563809Y-75212380D02*
X129563809Y-74212380D01*
X129468571Y-74355238D01*
X129373333Y-74450476D01*
X129278095Y-74498095D01*
X130706666Y-74212380D02*
X130516190Y-74212380D01*
X130420952Y-74260000D01*
X130373333Y-74307619D01*
X130278095Y-74450476D01*
X130230476Y-74640952D01*
X130230476Y-75021904D01*
X130278095Y-75117142D01*
X130325714Y-75164761D01*
X130420952Y-75212380D01*
X130611428Y-75212380D01*
X130706666Y-75164761D01*
X130754285Y-75117142D01*
X130801904Y-75021904D01*
X130801904Y-74783809D01*
X130754285Y-74688571D01*
X130706666Y-74640952D01*
X130611428Y-74593333D01*
X130420952Y-74593333D01*
X130325714Y-74640952D01*
X130278095Y-74688571D01*
X130230476Y-74783809D01*
%TO.C,R18*%
X164706380Y-97670857D02*
X164230190Y-98004190D01*
X164706380Y-98242285D02*
X163706380Y-98242285D01*
X163706380Y-97861333D01*
X163754000Y-97766095D01*
X163801619Y-97718476D01*
X163896857Y-97670857D01*
X164039714Y-97670857D01*
X164134952Y-97718476D01*
X164182571Y-97766095D01*
X164230190Y-97861333D01*
X164230190Y-98242285D01*
X164706380Y-96718476D02*
X164706380Y-97289904D01*
X164706380Y-97004190D02*
X163706380Y-97004190D01*
X163849238Y-97099428D01*
X163944476Y-97194666D01*
X163992095Y-97289904D01*
X164134952Y-96147047D02*
X164087333Y-96242285D01*
X164039714Y-96289904D01*
X163944476Y-96337523D01*
X163896857Y-96337523D01*
X163801619Y-96289904D01*
X163754000Y-96242285D01*
X163706380Y-96147047D01*
X163706380Y-95956571D01*
X163754000Y-95861333D01*
X163801619Y-95813714D01*
X163896857Y-95766095D01*
X163944476Y-95766095D01*
X164039714Y-95813714D01*
X164087333Y-95861333D01*
X164134952Y-95956571D01*
X164134952Y-96147047D01*
X164182571Y-96242285D01*
X164230190Y-96289904D01*
X164325428Y-96337523D01*
X164515904Y-96337523D01*
X164611142Y-96289904D01*
X164658761Y-96242285D01*
X164706380Y-96147047D01*
X164706380Y-95956571D01*
X164658761Y-95861333D01*
X164611142Y-95813714D01*
X164515904Y-95766095D01*
X164325428Y-95766095D01*
X164230190Y-95813714D01*
X164182571Y-95861333D01*
X164134952Y-95956571D01*
%TO.C,R19*%
X133723142Y-101374380D02*
X133389809Y-100898190D01*
X133151714Y-101374380D02*
X133151714Y-100374380D01*
X133532666Y-100374380D01*
X133627904Y-100422000D01*
X133675523Y-100469619D01*
X133723142Y-100564857D01*
X133723142Y-100707714D01*
X133675523Y-100802952D01*
X133627904Y-100850571D01*
X133532666Y-100898190D01*
X133151714Y-100898190D01*
X134675523Y-101374380D02*
X134104095Y-101374380D01*
X134389809Y-101374380D02*
X134389809Y-100374380D01*
X134294571Y-100517238D01*
X134199333Y-100612476D01*
X134104095Y-100660095D01*
X135151714Y-101374380D02*
X135342190Y-101374380D01*
X135437428Y-101326761D01*
X135485047Y-101279142D01*
X135580285Y-101136285D01*
X135627904Y-100945809D01*
X135627904Y-100564857D01*
X135580285Y-100469619D01*
X135532666Y-100422000D01*
X135437428Y-100374380D01*
X135246952Y-100374380D01*
X135151714Y-100422000D01*
X135104095Y-100469619D01*
X135056476Y-100564857D01*
X135056476Y-100802952D01*
X135104095Y-100898190D01*
X135151714Y-100945809D01*
X135246952Y-100993428D01*
X135437428Y-100993428D01*
X135532666Y-100945809D01*
X135580285Y-100898190D01*
X135627904Y-100802952D01*
%TO.C,R20*%
X191381142Y-107978380D02*
X191047809Y-107502190D01*
X190809714Y-107978380D02*
X190809714Y-106978380D01*
X191190666Y-106978380D01*
X191285904Y-107026000D01*
X191333523Y-107073619D01*
X191381142Y-107168857D01*
X191381142Y-107311714D01*
X191333523Y-107406952D01*
X191285904Y-107454571D01*
X191190666Y-107502190D01*
X190809714Y-107502190D01*
X191762095Y-107073619D02*
X191809714Y-107026000D01*
X191904952Y-106978380D01*
X192143047Y-106978380D01*
X192238285Y-107026000D01*
X192285904Y-107073619D01*
X192333523Y-107168857D01*
X192333523Y-107264095D01*
X192285904Y-107406952D01*
X191714476Y-107978380D01*
X192333523Y-107978380D01*
X192952571Y-106978380D02*
X193047809Y-106978380D01*
X193143047Y-107026000D01*
X193190666Y-107073619D01*
X193238285Y-107168857D01*
X193285904Y-107359333D01*
X193285904Y-107597428D01*
X193238285Y-107787904D01*
X193190666Y-107883142D01*
X193143047Y-107930761D01*
X193047809Y-107978380D01*
X192952571Y-107978380D01*
X192857333Y-107930761D01*
X192809714Y-107883142D01*
X192762095Y-107787904D01*
X192714476Y-107597428D01*
X192714476Y-107359333D01*
X192762095Y-107168857D01*
X192809714Y-107073619D01*
X192857333Y-107026000D01*
X192952571Y-106978380D01*
%TO.C,RV1*%
X123356761Y-96360380D02*
X123023428Y-95884190D01*
X122785333Y-96360380D02*
X122785333Y-95360380D01*
X123166285Y-95360380D01*
X123261523Y-95408000D01*
X123309142Y-95455619D01*
X123356761Y-95550857D01*
X123356761Y-95693714D01*
X123309142Y-95788952D01*
X123261523Y-95836571D01*
X123166285Y-95884190D01*
X122785333Y-95884190D01*
X123642476Y-95360380D02*
X123975809Y-96360380D01*
X124309142Y-95360380D01*
X125166285Y-96360380D02*
X124594857Y-96360380D01*
X124880571Y-96360380D02*
X124880571Y-95360380D01*
X124785333Y-95503238D01*
X124690095Y-95598476D01*
X124594857Y-95646095D01*
%TO.C,RV2*%
X185332761Y-96360380D02*
X184999428Y-95884190D01*
X184761333Y-96360380D02*
X184761333Y-95360380D01*
X185142285Y-95360380D01*
X185237523Y-95408000D01*
X185285142Y-95455619D01*
X185332761Y-95550857D01*
X185332761Y-95693714D01*
X185285142Y-95788952D01*
X185237523Y-95836571D01*
X185142285Y-95884190D01*
X184761333Y-95884190D01*
X185618476Y-95360380D02*
X185951809Y-96360380D01*
X186285142Y-95360380D01*
X186570857Y-95455619D02*
X186618476Y-95408000D01*
X186713714Y-95360380D01*
X186951809Y-95360380D01*
X187047047Y-95408000D01*
X187094666Y-95455619D01*
X187142285Y-95550857D01*
X187142285Y-95646095D01*
X187094666Y-95788952D01*
X186523238Y-96360380D01*
X187142285Y-96360380D01*
%TO.C,TP2*%
X128532095Y-102356380D02*
X129103523Y-102356380D01*
X128817809Y-103356380D02*
X128817809Y-102356380D01*
X129436857Y-103356380D02*
X129436857Y-102356380D01*
X129817809Y-102356380D01*
X129913047Y-102404000D01*
X129960666Y-102451619D01*
X130008285Y-102546857D01*
X130008285Y-102689714D01*
X129960666Y-102784952D01*
X129913047Y-102832571D01*
X129817809Y-102880190D01*
X129436857Y-102880190D01*
X130389238Y-102451619D02*
X130436857Y-102404000D01*
X130532095Y-102356380D01*
X130770190Y-102356380D01*
X130865428Y-102404000D01*
X130913047Y-102451619D01*
X130960666Y-102546857D01*
X130960666Y-102642095D01*
X130913047Y-102784952D01*
X130341619Y-103356380D01*
X130960666Y-103356380D01*
%TO.C,TP4*%
X153170095Y-78226380D02*
X153741523Y-78226380D01*
X153455809Y-79226380D02*
X153455809Y-78226380D01*
X154074857Y-79226380D02*
X154074857Y-78226380D01*
X154455809Y-78226380D01*
X154551047Y-78274000D01*
X154598666Y-78321619D01*
X154646285Y-78416857D01*
X154646285Y-78559714D01*
X154598666Y-78654952D01*
X154551047Y-78702571D01*
X154455809Y-78750190D01*
X154074857Y-78750190D01*
X155503428Y-78559714D02*
X155503428Y-79226380D01*
X155265333Y-78178761D02*
X155027238Y-78893047D01*
X155646285Y-78893047D01*
%TO.C,TP5*%
X175776095Y-69844380D02*
X176347523Y-69844380D01*
X176061809Y-70844380D02*
X176061809Y-69844380D01*
X176680857Y-70844380D02*
X176680857Y-69844380D01*
X177061809Y-69844380D01*
X177157047Y-69892000D01*
X177204666Y-69939619D01*
X177252285Y-70034857D01*
X177252285Y-70177714D01*
X177204666Y-70272952D01*
X177157047Y-70320571D01*
X177061809Y-70368190D01*
X176680857Y-70368190D01*
X178157047Y-69844380D02*
X177680857Y-69844380D01*
X177633238Y-70320571D01*
X177680857Y-70272952D01*
X177776095Y-70225333D01*
X178014190Y-70225333D01*
X178109428Y-70272952D01*
X178157047Y-70320571D01*
X178204666Y-70415809D01*
X178204666Y-70653904D01*
X178157047Y-70749142D01*
X178109428Y-70796761D01*
X178014190Y-70844380D01*
X177776095Y-70844380D01*
X177680857Y-70796761D01*
X177633238Y-70749142D01*
%TO.C,TP6*%
X203970095Y-78226380D02*
X204541523Y-78226380D01*
X204255809Y-79226380D02*
X204255809Y-78226380D01*
X204874857Y-79226380D02*
X204874857Y-78226380D01*
X205255809Y-78226380D01*
X205351047Y-78274000D01*
X205398666Y-78321619D01*
X205446285Y-78416857D01*
X205446285Y-78559714D01*
X205398666Y-78654952D01*
X205351047Y-78702571D01*
X205255809Y-78750190D01*
X204874857Y-78750190D01*
X206303428Y-78226380D02*
X206112952Y-78226380D01*
X206017714Y-78274000D01*
X205970095Y-78321619D01*
X205874857Y-78464476D01*
X205827238Y-78654952D01*
X205827238Y-79035904D01*
X205874857Y-79131142D01*
X205922476Y-79178761D01*
X206017714Y-79226380D01*
X206208190Y-79226380D01*
X206303428Y-79178761D01*
X206351047Y-79131142D01*
X206398666Y-79035904D01*
X206398666Y-78797809D01*
X206351047Y-78702571D01*
X206303428Y-78654952D01*
X206208190Y-78607333D01*
X206017714Y-78607333D01*
X205922476Y-78654952D01*
X205874857Y-78702571D01*
X205827238Y-78797809D01*
%TO.C,TP7*%
X155456095Y-69844380D02*
X156027523Y-69844380D01*
X155741809Y-70844380D02*
X155741809Y-69844380D01*
X156360857Y-70844380D02*
X156360857Y-69844380D01*
X156741809Y-69844380D01*
X156837047Y-69892000D01*
X156884666Y-69939619D01*
X156932285Y-70034857D01*
X156932285Y-70177714D01*
X156884666Y-70272952D01*
X156837047Y-70320571D01*
X156741809Y-70368190D01*
X156360857Y-70368190D01*
X157265619Y-69844380D02*
X157932285Y-69844380D01*
X157503714Y-70844380D01*
%TO.C,TP9*%
X135136095Y-69844380D02*
X135707523Y-69844380D01*
X135421809Y-70844380D02*
X135421809Y-69844380D01*
X136040857Y-70844380D02*
X136040857Y-69844380D01*
X136421809Y-69844380D01*
X136517047Y-69892000D01*
X136564666Y-69939619D01*
X136612285Y-70034857D01*
X136612285Y-70177714D01*
X136564666Y-70272952D01*
X136517047Y-70320571D01*
X136421809Y-70368190D01*
X136040857Y-70368190D01*
X137088476Y-70844380D02*
X137278952Y-70844380D01*
X137374190Y-70796761D01*
X137421809Y-70749142D01*
X137517047Y-70606285D01*
X137564666Y-70415809D01*
X137564666Y-70034857D01*
X137517047Y-69939619D01*
X137469428Y-69892000D01*
X137374190Y-69844380D01*
X137183714Y-69844380D01*
X137088476Y-69892000D01*
X137040857Y-69939619D01*
X136993238Y-70034857D01*
X136993238Y-70272952D01*
X137040857Y-70368190D01*
X137088476Y-70415809D01*
X137183714Y-70463428D01*
X137374190Y-70463428D01*
X137469428Y-70415809D01*
X137517047Y-70368190D01*
X137564666Y-70272952D01*
%TO.C,TP10*%
X159043904Y-94990380D02*
X159615333Y-94990380D01*
X159329619Y-95990380D02*
X159329619Y-94990380D01*
X159948666Y-95990380D02*
X159948666Y-94990380D01*
X160329619Y-94990380D01*
X160424857Y-95038000D01*
X160472476Y-95085619D01*
X160520095Y-95180857D01*
X160520095Y-95323714D01*
X160472476Y-95418952D01*
X160424857Y-95466571D01*
X160329619Y-95514190D01*
X159948666Y-95514190D01*
X161472476Y-95990380D02*
X160901047Y-95990380D01*
X161186761Y-95990380D02*
X161186761Y-94990380D01*
X161091523Y-95133238D01*
X160996285Y-95228476D01*
X160901047Y-95276095D01*
X162091523Y-94990380D02*
X162186761Y-94990380D01*
X162282000Y-95038000D01*
X162329619Y-95085619D01*
X162377238Y-95180857D01*
X162424857Y-95371333D01*
X162424857Y-95609428D01*
X162377238Y-95799904D01*
X162329619Y-95895142D01*
X162282000Y-95942761D01*
X162186761Y-95990380D01*
X162091523Y-95990380D01*
X161996285Y-95942761D01*
X161948666Y-95895142D01*
X161901047Y-95799904D01*
X161853428Y-95609428D01*
X161853428Y-95371333D01*
X161901047Y-95180857D01*
X161948666Y-95085619D01*
X161996285Y-95038000D01*
X162091523Y-94990380D01*
%TO.C,U1*%
X117518380Y-88899904D02*
X118327904Y-88899904D01*
X118423142Y-88852285D01*
X118470761Y-88804666D01*
X118518380Y-88709428D01*
X118518380Y-88518952D01*
X118470761Y-88423714D01*
X118423142Y-88376095D01*
X118327904Y-88328476D01*
X117518380Y-88328476D01*
X118518380Y-87328476D02*
X118518380Y-87899904D01*
X118518380Y-87614190D02*
X117518380Y-87614190D01*
X117661238Y-87709428D01*
X117756476Y-87804666D01*
X117804095Y-87899904D01*
%TO.C,U2*%
X169080380Y-88899904D02*
X169889904Y-88899904D01*
X169985142Y-88852285D01*
X170032761Y-88804666D01*
X170080380Y-88709428D01*
X170080380Y-88518952D01*
X170032761Y-88423714D01*
X169985142Y-88376095D01*
X169889904Y-88328476D01*
X169080380Y-88328476D01*
X169175619Y-87899904D02*
X169128000Y-87852285D01*
X169080380Y-87757047D01*
X169080380Y-87518952D01*
X169128000Y-87423714D01*
X169175619Y-87376095D01*
X169270857Y-87328476D01*
X169366095Y-87328476D01*
X169508952Y-87376095D01*
X170080380Y-87947523D01*
X170080380Y-87328476D01*
%TO.C,C5*%
X148907142Y-113664666D02*
X148954761Y-113712285D01*
X149002380Y-113855142D01*
X149002380Y-113950380D01*
X148954761Y-114093238D01*
X148859523Y-114188476D01*
X148764285Y-114236095D01*
X148573809Y-114283714D01*
X148430952Y-114283714D01*
X148240476Y-114236095D01*
X148145238Y-114188476D01*
X148050000Y-114093238D01*
X148002380Y-113950380D01*
X148002380Y-113855142D01*
X148050000Y-113712285D01*
X148097619Y-113664666D01*
X148002380Y-112759904D02*
X148002380Y-113236095D01*
X148478571Y-113283714D01*
X148430952Y-113236095D01*
X148383333Y-113140857D01*
X148383333Y-112902761D01*
X148430952Y-112807523D01*
X148478571Y-112759904D01*
X148573809Y-112712285D01*
X148811904Y-112712285D01*
X148907142Y-112759904D01*
X148954761Y-112807523D01*
X149002380Y-112902761D01*
X149002380Y-113140857D01*
X148954761Y-113236095D01*
X148907142Y-113283714D01*
%TO.C,C2*%
X140977142Y-112646666D02*
X141024761Y-112694285D01*
X141072380Y-112837142D01*
X141072380Y-112932380D01*
X141024761Y-113075238D01*
X140929523Y-113170476D01*
X140834285Y-113218095D01*
X140643809Y-113265714D01*
X140500952Y-113265714D01*
X140310476Y-113218095D01*
X140215238Y-113170476D01*
X140120000Y-113075238D01*
X140072380Y-112932380D01*
X140072380Y-112837142D01*
X140120000Y-112694285D01*
X140167619Y-112646666D01*
X140167619Y-112265714D02*
X140120000Y-112218095D01*
X140072380Y-112122857D01*
X140072380Y-111884761D01*
X140120000Y-111789523D01*
X140167619Y-111741904D01*
X140262857Y-111694285D01*
X140358095Y-111694285D01*
X140500952Y-111741904D01*
X141072380Y-112313333D01*
X141072380Y-111694285D01*
%TO.C,C6*%
X160477142Y-112646666D02*
X160524761Y-112694285D01*
X160572380Y-112837142D01*
X160572380Y-112932380D01*
X160524761Y-113075238D01*
X160429523Y-113170476D01*
X160334285Y-113218095D01*
X160143809Y-113265714D01*
X160000952Y-113265714D01*
X159810476Y-113218095D01*
X159715238Y-113170476D01*
X159620000Y-113075238D01*
X159572380Y-112932380D01*
X159572380Y-112837142D01*
X159620000Y-112694285D01*
X159667619Y-112646666D01*
X159572380Y-111789523D02*
X159572380Y-111980000D01*
X159620000Y-112075238D01*
X159667619Y-112122857D01*
X159810476Y-112218095D01*
X160000952Y-112265714D01*
X160381904Y-112265714D01*
X160477142Y-112218095D01*
X160524761Y-112170476D01*
X160572380Y-112075238D01*
X160572380Y-111884761D01*
X160524761Y-111789523D01*
X160477142Y-111741904D01*
X160381904Y-111694285D01*
X160143809Y-111694285D01*
X160048571Y-111741904D01*
X160000952Y-111789523D01*
X159953333Y-111884761D01*
X159953333Y-112075238D01*
X160000952Y-112170476D01*
X160048571Y-112218095D01*
X160143809Y-112265714D01*
%TO.C,C8*%
X210977142Y-112646666D02*
X211024761Y-112694285D01*
X211072380Y-112837142D01*
X211072380Y-112932380D01*
X211024761Y-113075238D01*
X210929523Y-113170476D01*
X210834285Y-113218095D01*
X210643809Y-113265714D01*
X210500952Y-113265714D01*
X210310476Y-113218095D01*
X210215238Y-113170476D01*
X210120000Y-113075238D01*
X210072380Y-112932380D01*
X210072380Y-112837142D01*
X210120000Y-112694285D01*
X210167619Y-112646666D01*
X210500952Y-112075238D02*
X210453333Y-112170476D01*
X210405714Y-112218095D01*
X210310476Y-112265714D01*
X210262857Y-112265714D01*
X210167619Y-112218095D01*
X210120000Y-112170476D01*
X210072380Y-112075238D01*
X210072380Y-111884761D01*
X210120000Y-111789523D01*
X210167619Y-111741904D01*
X210262857Y-111694285D01*
X210310476Y-111694285D01*
X210405714Y-111741904D01*
X210453333Y-111789523D01*
X210500952Y-111884761D01*
X210500952Y-112075238D01*
X210548571Y-112170476D01*
X210596190Y-112218095D01*
X210691428Y-112265714D01*
X210881904Y-112265714D01*
X210977142Y-112218095D01*
X211024761Y-112170476D01*
X211072380Y-112075238D01*
X211072380Y-111884761D01*
X211024761Y-111789523D01*
X210977142Y-111741904D01*
X210881904Y-111694285D01*
X210691428Y-111694285D01*
X210596190Y-111741904D01*
X210548571Y-111789523D01*
X210500952Y-111884761D01*
%TO.C,D9*%
X189786380Y-73128095D02*
X188786380Y-73128095D01*
X188786380Y-72890000D01*
X188834000Y-72747142D01*
X188929238Y-72651904D01*
X189024476Y-72604285D01*
X189214952Y-72556666D01*
X189357809Y-72556666D01*
X189548285Y-72604285D01*
X189643523Y-72651904D01*
X189738761Y-72747142D01*
X189786380Y-72890000D01*
X189786380Y-73128095D01*
X189786380Y-72080476D02*
X189786380Y-71890000D01*
X189738761Y-71794761D01*
X189691142Y-71747142D01*
X189548285Y-71651904D01*
X189357809Y-71604285D01*
X188976857Y-71604285D01*
X188881619Y-71651904D01*
X188834000Y-71699523D01*
X188786380Y-71794761D01*
X188786380Y-71985238D01*
X188834000Y-72080476D01*
X188881619Y-72128095D01*
X188976857Y-72175714D01*
X189214952Y-72175714D01*
X189310190Y-72128095D01*
X189357809Y-72080476D01*
X189405428Y-71985238D01*
X189405428Y-71794761D01*
X189357809Y-71699523D01*
X189310190Y-71651904D01*
X189214952Y-71604285D01*
%TO.C,D10*%
X197660380Y-73604285D02*
X196660380Y-73604285D01*
X196660380Y-73366190D01*
X196708000Y-73223333D01*
X196803238Y-73128095D01*
X196898476Y-73080476D01*
X197088952Y-73032857D01*
X197231809Y-73032857D01*
X197422285Y-73080476D01*
X197517523Y-73128095D01*
X197612761Y-73223333D01*
X197660380Y-73366190D01*
X197660380Y-73604285D01*
X197660380Y-72080476D02*
X197660380Y-72651904D01*
X197660380Y-72366190D02*
X196660380Y-72366190D01*
X196803238Y-72461428D01*
X196898476Y-72556666D01*
X196946095Y-72651904D01*
X196660380Y-71461428D02*
X196660380Y-71366190D01*
X196708000Y-71270952D01*
X196755619Y-71223333D01*
X196850857Y-71175714D01*
X197041333Y-71128095D01*
X197279428Y-71128095D01*
X197469904Y-71175714D01*
X197565142Y-71223333D01*
X197612761Y-71270952D01*
X197660380Y-71366190D01*
X197660380Y-71461428D01*
X197612761Y-71556666D01*
X197565142Y-71604285D01*
X197469904Y-71651904D01*
X197279428Y-71699523D01*
X197041333Y-71699523D01*
X196850857Y-71651904D01*
X196755619Y-71604285D01*
X196708000Y-71556666D01*
X196660380Y-71461428D01*
%TO.C,R21*%
X190528380Y-71508857D02*
X190052190Y-71842190D01*
X190528380Y-72080285D02*
X189528380Y-72080285D01*
X189528380Y-71699333D01*
X189576000Y-71604095D01*
X189623619Y-71556476D01*
X189718857Y-71508857D01*
X189861714Y-71508857D01*
X189956952Y-71556476D01*
X190004571Y-71604095D01*
X190052190Y-71699333D01*
X190052190Y-72080285D01*
X189623619Y-71127904D02*
X189576000Y-71080285D01*
X189528380Y-70985047D01*
X189528380Y-70746952D01*
X189576000Y-70651714D01*
X189623619Y-70604095D01*
X189718857Y-70556476D01*
X189814095Y-70556476D01*
X189956952Y-70604095D01*
X190528380Y-71175523D01*
X190528380Y-70556476D01*
X190528380Y-69604095D02*
X190528380Y-70175523D01*
X190528380Y-69889809D02*
X189528380Y-69889809D01*
X189671238Y-69985047D01*
X189766476Y-70080285D01*
X189814095Y-70175523D01*
%TO.C,R22*%
X209578380Y-71508857D02*
X209102190Y-71842190D01*
X209578380Y-72080285D02*
X208578380Y-72080285D01*
X208578380Y-71699333D01*
X208626000Y-71604095D01*
X208673619Y-71556476D01*
X208768857Y-71508857D01*
X208911714Y-71508857D01*
X209006952Y-71556476D01*
X209054571Y-71604095D01*
X209102190Y-71699333D01*
X209102190Y-72080285D01*
X208673619Y-71127904D02*
X208626000Y-71080285D01*
X208578380Y-70985047D01*
X208578380Y-70746952D01*
X208626000Y-70651714D01*
X208673619Y-70604095D01*
X208768857Y-70556476D01*
X208864095Y-70556476D01*
X209006952Y-70604095D01*
X209578380Y-71175523D01*
X209578380Y-70556476D01*
X208673619Y-70175523D02*
X208626000Y-70127904D01*
X208578380Y-70032666D01*
X208578380Y-69794571D01*
X208626000Y-69699333D01*
X208673619Y-69651714D01*
X208768857Y-69604095D01*
X208864095Y-69604095D01*
X209006952Y-69651714D01*
X209578380Y-70223142D01*
X209578380Y-69604095D01*
%TD*%
M02*
