M48
; DRILL file {KiCad (5.1.8)-1} date 12/03/20 12:03:56
; FORMAT={-:-/ absolute / inch / decimal}
; #@! TF.CreationDate,2020-12-03T12:03:56+01:00
; #@! TF.GenerationSoftware,Kicad,Pcbnew,(5.1.8)-1
; #@! TF.FileFunction,Plated,1,2,PTH
FMAT,2
INCH
T1C0.0157
T2C0.0276
T3C0.0315
T4C0.0354
T5C0.0394
T6C0.0433
T7C0.0598
%
G90
G05
T1
X6.7Y-2.99
T2
X7.68Y-3.94
X7.73Y-3.99
X7.78Y-3.94
X4.71Y-2.87
X4.76Y-2.82
X4.81Y-2.87
X6.31Y-2.87
X6.36Y-2.82
X6.41Y-2.87
X5.51Y-2.87
X5.56Y-2.82
X5.61Y-2.87
X5.9Y-3.94
X5.95Y-3.99
X6.0Y-3.94
X7.11Y-2.87
X7.16Y-2.82
X7.21Y-2.87
T3
X4.56Y-3.36
X4.56Y-3.5569
X5.75Y-2.99
X6.05Y-2.99
X6.75Y-3.93
X7.05Y-3.93
X4.95Y-2.99
X5.25Y-2.99
X5.45Y-4.01
X5.75Y-4.01
X5.36Y-3.33
X5.36Y-3.63
X5.66Y-3.33
X5.66Y-3.63
X5.86Y-3.33
X5.86Y-3.63
X6.06Y-3.33
X6.06Y-3.63
X6.2631Y-3.17
X6.46Y-3.17
X7.39Y-2.64
X7.39Y-2.94
X6.56Y-3.67
X6.56Y-3.97
X7.41Y-4.14
X7.71Y-4.14
X4.62Y-3.17
X4.92Y-3.17
X4.2931Y-3.17
X4.49Y-3.17
X6.41Y-3.29
X6.41Y-3.69
X4.15Y-2.99
X4.45Y-2.99
X6.13Y-4.0
X6.43Y-4.0
X7.22Y-3.92
X7.32Y-3.92
X7.42Y-3.92
X4.39Y-3.29
X4.39Y-3.69
X5.0Y-4.3693
X5.0Y-4.5661
X7.59Y-4.37
X7.59Y-4.5669
X5.75Y-2.85
X6.05Y-2.85
X8.14Y-2.64
X8.14Y-2.94
X4.74Y-3.32
X4.74Y-3.62
X4.84Y-3.32
X4.84Y-3.62
X4.94Y-3.32
X4.94Y-3.62
X5.04Y-3.32
X5.04Y-3.62
X4.95Y-2.85
X5.25Y-2.85
X4.78Y-3.92
X4.88Y-3.92
X4.98Y-3.92
X6.23Y-3.4
X6.23Y-3.5969
X6.55Y-2.85
X6.85Y-2.85
X4.8374Y-4.3693
X4.8374Y-4.5661
X6.59Y-3.36
X6.59Y-3.5569
X7.23Y-3.34
X7.23Y-3.64
X4.31Y-3.92
X4.61Y-3.92
X7.75Y-4.37
X7.75Y-4.5669
X5.14Y-3.88
X5.44Y-3.88
X7.4Y-3.33
X7.4Y-3.63
X7.7Y-3.33
X7.7Y-3.63
X7.9Y-3.33
X7.9Y-3.63
X8.1Y-3.33
X8.1Y-3.63
X5.75Y-4.37
X5.75Y-4.5669
X6.79Y-3.18
X7.09Y-3.18
X4.18Y-3.89
X4.18Y-4.19
X4.21Y-3.38
X4.21Y-3.5769
X6.55Y-2.99
X6.85Y-2.99
X5.2Y-3.34
X5.2Y-3.64
X6.77Y-3.32
X6.77Y-3.62
X6.87Y-3.32
X6.87Y-3.62
X6.97Y-3.32
X6.97Y-3.62
X7.07Y-3.32
X7.07Y-3.62
X4.15Y-2.85
X4.45Y-2.85
T4
X7.92Y-2.8
X7.92Y-2.9
X7.61Y-2.8
X7.61Y-2.9
T5
X8.0461Y-4.3299
X8.0461Y-4.5268
X5.2902Y-4.3299
X5.2902Y-4.5268
X6.0579Y-4.3299
X6.0579Y-4.5268
X4.38Y-2.54
X4.38Y-2.64
X4.48Y-2.54
X4.48Y-2.64
X4.58Y-2.54
X4.58Y-2.64
X4.68Y-2.54
X4.68Y-2.64
X4.78Y-2.54
X4.78Y-2.64
X4.88Y-2.54
X4.88Y-2.64
X4.98Y-2.54
X4.98Y-2.64
X5.08Y-2.54
X5.08Y-2.64
X5.18Y-2.54
X5.18Y-2.64
X5.28Y-2.54
X5.28Y-2.64
X5.38Y-2.54
X5.38Y-2.64
X5.48Y-2.54
X5.48Y-2.64
X5.58Y-2.54
X5.58Y-2.64
X5.68Y-2.54
X5.68Y-2.64
X5.78Y-2.54
X5.78Y-2.64
X5.88Y-2.54
X5.88Y-2.64
X5.98Y-2.54
X5.98Y-2.64
X6.08Y-2.54
X6.08Y-2.64
X6.18Y-2.54
X6.18Y-2.64
X6.28Y-2.54
X6.28Y-2.64
T6
X5.57Y-4.15
X5.97Y-4.15
X6.17Y-4.15
X6.57Y-4.15
X5.52Y-3.18
X5.92Y-3.18
X4.6276Y-4.1429
X4.8276Y-4.1429
X7.03Y-4.14
X7.23Y-4.14
X7.52Y-3.18
X7.92Y-3.18
T7
X7.18Y-4.47
X7.38Y-4.47
X6.72Y-4.47
X6.92Y-4.47
X4.43Y-4.48
X4.63Y-4.48
T0
M30
